<svg width="216" height="335" viewBox="0 0 216 335" fill="none" xmlns="http://www.w3.org/2000/svg">
<g id="Character_2_">
<g id="XMLID_82_">
<g id="XMLID_86_">
<g id="XMLID_94_">
<path id="XMLID_95_" d="M130.9 233.2C130.9 233 127.7 221.4 127.7 221.4C127.7 221.4 128.7 222.5 135.4 220.7C138.8 219.8 142.7 217.6 142.7 217.6L144.6 226.1C146.4 229.4 152.3 227.9 158.8 227.1C159.9 227 161 226.8 162.1 226.6H162.2C165.7 226.4 169.2 228.5 165.6 231.5C162 234.5 156 235.6 150.4 236.6C143.7 237.8 132.1 239.8 130.9 233.2Z" fill="#FFA8A7"/>
</g>
<g id="XMLID_87_">
<path id="XMLID_93_" d="M177.4 232.1C177.4 232.1 178.1 233.4 177.9 235.7C177.8 237 174.6 241.4 168.9 244.1C163.3 246.8 156.3 247 153 247.9C149.7 248.8 146.7 250.7 142.9 251.7C138.9 252.7 135.2 253.1 131.4 250.6C130.7 249.5 129.9 247 130.1 246.7C130.8 246 177.4 232.1 177.4 232.1Z" fill="#263238"/>
<path id="XMLID_92_" d="M145.6 227.2C148.1 228.9 153.2 227.7 158.8 227.1C164 226.5 169.9 224.7 173.5 225.9C177.1 227.1 180 231.3 175.2 236.7C173.8 238.3 170.9 241 168.5 241.8C162.5 243.9 157.2 244.1 153.3 245.1C148.3 246.3 145.6 248.5 140.9 249.1C134.9 249.8 131.1 248.3 130.1 246.7C129.1 245.1 128.1 232.2 130.7 232.5C130.7 232.5 131.8 236.7 141.6 232.6C145.9 230.7 145.8 228.1 145.6 227.2Z" fill="#03ABAA"/>
<path id="XMLID_91_" opacity="0.4" d="M145.6 227.2C148.1 228.9 153.2 227.7 158.8 227.1C164 226.5 169.9 224.7 173.5 225.9C177.1 227.1 180 231.3 175.2 236.7C173.8 238.3 170.9 241 168.5 241.8C162.5 243.9 157.2 244.1 153.3 245.1C148.3 246.3 145.6 248.5 140.9 249.1C134.9 249.8 131.1 248.3 130.1 246.7C129.1 245.1 128.1 232.2 130.7 232.5C130.7 232.5 131.8 236.7 141.6 232.6C145.9 230.7 145.8 228.1 145.6 227.2Z" fill="black"/>
<path id="XMLID_90_" d="M162.2 234.1C162.2 234.1 161.6 228.7 157.6 227.2C157.6 227.2 156.3 226.6 155.4 227.5C155.4 227.5 159.1 228 160.4 234.4C160.4 234.4 160.6 234.8 161.4 234.7C161.7 234.7 162.3 234.6 162.2 234.1Z" fill="#FAFAFA"/>
<path id="XMLID_89_" d="M152 227.9C152 227.9 152 227.7 152.9 227.5C153.6 227.4 154 227.6 154 227.6C154 227.6 157 228.9 157.6 234.6C157.6 234.6 157.6 235.3 156.7 235.5C155.8 235.7 155.6 234.9 155.6 234.9C155.6 234.9 155 229 152 227.9Z" fill="#FAFAFA"/>
<path id="XMLID_88_" d="M148.8 228.1C148.8 228.1 149 227.8 149.7 227.8C150.6 227.8 150.8 228.1 150.8 228.1C150.8 228.1 152.9 230.3 153 235C153 235 153.1 235.8 152 235.9C150.9 236 151 235.1 151 235.1C151 235.1 150.5 229 148.8 228.1Z" fill="#FAFAFA"/>
</g>
</g>
<g id="XMLID_83_">
<g id="XMLID_84_">
<path id="XMLID_85_" d="M126.7 154.3C131.6 169 144.6 219.8 144.6 219.8C144.6 219.8 136.1 227.4 127 223.9L105.1 160.7L126.7 154.3Z" fill="#37474F"/>
</g>
</g>
</g>
<g id="XMLID_69_">
<g id="XMLID_72_">
<g id="XMLID_80_">
<path id="XMLID_81_" d="M164.5 249.5C163.5 248 159.7 237.7 159.7 237.7C159.7 237.7 163.6 239.9 170.4 238.3C173.8 237.5 177 233.8 177 233.8L179.9 243.7C181.6 247 187.1 245.9 193.6 245.3C194.7 245.2 195.8 245 196.9 244.9H197C200.5 244.8 204 247 200.3 249.9C196.6 252.8 190.6 253.8 185 254.6C178.3 255.7 168.3 255.1 164.5 249.5Z" fill="#FFA8A7"/>
</g>
<g id="XMLID_73_">
<path id="XMLID_79_" d="M214.9 249.2C214.9 249.2 215.6 250.7 215.3 253C215.1 254.4 211.6 259 205.5 261.7C199.4 264.4 191.9 264.4 188.3 265.4C184.8 266.3 181.5 268.3 177.3 269.2C173 270.1 169 270.5 165 267.7C164.3 266.5 163.5 263.8 163.7 263.5C164.5 262.8 214.9 249.2 214.9 249.2Z" fill="#263238"/>
<path id="XMLID_78_" d="M181 243C181.4 243.3 181.8 243.5 182.2 243.8C182.6 244 183.1 244 183.6 244.1C184.7 244.2 185.8 244.2 186.9 244.2C189.6 244.1 192.4 243.7 195.1 243.4C200.7 242.9 207.1 241.1 210.9 242.5C214.7 243.9 218.1 248.5 212.8 254.1C211.3 255.7 208.1 258.5 205.7 259.5C199.4 262.1 192.9 261.6 188.7 262.6C183.3 263.8 180.3 266.1 175.3 266.6C168.9 267.2 164.8 265.4 163.8 263.7C163.2 262.7 163.9 257.7 163.1 253.7C162.4 250.3 162.6 248 163.8 248.2C164 248.6 164.4 249 164.7 249.4C165.1 249.9 165.6 250.3 166.1 250.5C166.9 250.9 167.7 251.1 168.5 251.3C170 251.7 171.5 252 173 251.9C173.4 251.9 173.9 251.8 174.2 251.5C174.6 251.1 174.8 250.5 174.9 250C175 249.5 175.1 249 175.2 248.5C175.3 248.2 175.3 248 175.5 247.7C175.7 247.4 176 247.3 176.3 247.1C177.2 246.6 178.2 246.1 178.8 245.2C179.2 244.5 179.4 243.7 179.5 242.9C179.5 242.8 179.6 242.6 179.7 242.5C179.9 242.4 180.2 242.5 180.3 242.6C180.5 242.7 180.8 242.8 181 243Z" fill="#03ABAA"/>
<path id="XMLID_77_" opacity="0.4" d="M181 243C181.4 243.3 181.8 243.5 182.2 243.8C182.6 244 183.1 244 183.6 244.1C184.7 244.2 185.8 244.2 186.9 244.2C189.6 244.1 192.4 243.7 195.1 243.4C200.7 242.9 207.1 241.1 210.9 242.5C214.7 243.9 218.1 248.5 212.8 254.1C211.3 255.7 208.1 258.5 205.7 259.5C199.4 262.1 192.9 261.6 188.7 262.6C183.3 263.8 180.3 266.1 175.3 266.6C168.9 267.2 164.8 265.4 163.8 263.7C163.2 262.7 163.9 257.7 163.1 253.7C162.4 250.3 162.6 248 163.8 248.2C164 248.6 164.4 249 164.7 249.4C165.1 249.9 165.6 250.3 166.1 250.5C166.9 250.9 167.7 251.1 168.5 251.3C170 251.7 171.5 252 173 251.9C173.4 251.9 173.9 251.8 174.2 251.5C174.6 251.1 174.8 250.5 174.9 250C175 249.5 175.1 249 175.2 248.5C175.3 248.2 175.3 248 175.5 247.7C175.7 247.4 176 247.3 176.3 247.1C177.2 246.6 178.2 246.1 178.8 245.2C179.2 244.5 179.4 243.7 179.5 242.9C179.5 242.8 179.6 242.6 179.7 242.5C179.9 242.4 180.2 242.5 180.3 242.6C180.5 242.7 180.8 242.8 181 243Z" fill="black"/>
<path id="XMLID_76_" d="M198.6 251C198.6 251 198.1 245.1 193.9 243.5C193.9 243.5 192.5 242.8 191.5 243.8C191.5 243.8 195.5 244.5 196.6 251.4C196.6 251.4 196.8 251.9 197.7 251.7C197.9 251.5 198.6 251.4 198.6 251Z" fill="#FAFAFA"/>
<path id="XMLID_75_" d="M187.7 244.1C187.7 244.1 187.7 243.9 188.7 243.7C189.4 243.6 189.9 243.9 189.9 243.9C189.9 243.9 193.1 245.4 193.5 251.5C193.5 251.5 193.5 252.2 192.5 252.4C191.5 252.6 191.4 251.8 191.4 251.8C191.4 251.8 190.9 245.3 187.7 244.1Z" fill="#FAFAFA"/>
<path id="XMLID_74_" d="M184.3 244.1C184.3 244.1 184.5 243.7 185.2 243.8C186.2 243.8 186.4 244.2 186.4 244.2C186.4 244.2 188.6 246.6 188.5 251.7C188.5 251.7 188.6 252.6 187.4 252.6C186.2 252.7 186.4 251.7 186.4 251.7C186.4 251.7 186.1 245.2 184.3 244.1Z" fill="#FAFAFA"/>
</g>
</g>
<g id="XMLID_70_">
<path id="XMLID_71_" d="M161.2 171.7C165.1 183.6 174.9 217.4 179.4 234.7C179.4 234.7 171.3 242 160.9 241.3L135.8 176.2L145.8 170L161.2 171.7Z" fill="#455A64"/>
</g>
</g>
<g id="XMLID_47_">
<g id="XMLID_67_">
<path id="XMLID_68_" d="M78.6 334.2C79.5 334.2 80.2 333.5 80.2 332.6V227.9C80.2 227 79.5 226.3 78.6 226.3C77.7 226.3 77 227 77 227.9V332.5C77 333.4 77.7 334.2 78.6 334.2Z" fill="#455A64"/>
</g>
<g id="XMLID_65_">
<path id="XMLID_66_" d="M13.9 296.1C14.5 296.1 15.2 295.7 15.4 295.1L47.5 213.9C47.8 213.1 47.4 212.1 46.6 211.8C45.8 211.5 44.8 211.9 44.5 212.7L12.4 293.9C12.1 294.7 12.5 295.7 13.3 296C13.5 296 13.7 296.1 13.9 296.1Z" fill="#455A64"/>
</g>
<g id="XMLID_63_">
<path id="XMLID_64_" d="M17.7 286.3C18.1 286.3 18.6 286.1 18.9 285.8L78.6 222.6L138.2 285.5C138.8 286.2 139.8 286.2 140.5 285.6C141.2 285 141.2 284 140.6 283.3L79.8 219.2C79.5 218.9 79.1 218.7 78.6 218.7C78.2 218.7 77.7 218.9 77.4 219.2L16.5 283.6C15.9 284.3 15.9 285.3 16.6 285.9C16.9 286.2 17.3 286.3 17.7 286.3Z" fill="#455A64"/>
</g>
<g id="XMLID_61_">
<path id="XMLID_62_" d="M143.3 296.1C143.5 296.1 143.7 296.1 143.9 296C144.7 295.7 145.1 294.7 144.8 293.9L112.7 212.7C112.4 211.9 111.4 211.5 110.6 211.8C109.8 212.1 109.4 213.1 109.7 213.9L141.8 295.1C142 295.7 142.7 296.1 143.3 296.1Z" fill="#455A64"/>
</g>
<g id="XMLID_59_">
<path id="XMLID_60_" d="M144.1 192.1C145.3 185.5 139.9 180.4 129.9 173.6C119.8 166.8 107 160.1 100.8 157.2C92.4 153.3 83.8 153.7 73 159.2C58 166.9 13 194.2 13 194.2C13 194.2 80.3 232.2 93.3 230.5C106.3 228.8 138.6 207.7 141.2 200.3C143.7 193 144.1 192.1 144.1 192.1Z" fill="#03ABAA"/>
</g>
<g id="XMLID_57_" opacity="0.4">
<path id="XMLID_58_" d="M144.1 192.1C145.3 185.5 139.9 180.4 129.9 173.6C119.8 166.8 107 160.1 100.8 157.2C92.4 153.3 83.8 153.7 73 159.2C58 166.9 13 194.2 13 194.2C13 194.2 80.3 232.2 93.3 230.5C106.3 228.8 138.6 207.7 141.2 200.3C143.7 193 144.1 192.1 144.1 192.1Z" fill="black"/>
</g>
<g id="XMLID_55_">
<path id="XMLID_56_" d="M86.7 222.6C96.4 231.3 106.5 223.8 122.4 213.4C140.5 201.7 144 192.1 144 192.1C144 192.1 144 199.3 142.7 202.7C141.4 206.1 138.4 209.9 125.4 218.9C112.4 227.9 102.9 232.4 94.1 234.1L87.2 233.1" fill="#03ABAA"/>
</g>
<path id="XMLID_54_" opacity="0.5" d="M122.5 213.4C140.6 201.7 144.1 192.1 144.1 192.1C144.1 192.1 144.1 199.3 142.8 202.7C141.5 206.1 138.5 209.9 125.5 218.9C112.5 227.9 103 232.4 94.2 234.1L87.3 233.1L86.8 222.6C96.4 231.3 106.5 223.8 122.5 213.4Z" fill="black"/>
<g id="XMLID_52_">
<path id="XMLID_53_" d="M16.4 283.3L11.4 294.7C11.4 294.8 11.4 294.9 11.3 295C11.3 295.1 11.3 295.1 11.3 295.2C11.3 295.4 11.6 295.8 11.9 296C12.6 296.5 13.8 296.5 14.6 296.1C14.9 296 15.1 295.8 15.1 295.6V295.4L19.7 284.7L16.4 283.3Z" fill="#03ABAA"/>
</g>
<g id="XMLID_50_">
<path id="XMLID_51_" d="M141.1 283.8L145.3 295C145.3 295.1 145.3 295.2 145.3 295.3C145.3 295.4 145.3 295.4 145.3 295.5C145.3 295.7 145 296 144.7 296.2C144 296.6 142.8 296.6 142.1 296.2C141.8 296 141.7 295.9 141.6 295.7V295.5L137.7 285L141.1 283.8Z" fill="#03ABAA"/>
</g>
<g id="XMLID_48_">
<path id="XMLID_49_" d="M76.7 324.4V333.7C76.7 334 76.9 334.3 77.2 334.5C77.9 334.9 79.1 334.9 79.9 334.5C80.3 334.3 80.4 334 80.4 333.7V324.4C79.2 323.8 78 323.8 76.7 324.4Z" fill="#03ABAA"/>
</g>
</g>
<g id="Group">
<g id="Group_2">
<g id="XMLID_42_">
<g id="XMLID_45_">
<path id="XMLID_46_" d="M39.9 152.8C43.7 157.3 78.6 147.2 87.9 146C102.8 144 114.9 142.5 120 144.1C125.1 145.7 127.2 148.3 128.8 154.3C130.6 161.4 131.6 165.1 131.6 165.1C131.6 165.1 106.8 174.6 87.3 176.9C67.7 179.2 39.9 152.8 39.9 152.8Z" fill="#37474F"/>
</g>
<g id="XMLID_43_">
<path id="XMLID_44_" d="M33.4 159.4C29.5 174.1 26.1 191.3 35 200.7C41 207 71.3 223.4 90.8 217C110 210.6 149.9 181 153.9 178.1C157.9 175.1 161.5 173.1 161.2 171.8C155.8 154 148 152.6 133.4 155.8C115.6 159.7 76.5 175.7 76.5 175.7L33.4 159.4Z" fill="#455A64"/>
</g>
</g>
</g>
<g id="Group_3">
<g id="XMLID_39_">
<g id="XMLID_40_">
<path id="XMLID_41_" d="M121.9 64.6L108.4 79.8L86.7 69.5L101.9 48.5L121.9 64.6Z" fill="#FFA8A7"/>
</g>
</g>
<g id="XMLID_34_">
<g id="XMLID_37_">
<path id="XMLID_38_" d="M138.6 35.8C138.6 35.8 144.1 43.7 143.5 44.6C142.9 45.4 139 46.2 139 46.2L138.6 35.8Z" fill="#F28F8F"/>
</g>
<path id="Vector" d="M138.5 40.5C141.814 40.5 144.5 37.8137 144.5 34.5C144.5 31.1863 141.814 28.5 138.5 28.5C135.186 28.5 132.5 31.1863 132.5 34.5C132.5 37.8137 135.186 40.5 138.5 40.5Z" stroke="#263238" stroke-width="1.207" stroke-miterlimit="10"/>
<g id="XMLID_35_">
<path id="XMLID_36_" d="M123.3 13.8C134.1 15.8 137.3 20.5 138.7 37.5C140.2 55.3 138.5 61 136.2 63.4C134.7 65.1 125.9 65.6 121.4 64.4C115.8 63 103.2 58.8 97.1 50C89.9 39.6 87.8 25.3 95.1 19.3C105.3 10.9 118.9 13 123.3 13.8Z" fill="#FFA8A7"/>
</g>
<path id="Vector_2" d="M121.9 64.6C126.6 65.7 133.6 65 135.7 63.8C135.5 63.9 132.2 64.7 127.9 63.5C123.5 62.3 120.7 60.3 120.7 60.3L121.9 64.6Z" fill="#F28F8F"/>
</g>
<g id="XMLID_27_">
<g id="XMLID_31_">
<g id="XMLID_32_">
<path id="XMLID_33_" d="M140.7 20.8C137.7 22.9 134 23.8 130.3 24.3C130.6 27.2 129.7 30.1 128.8 32.8C128.2 34.7 125.9 40.7 123.5 37.4C121.7 35 120.1 32.8 116.7 33.4C111.1 34.4 110.5 41.5 114.2 45.8C117.8 50.1 121.1 48.3 121.1 48.3C121.1 48.3 121.6 56 117.6 61.4C117.6 61.4 111.5 65.1 103 62.3C97.6 60.5 89.9 53.8 87 48.5C79.2 34 79.1 20.1 88.6 15.8C89.5 8.8 94.9 5.6 101.1 4C109.7 1.8 118.6 7.2 126.9 3.7C128.6 3 130.3 1.9 132 1.2C133 0.799998 134.2 0.599998 135.1 1.2C135.9 1.7 136.2 2.7 136.4 3.6C136.8 5.3 136.9 7.1 136.1 8.6C137.4 8 138.6 7.4 140 7.2C141.4 7 142.9 7.2 143.9 8.1C144.9 8.9 145.4 10.2 145.5 11.5C145.9 15.2 143.7 18.7 140.7 20.8Z" fill="#263238"/>
</g>
</g>
<g id="XMLID_28_">
<g id="XMLID_29_">
<path id="XMLID_30_" d="M88.6 18.2L82.1 14.6C83.1 12.8 85.4 12.2 87.2 13.2C88.9 14.2 89.6 16.4 88.6 18.2Z" fill="#263238"/>
</g>
</g>
</g>
<path id="Vector_3" d="M123.5 37.5L144.4 33.6" stroke="#263238" stroke-width="1.027" stroke-miterlimit="10"/>
</g>
<path id="Vector_4" d="M167.2 73.5C166.6 72.6 165.4 72.4 164.4 72C162.5 71.3 161 69.8 159.1 69C157 68.1 154.6 68 152.4 68.6C151.6 68.8 150.9 69 150.2 69.3C148.8 69.8 147.5 70.6 146.2 71.3C140.9 74.4 136.9 81.5 131.7 84.8C129.8 86 127.9 87.1 126.2 88.2L138.6 99.3C141.2 97.2 143.6 95.3 144.7 94.6C147.8 92.8 150.9 92.7 154.3 92.2C156.7 91.9 159 91.1 161.3 90.4C162.1 90.2 163 89.8 163.4 89.1C163.8 88.1 163.1 86.9 162.1 86.5C161 86.1 159.6 86.2 158.5 86C157.6 85.9 155.2 86.4 154.7 85.5C154.4 85 154.8 84.4 155.1 84C157.3 81.3 160 78.4 163.4 77.6C164.5 77.3 165.6 77.1 166.4 76.4C167.3 75.8 167.8 74.5 167.2 73.5Z" fill="#FFA8A7"/>
<path id="Vector_5" d="M92.8 61.1C79.6 53.9 67.6 58.5 63.2 67.8C59.3 76.2 51 108.6 51 108.6C55.1 116.1 92.8 61.1 92.8 61.1Z" fill="#03ABAA"/>
<g id="Group_4">
<path id="Vector_6" d="M90.9 63.7L92.9 61.1C78 54 64.6 63.3 52.9 81.6C40.2 101.3 33.6 129.6 33.5 159.5C33.5 159.5 36 172.9 53 179.6C71 186.7 96.1 183.7 103.9 165C103.9 165 104.1 146.4 109.7 137.2C113.4 131.3 121.9 118.1 128.3 108.6C133.8 100.4 138.1 81.6 126.6 74.8C123.2 72.8 121.8 72.2 117.2 70C106.6 73.6 89.5 67.9 90.9 63.7Z" fill="#03ABAA"/>
<path id="Vector_7" opacity="0.75" d="M90.9 63.8L92.8 61.1C77.9 54 64.5 63.3 52.8 81.6C40.1 101.3 33.5 129.6 33.4 159.5C33.4 159.5 35.9 172.9 52.9 179.6C70.9 186.7 96 183.7 103.8 165C103.8 165 104 146.4 109.6 137.2C113.3 131.3 121.8 118.1 128.2 108.6C133.7 100.4 138 81.6 126.5 74.8C123.1 72.8 121.7 72.2 117.1 70C106.6 73.6 89.5 68 90.9 63.8Z" fill="white"/>
<path id="Vector_8" opacity="0.1" d="M133.1 96.8C133.9 93.2 134.1 89.4 133.6 85.9C130.9 92.2 127.1 98.1 122.3 103.1C116.2 109.5 108.7 114.5 103.1 121.3C97.1 128.5 92.9 137.2 87.9 145C85.9 148.1 83.2 154.2 79.4 154.5C74.9 154.8 70.5 149.3 68 145.4C64.1 139.3 60.7 131.7 55.8 126.4C51.5 121.7 44.9 115.7 39 118.5C38.6 120.1 38.2 121.6 37.8 123.2C37.4 124.8 37 126.4 36.7 128C36.7 128.1 36.7 128.1 36.7 128.2C36.4 129.8 36.1 131.5 35.8 133.1C35.8 133.2 35.8 133.3 35.8 133.4C35.5 135 35.3 136.6 35 138.3C34 145.3 33.5 152.5 33.5 159.7C33.5 159.7 36 173.1 53 179.8C71 186.9 96.1 183.9 103.9 165.2C103.9 165.2 104.1 146.6 109.7 137.4C110.3 136.5 111 135.4 111.7 134.1C111.7 134 111.8 134 111.8 133.9C112.4 132.9 113.2 131.8 113.9 130.6C113.9 130.5 114 130.5 114 130.4C114 130.4 114 130.3 114.1 130.3C115.7 127.8 117.5 125 119.4 122.1C119.7 121.7 120 121.2 120.3 120.8C122.1 118 124 115.2 125.7 112.6C126.3 111.7 126.9 110.8 127.4 110C127.6 109.6 127.9 109.3 128.1 108.9C128.3 108.6 128.5 108.3 128.7 108C128.8 107.9 128.8 107.8 128.9 107.7C129 107.5 129.2 107.2 129.3 107C129.4 106.9 129.4 106.8 129.5 106.7C129.7 106.4 129.8 106.1 129.9 105.8C129.9 105.7 130 105.6 130 105.6C130.2 105.2 130.4 104.8 130.6 104.4C130.6 104.4 130.6 104.4 130.6 104.3C130.8 103.9 130.9 103.5 131.1 103.2C131.1 103.1 131.2 103 131.2 102.9C131.3 102.5 131.5 102.2 131.6 101.8V101.7V101.6C131.8 100.9 132.1 100.2 132.3 99.5C132.7 98.3 132.9 97.6 133.1 96.8C133.1 96.8 133 96.9 133.1 96.8Z" fill="#03ABAA"/>
</g>
<g id="Group_5">
<path id="Vector_9" d="M202.3 114.9C201.4 116.1 200.3 117.1 199.2 118.1C194.6 122.2 189.3 124.2 183.1 128.2C178.1 131.5 170.4 136.2 163.9 140.2C156.6 144.8 147.8 148.5 142.9 149.9C136.9 151.7 133.5 151.8 129.9 142.1C128.1 137.3 126.8 132.5 125.2 127.6C122.9 120.4 120.7 113.2 118.6 106C118.6 106 110.6 86.2 128.6 76.2C136.4 80.7 139.4 82.5 141.9 91.9C144.8 103.1 149.6 125.3 149.6 125.3C156 123.1 162.2 120.4 168.2 117.4C170.5 116.3 173.3 115.5 174.9 113.4C176 112 176.9 110.5 177.8 108.9C178.6 107.5 179.1 106 180 104.7C181.6 102.2 183.8 100.2 185.9 98.2C186.3 97.8 186.8 97.4 187.3 97.4C187.9 97.4 188.5 97.8 188.8 98.3C189.5 99.5 188.8 100.6 188.5 101.8C188.1 103.1 187.7 104.5 187.3 105.8C191.9 103.1 195.8 99.5 198.8 95C199.1 94.6 199.3 94.2 199.7 93.9C200.1 93.6 200.6 93.4 201 93.4C202.2 93.5 203.4 95.5 203.5 96.6C203.6 97.7 203.3 98.9 203.6 100C203.9 101 204.6 101.9 204.9 102.9C205.2 103.9 205.5 105.1 205.6 106.1C205.9 108.5 205 110.8 203.8 112.9C203.2 113.7 202.7 114.3 202.3 114.9Z" fill="#FFA8A7"/>
<path id="Vector_10" d="M127.4 75.5C134.3 78.3 139.2 81.4 142.3 91.9C145.4 102.4 148.8 119.1 148.8 119.1C148.8 119.1 148.9 122.6 140.5 127.5C132.2 132.4 124.4 129.7 124.4 129.7L118.1 109.5C118.2 109.5 107.1 82.5 127.4 75.5Z" fill="#03ABAA"/>
</g>
</g>
<g id="XMLID_22_">
<path id="XMLID_26_" d="M87.2 233C81.7 232.7 77.4 228.7 64.3 223.2C40.1 213.1 22 205.1 15.1 192.4C8.2 179.7 3.3 143.2 5 127.4C5.2 125.3 5.6 123.6 6.2 122.2L4.5 122L8.9 118.3C13.4 114.6 20.8 117.9 26.3 120.9C42.1 129.5 54.5 137.9 64.3 168.1C71.7 190.8 76.5 211.5 86.7 222.6" fill="#03ABAA"/>
<path id="XMLID_25_" opacity="0.3" d="M6.29999 122.2L4.59999 122L8.99999 118.3C13.5 114.6 20.9 117.9 26.4 120.9C42.2 129.5 54.6 137.9 64.4 168.1C71.8 190.8 76.6 211.5 86.8 222.6L87.3 233.1C81.8 232.8 77.5 228.8 64.4 223.3C40.2 213.2 22.1 205.2 15.2 192.5C8.29999 179.8 3.39999 143.3 5.09999 127.5C5.29999 125.4 5.69999 123.7 6.29999 122.2Z" fill="black"/>
<g id="XMLID_23_">
<path id="XMLID_24_" d="M21.8 124.8C37.6 133.4 50 141.8 59.8 172C69.6 202.2 74.9 228.9 94.2 234.1C94.2 234.1 85.5 237.6 58.8 226.3C50.3 222.7 40 216.2 33.2 212.4C19.9 205 11.9 198.8 10.6 196.6C3.59999 184 -1.2 147.4 0.499996 131.6C2.2 115.6 13.9 120.4 21.8 124.8Z" fill="#03ABAA"/>
</g>
</g>
</g>
</svg>
