<svg width="305" height="364" viewBox="0 0 305 364" fill="none" xmlns="http://www.w3.org/2000/svg">
<g id="Desk_2_">
<g id="Table_1_">
<g id="XMLID_496_">
<path id="XMLID_498_" d="M173.8 249.5V360.4C173.8 361.1 173.3 362 172.7 362.3L170.3 363.7C169.7 364.1 168.7 364.1 168.1 363.7L165.7 362.3C165.1 361.9 164.6 361.1 164.6 360.4V249.5C164.6 248.8 165.1 248.5 165.7 248.9L168.1 250.3C168.7 250.7 169.7 250.7 170.3 250.3L172.7 248.9C173.3 248.5 173.8 248.8 173.8 249.5Z" fill="#37474F"/>
<path id="XMLID_497_" d="M168 363.7L165.6 362.3C165 361.9 164.5 361.1 164.5 360.4V249.5C164.5 248.8 165 248.5 165.6 248.9L168 250.3C168.6 250.7 169.1 251.5 169.1 252.2V363.1C169.2 363.8 168.7 364.1 168 363.7Z" fill="#455A64"/>
</g>
<g id="XMLID_493_">
<path id="XMLID_495_" d="M275.3 190.8V301.7C275.3 302.4 274.8 303.3 274.2 303.6L271.8 305C271.2 305.4 270.2 305.4 269.6 305L267.2 303.6C266.6 303.2 266.1 302.4 266.1 301.7V190.8C266.1 190.1 266.6 189.8 267.2 190.2L269.6 191.6C270.2 192 271.2 192 271.8 191.6L274.2 190.2C274.8 189.8 275.3 190.1 275.3 190.8Z" fill="#37474F"/>
<path id="XMLID_494_" d="M269.6 305.1L267.2 303.7C266.6 303.3 266.1 302.5 266.1 301.8V190.8C266.1 190.1 266.6 189.8 267.2 190.2L269.6 191.6C270.2 192 270.7 192.8 270.7 193.5V304.4C270.7 305.2 270.2 305.5 269.6 305.1Z" fill="#455A64"/>
</g>
<g id="XMLID_490_">
<path id="XMLID_492_" d="M37.1 170.6V281.5C37.1 282.2 36.6 283.1 36 283.4L33.6 284.8C33 285.2 32 285.2 31.4 284.8L29 283.4C28.4 283 27.9 282.2 27.9 281.5V170.6C27.9 169.9 28.4 169.6 29 170L31.4 171.4C32 171.8 33 171.8 33.6 171.4L36 170C36.6 169.6 37.1 169.9 37.1 170.6Z" fill="#37474F"/>
<path id="XMLID_491_" d="M31.3 284.9L28.9 283.5C28.3 283.1 27.8 282.3 27.8 281.6V170.6C27.8 169.9 28.3 169.6 28.9 170L31.3 171.4C31.9 171.8 32.4 172.6 32.4 173.3V284.2C32.5 284.9 32 285.2 31.3 284.9Z" fill="#455A64"/>
</g>
<g id="XMLID_481_">
<g id="XMLID_487_">
<path id="XMLID_489_" d="M297.4 198.7V197.9C297.4 196.6 296.5 195 295.4 194.4L116.4 91.1C115.3 90.5 113.5 90.5 112.3 91.1L2.2 154.7C1.1 155.3 0.199997 156.9 0.199997 158.2V159C0.199997 160.3 1.1 161.9 2.2 162.5L181.2 265.8C182.3 266.4 184.2 266.4 185.3 265.8L295.4 202.2C296.5 201.6 297.4 200 297.4 198.7Z" fill="#03ABAA"/>
<path id="XMLID_488_" opacity="0.6" d="M297.4 198.7V197.9C297.4 196.6 296.5 195 295.4 194.4L116.4 91.1C115.3 90.5 113.5 90.5 112.3 91.1L2.2 154.7C1.1 155.3 0.199997 156.9 0.199997 158.2V159C0.199997 160.3 1.1 161.9 2.2 162.5L181.2 265.8C182.3 266.4 184.2 266.4 185.3 265.8L295.4 202.2C296.5 201.6 297.4 200 297.4 198.7Z" fill="black"/>
</g>
<g id="XMLID_484_">
<path id="XMLID_486_" d="M183.2 260.8V266.3C183.9 266.3 184.7 266.1 185.2 265.8L295.3 202.2C296.4 201.5 297.3 200 297.3 198.7V197.9C297.3 196.8 296.6 195.4 295.6 194.6C296.3 195.2 296.2 196.1 295.2 196.7L185.1 260.3C184.7 260.7 183.9 260.8 183.2 260.8Z" fill="#03ABAA"/>
<path id="XMLID_485_" opacity="0.5" d="M183.2 260.8V266.3C183.9 266.3 184.7 266.1 185.2 265.8L295.3 202.2C296.4 201.5 297.3 200 297.3 198.7V197.9C297.3 196.8 296.6 195.4 295.6 194.6C296.3 195.2 296.2 196.1 295.2 196.7L185.1 260.3C184.7 260.7 183.9 260.8 183.2 260.8Z" fill="black"/>
</g>
<g id="Group">
<path id="XMLID_483_" d="M295.3 196.7L185.2 260.3C184.1 260.9 182.3 260.9 181.1 260.3L2.10001 157C1.00001 156.4 1.00001 155.3 2.10001 154.6L112.2 91C113.3 90.4 115.2 90.4 116.3 91L295.3 194.3C296.5 195 296.5 196.1 295.3 196.7Z" fill="#03ABAA"/>
<path id="XMLID_482_" opacity="0.4" d="M295.3 196.7L185.2 260.3C184.1 260.9 182.3 260.9 181.1 260.3L2.10001 157C1.00001 156.4 1.00001 155.3 2.10001 154.6L112.2 91C113.3 90.4 115.2 90.4 116.3 91L295.3 194.3C296.5 195 296.5 196.1 295.3 196.7Z" fill="black"/>
</g>
</g>
</g>
<g id="Keyboard_2_">
<path id="Shadow_2_" opacity="0.15" d="M169.7 195.4L143.6 210.5C142.8 211 141.5 211 140.7 210.5L63.6 166C62.8 165.5 62.8 164.8 63.6 164.3L89.7 149.2C90.5 148.7 91.8 148.7 92.6 149.2L169.7 193.6C170.5 194.1 170.5 194.9 169.7 195.4Z" fill="black"/>
<g id="Keyboard_3_">
<g id="XMLID_477_">
<path id="XMLID_480_" d="M65.1 161.7C65.1 161.4 65.3 161.1 65.7 160.9L90.2 146.8C91 146.3 92.3 146.3 93.1 146.8L167.9 190.1C168.3 190.3 168.5 190.6 168.5 190.9C168.5 191.2 168.5 193.2 168.5 193.5C168.5 193.8 168.3 194.1 167.9 194.3L143.4 208.4C142.6 208.9 141.3 208.9 140.5 208.4L65.7 165.2C65.3 165 65.1 164.7 65.1 164.4C65.1 164 65.1 162 65.1 161.7Z" fill="#263238"/>
<path id="XMLID_479_" d="M143.5 205.7L168 191.6C168.8 191.1 168.8 190.4 168 189.9L93.2 146.6C92.4 146.1 91.1 146.1 90.3 146.6L65.8 160.7C65 161.2 65 161.9 65.8 162.4L140.6 205.6C141.4 206.2 142.7 206.2 143.5 205.7Z" fill="#37474F"/>
<path id="XMLID_478_" d="M142.1 206V208.6C142.6 208.6 143.1 208.5 143.5 208.3L168 194.2C168.4 194 168.6 193.7 168.6 193.4V190.8C168.6 191.1 168.4 191.4 168 191.6L143.5 205.7C143.1 205.9 142.6 206 142.1 206Z" fill="#263238"/>
</g>
<path id="XMLID_368_" d="M69.7 161.8L72.1 160.4L75.4 162.3L73 163.7L69.7 161.8ZM73.5 159.7C73.5 159.6 73.5 159.6 73.5 159.7L75.9 158.3L78.5 159.8L76.1 161.2L73.5 159.7ZM74.3 164.5L76.7 163.1L79.3 164.6L76.9 166L74.3 164.5ZM77.3 157.5C77.3 157.4 77.3 157.4 77.3 157.5L79.7 156.1L83.9 158.5L81.5 159.9L77.3 157.5ZM77.4 161.9L79.8 160.5L81.9 161.7L79.5 163.1L77.4 161.9ZM78.2 166.7L80.6 165.3L83.2 166.8L80.8 168.2L78.2 166.7ZM80.7 163.8L83.1 162.4L85.2 163.6L82.8 165L80.7 163.8ZM81.1 155.3C81.1 155.3 81.1 155.2 81.1 155.3L83.5 153.9L86.8 155.8L84.4 157.2L81.1 155.3ZM82.1 169L84.5 167.6L103.2 178.4L100.8 179.8L82.1 169ZM82.8 160.6L85.2 159.2L87.3 160.4L84.9 161.8L82.8 160.6ZM84.1 165.8L86.5 164.4L88.6 165.6L86.2 167L84.1 165.8ZM84.9 153.1C84.9 153.1 84.9 153 84.9 153.1L87.3 151.7L89.4 152.9L87 154.3L84.9 153.1ZM85.7 157.9L88.1 156.5L90.2 157.7L87.8 159.1L85.7 157.9ZM86.1 162.6C86.1 162.6 86.1 162.5 86.1 162.6L88.5 161.2L90.6 162.4L88.2 163.8L86.1 162.6ZM87.4 167.7C87.4 167.7 87.5 167.7 87.4 167.7L89.8 166.3L91.9 167.5L89.5 168.9L87.4 167.7ZM88.2 155L90.6 153.6L92.7 154.8L90.3 156.2L88.2 155ZM89 159.9C89 159.8 89 159.8 89 159.9L91.4 158.5L93.5 159.7L91.1 161.1L89 159.9ZM89.5 164.5L91.9 163.1L94 164.3L91.6 165.7L89.5 164.5ZM89.5 150.4L91.9 149L94.5 150.5L92.1 151.9L89.5 150.4ZM90.8 169.7C90.8 169.6 90.8 169.6 90.8 169.7L93.2 168.3L95.3 169.5L92.9 170.9L90.8 169.7ZM91.6 157C91.6 156.9 91.6 156.9 91.6 157L94 155.6L96.1 156.8L93.7 158.2L91.6 157ZM92.4 161.8L94.8 160.4L96.9 161.6L94.5 163L92.4 161.8ZM92.8 166.4L95.2 165L97.3 166.2L94.9 167.6L92.8 166.4ZM94.2 171.6L96.6 170.2L98.7 171.4L96.3 172.8L94.2 171.6ZM94.8 153.5L97.2 152.1L99.3 153.3L96.9 154.7L94.8 153.5ZM94.9 158.9C94.9 158.9 95 158.9 94.9 158.9L97.3 157.5L99.4 158.7L97 160.1L94.9 158.9ZM95.7 163.7C95.7 163.7 95.8 163.7 95.7 163.7L98.1 162.3L100.2 163.5L97.8 164.9L95.7 163.7ZM96.2 168.4L98.6 167L100.7 168.2L98.3 169.6L96.2 168.4ZM97.5 173.5L99.9 172.1L102 173.3L99.6 174.7L97.5 173.5ZM98.2 155.4L100.6 154L102.7 155.2L100.3 156.6L98.2 155.4ZM98.3 160.8L100.7 159.4L102.8 160.6L100.4 162L98.3 160.8ZM99.1 165.7L101.5 164.3L103.6 165.5L101.2 166.9L99.1 165.7ZM99.6 170.3L102 168.9L104.1 170.1L101.7 171.5L99.6 170.3ZM100.9 175.5L103.3 174.1L105.4 175.3L103 176.7L100.9 175.5ZM101.5 157.4C101.5 157.4 101.6 157.4 101.5 157.4L103.9 156L106 157.2L103.6 158.6L101.5 157.4ZM101.7 162.8C101.7 162.8 101.7 162.7 101.7 162.8L104.1 161.4L106.2 162.6L103.8 164L101.7 162.8ZM102 180.5C102 180.5 102.1 180.5 102 180.5L104.4 179.1L107 180.6L104.6 182L102 180.5ZM102.5 167.6L104.9 166.2L107 167.4L104.6 168.8L102.5 167.6ZM102.9 172.3C102.9 172.3 102.9 172.2 102.9 172.3L105.3 170.9L107.4 172.1L105 173.5L102.9 172.3ZM104.2 177.4C104.2 177.4 104.3 177.4 104.2 177.4L106.6 176L108.7 177.2L106.3 178.6L104.2 177.4ZM104.9 159.3L107.3 157.9L109.4 159.1L107 160.5L104.9 159.3ZM105 164.7L107.4 163.3L109.5 164.5L107.1 165.9L105 164.7ZM105.8 169.6C105.8 169.5 105.8 169.5 105.8 169.6L108.2 168.2L110.3 169.4L107.9 170.8L105.8 169.6ZM105.9 182.8L108.3 181.4L110.9 182.9L108.5 184.3L105.9 182.8ZM106.3 174.2L108.7 172.8L110.8 174L108.4 175.4L106.3 174.2ZM107.6 179.4C107.6 179.3 107.6 179.3 107.6 179.4L110 178L112.1 179.2L109.7 180.6L107.6 179.4ZM108.4 166.7C108.4 166.6 108.4 166.6 108.4 166.7L110.8 165.3L112.9 166.5L110.5 167.9L108.4 166.7ZM109.2 171.5L111.6 170.1L113.7 171.3L111.3 172.7L109.2 171.5ZM109.6 176.1L112 174.7L114.1 175.9L111.7 177.3L109.6 176.1ZM109.7 162.1L112.1 160.7L114.2 161.9L111.8 163.3L109.7 162.1ZM109.8 185L112.2 183.6L114.8 185.1L112.4 186.5L109.8 185ZM111 181.3L113.4 179.9L115.5 181.1L113.1 182.5L111 181.3ZM111.7 168.6C111.7 168.6 111.8 168.6 111.7 168.6L114.1 167.2L116.2 168.4L113.8 169.8L111.7 168.6ZM112.5 173.4C112.5 173.4 112.6 173.4 112.5 173.4L114.9 172L117 173.2L114.6 174.6L112.5 173.4ZM113 178.1L115.4 176.7L117.5 177.9L115.1 179.3L113 178.1ZM113.1 164.1C113.1 164 113.1 164 113.1 164.1L115.5 162.7L117.6 163.9L115.2 165.3L113.1 164.1ZM113.7 187.3C113.7 187.3 113.7 187.2 113.7 187.3L116.1 185.9L119.4 187.8L117 189.2L113.7 187.3ZM114.3 183.2L116.7 181.8L123.2 185.5L120.8 186.9L114.3 183.2ZM115.1 170.5L117.5 169.1L119.6 170.3L117.2 171.7L115.1 170.5ZM115.9 175.4L118.3 174L120.4 175.2L118 176.6L115.9 175.4ZM116.4 180L118.8 178.6L120.9 179.8L118.5 181.2L116.4 180ZM116.5 166L118.9 164.6L121 165.8L118.6 167.2L116.5 166ZM118.5 172.5C118.5 172.5 118.5 172.4 118.5 172.5L120.9 171.1L123 172.3L120.6 173.7L118.5 172.5ZM119 190.3L121.4 188.9L123.5 190.1L121.1 191.5L119 190.3ZM119.3 177.3L121.7 175.9L123.8 177.1L121.4 178.5L119.3 177.3ZM119.7 182C119.7 182 119.7 181.9 119.7 182L122.1 180.6L124 181.7C124.1 181.8 124.4 181.8 124.6 181.8C124.9 181.8 125.1 181.8 125.2 181.7L128.4 179.9L130.8 181.3L124.6 184.9L119.7 182ZM119.8 167.9L122.2 166.5L124.3 167.7L121.9 169.1L119.8 167.9ZM121.8 174.4L124.2 173L126.3 174.2L123.9 175.6L121.8 174.4ZM122.4 192.3C122.4 192.3 122.4 192.2 122.4 192.3L124.8 190.9L126.9 192.1L124.5 193.5L122.4 192.3ZM122.6 179.3C122.6 179.2 122.6 179.2 122.6 179.3L125 177.9L127.1 179.1L124.7 180.5L122.6 179.3ZM124.6 170.7L127 169.3L129.1 170.5L126.7 171.9L124.6 170.7ZM125.2 176.4C125.2 176.3 125.2 176.3 125.2 176.4L127.6 175L129.7 176.2L127.3 177.6L125.2 176.4ZM125.7 194.2L128.1 192.8L130.2 194L127.8 195.4L125.7 194.2ZM126.2 190.1L128.6 188.7L130.7 189.9L128.3 191.3L126.2 190.1ZM128 172.7C128 172.6 128 172.6 128 172.7L130.4 171.3L132.5 172.5L130.1 173.9L128 172.7ZM128.5 178.3C128.5 178.3 128.6 178.3 128.5 178.3L130.9 176.9L134.5 179L132.1 180.4L128.5 178.3ZM129.8 196.6C129.8 196.5 129.8 196.5 129.8 196.6L132.2 195.2L137.6 198.3L135.2 199.7L129.8 196.6ZM130.4 183.8C130.4 183.7 130.4 183.7 130.4 183.8L132.8 182.4L134.9 183.6L132.5 185L130.4 183.8ZM131.4 174.6L133.8 173.2L135.9 174.4L133.5 175.8L131.4 174.6ZM133.6 194.4C133.6 194.4 133.6 194.3 133.6 194.4L136 193L138.1 194.2L135.7 195.6L133.6 194.4ZM133.8 185.7L136.2 184.3L138.3 185.5L135.9 186.9L133.8 185.7ZM134.2 181.6C134.2 181.5 134.2 181.5 134.2 181.6L136.6 180.2L138.7 181.4L136.3 182.8L134.2 181.6ZM134.7 176.5L137.1 175.1L139.2 176.3L136.8 177.7L134.7 176.5ZM136.5 200.4L138.9 199L141 200.2L138.6 201.6L136.5 200.4ZM137 196.3L139.4 194.9L141.5 196.1L139.1 197.5L137 196.3ZM137.1 187.6L139.5 186.2L141.6 187.4L139.2 188.8L137.1 187.6ZM137.4 192.2L139.8 190.8L141.9 192L139.5 193.4L137.4 192.2ZM137.6 183.5L140 182.1L142.1 183.3L139.7 184.7L137.6 183.5ZM138.8 178.9L141.2 177.5L143.3 178.7L140.9 180.1L138.8 178.9ZM139.9 202.4L146.1 198.8L148.2 200L142 203.6L139.9 202.4ZM140.3 198.3C140.3 198.2 140.3 198.2 140.3 198.3L142.7 196.9L144.8 198.1L142.4 199.5L140.3 198.3ZM140.8 194.1L143.2 192.7L145.3 193.9L142.9 195.3L140.8 194.1ZM140.9 185.4L143.3 184L145.4 185.2L143 186.6L140.9 185.4ZM141.2 190L143.6 188.6L145.7 189.8L143.3 191.2L141.2 190ZM142.2 180.8L144.6 179.4L146.7 180.6L144.3 182L142.2 180.8ZM144.1 196.1C144.1 196 144.1 196 144.1 196.1L146.5 194.7L148.6 195.9L146.2 197.3L144.1 196.1ZM144.6 191.9L147 190.5L149.1 191.7L146.7 193.1L144.6 191.9ZM145 187.8L147.4 186.4L149.5 187.6L147.1 189L145 187.8ZM145.5 182.8L147.9 181.4L150 182.6L147.6 184L145.5 182.8ZM147.5 198L153.7 194.4L155.8 195.6L149.6 199.2L147.5 198ZM147.9 193.9C147.9 193.9 147.9 193.8 147.9 193.9L150.3 192.5L152.4 193.7L150 195.1L147.9 193.9ZM148.4 189.7L150.8 188.3L152.9 189.5L150.5 190.9L148.4 189.7ZM150.6 184.6C150.6 184.6 150.6 184.5 150.6 184.6L151.6 184L153.7 185.2L152.6 185.9L150.6 184.6ZM151.7 191.7C151.7 191.7 151.7 191.6 151.7 191.7L154.1 190.3L156.2 191.5L153.8 192.9L151.7 191.7ZM153.9 186.5C153.9 186.5 154 186.5 153.9 186.5L154.9 185.9L157 187.1L155.9 187.8L153.9 186.5ZM155.1 193.6L157.5 192.2L159.6 193.4L157.2 194.8L155.1 193.6ZM157.3 188.4L158.3 187.8L160.4 189L159.3 189.7L157.3 188.4ZM160.7 190.4L161.7 189.8L163.8 191L162.7 191.7L160.7 190.4Z" fill="#03ABAA"/>
</g>
</g>
<g id="Device_1_">
<path id="Shadow_1_" opacity="0.15" d="M229.9 198.3L252.9 185L138.1 118.8L115.2 132L229.9 198.3Z" fill="black"/>
<g id="Monitor_1_">
<g id="XMLID_361_">
<g id="XMLID_366_">
<path id="XMLID_367_" d="M165 176.7L148.6 167.2C146.9 166.2 146.1 164.9 146.1 163.7C146.1 162.4 146.1 161.4 146.1 161.4L161.5 152.6C162.4 152.1 163.1 150.8 163.1 149.8V129.6L191.7 146.1V166.3C191.7 167.3 191 168.6 190.1 169.1L177.2 176.6C173.8 178.7 168.3 178.7 165 176.7Z" fill="#E6E6E6"/>
</g>
<path id="XMLID_365_" d="M184.8 170V172.3L190 169.3C190.9 168.8 191.6 167.5 191.6 166.5V146.3L186.1 143.2C186 144.6 185.9 146 185.8 147.4L189.6 149.6V165.4C189.6 166.4 188.9 167.7 188 168.2L184.8 170Z" fill="#E0E0E0"/>
<path id="XMLID_364_" d="M189.7 165.3C189.7 166.3 189 167.6 188.1 168.1L177.2 174.5C173.8 176.5 168.3 176.5 165 174.5L148.6 165C145.2 163.1 145.2 159.9 148.6 157.9L159.5 151.5C160.4 151 161.1 149.7 161.1 148.7V132.9L189.7 149.4V165.3V165.3Z" fill="#F5F5F5"/>
<path id="XMLID_363_" d="M156.2 153.5L159.5 151.6C160.4 151.1 161.1 149.8 161.1 148.8V133L189.7 149.5V165.3C189.7 166.3 189 167.6 188.1 168.1L184.8 170L156.2 153.5Z" fill="#EBEBEB"/>
<path id="XMLID_362_" d="M146 161.4C146 161.4 146 162.4 146 163.7C146 165 146.8 166.3 148.5 167.2L164.9 176.7C166.5 177.6 168.6 178.1 170.7 178.2V175.9C168.6 175.9 166.5 175.4 164.9 174.4L148.5 164.9C146.9 164 146 162.7 146 161.4Z" fill="#EBEBEB"/>
</g>
<path id="XMLID_360_" d="M235.7 187.1C234.6 187.7 232.9 187.7 231.7 187C217.6 178.9 135.1 131.2 121 123.1C119.9 122.4 119 120.9 119 119.6V22.7C119 21.4 119.9 19.9 120.9 19.2C122 18.6 123.7 18.6 124.9 19.3L235.6 83.2C236.7 83.9 237.6 85.4 237.6 86.7V183.6C237.6 184.9 236.7 186.4 235.7 187.1Z" fill="#455A64"/>
<path id="XMLID_359_" d="M231.7 187L121 123.1C119.9 122.4 119 120.9 119 119.6V22.7C119 21.4 119.9 20.9 121 21.5L231.7 85.4C232.8 86.1 233.7 87.6 233.7 88.9V185.8C233.8 187.1 232.9 187.6 231.7 187Z" fill="#37474F"/>
<path id="XMLID_358_" d="M232 187.4C233.1 187.9 234.7 187.9 235.7 187.3C236.8 186.7 237.6 185.1 237.6 183.8V172.9L233.8 175.1V186C233.8 187.2 233 187.8 232 187.4Z" fill="#E0E0E0"/>
<path id="XMLID_357_" d="M233.8 175.2V186.1C233.8 187.4 232.9 187.9 231.8 187.3L121 123.3C119.9 122.6 119 121.1 119 119.8V108.9L233.8 175.2Z" fill="white"/>
<path id="XMLID_356_" d="M229.9 166.9V90.2C229.9 89.4 229.4 88.5 228.7 88.1L124.1 27.6C123.4 27.2 122.9 27.5 122.9 28.3V105C122.9 105.8 123.4 106.7 124.1 107.1L228.8 167.5C229.4 168 229.9 167.6 229.9 166.9Z" fill="#03ABAA"/>
<path id="XMLID_355_" opacity="0.5" d="M229.9 166.9V90.2C229.9 89.4 229.4 88.5 228.7 88.1L124.1 27.6C123.4 27.2 122.9 27.5 122.9 28.3V105C122.9 105.8 123.4 106.7 124.1 107.1L228.8 167.5C229.4 168 229.9 167.6 229.9 166.9Z" fill="white"/>
<path id="XMLID_351_" d="M176.4 146.2C177.5 146.8 178.3 148.3 178.3 149.5C178.3 150.7 177.4 151.2 176.4 150.6C175.3 150 174.5 148.5 174.5 147.3C174.5 146.1 175.3 145.6 176.4 146.2Z" fill="#455A64"/>
<path id="XMLID_350_" d="M233.2 86.9C233.6 87.5 233.8 88.3 233.8 88.9V175.1L237.6 172.9V86.7C237.6 86.1 237.4 85.3 237 84.7L233.2 86.9Z" fill="#263238"/>
</g>
</g>
<g id="Window_5_">
<g id="Window_6_">
<path id="Vector" d="M137.1 2.7C137.1 2.6 137.1 2.6 137.1 2.5C137.1 2.4 137.1 2.4 137.1 2.3C137.1 2.2 137.2 2.1 137.2 2.1C137.2 2.1 137.2 2 137.3 2C137.3 2 137.3 1.9 137.4 1.9C137.4 1.8 137.5 1.8 137.5 1.8C137.6 1.8 137.6 1.7 137.7 1.7C138.1 1.5 138.5 1.6 139 1.9L268.2 76.4C269.3 77 270.2 78.5 270.2 79.8V173.3V173.7C270.2 174.2 269.9 174.7 269.5 174.9C269.5 174.9 269.4 174.9 269.4 175C269.4 175 269.3 175 269.3 175.1C269.2 175.1 269.2 175.1 269.1 175.2C269 175.2 268.9 175.2 268.9 175.2C268.7 175.2 268.5 175.1 268.3 175H268.2L266.3 173.9L139 100.4C137.9 99.8 137 98.3 137 97V3C137.1 2.8 137.1 2.7 137.1 2.7Z" fill="#455A64"/>
<g id="XMLID_345_">
<g id="XMLID_349_">
<path id="Vector_2" d="M137.7 1.6C138.1 1.4 138.5 1.5 139 1.8L268.2 76.3C269.3 76.9 270.2 78.4 270.2 79.7V86.1L272.7 84.6V78.3C272.7 77.1 271.8 75.5 270.8 74.9L141.6 0.400001C141 0.100001 140.5 0.100002 140.2 0.300002C139.8 0.500002 138.2 1.4 137.7 1.6Z" fill="#03ABAA"/>
</g>
<path id="XMLID_348_" d="M137.1 2.9C137.1 1.7 138 1.2 139 1.8L268.2 76.3C269.3 76.9 270.2 78.4 270.2 79.7V86.1L137.1 9.3V2.9Z" fill="#03ABAA"/>
<g id="XMLID_347_" opacity="0.5">
<path id="Vector_3" d="M139.1 1.8L268.3 76.3C268.8 76.6 269.3 77.1 269.7 77.7L272.2 76.3C271.9 75.7 271.4 75.2 270.8 74.9L141.6 0.400001C141 0.100001 140.5 0.100002 140.2 0.300002C139.9 0.500002 138.2 1.4 137.8 1.7C138.1 1.4 138.6 1.5 139.1 1.8Z" fill="white"/>
</g>
<path id="XMLID_346_" opacity="0.15" d="M272.7 84.6V78.3C272.7 77.7 272.5 77 272.1 76.3L269.6 77.7C270 78.3 270.2 79 270.2 79.6V86L272.7 84.6Z" fill="black"/>
</g>
<g id="XMLID_335_">
<path id="XMLID_344_" d="M265.8 77.7C266.4 78.1 266.9 79.1 266.9 80C266.9 80.9 266.4 81.4 265.8 81.1C265.2 80.7 264.7 79.7 264.7 78.8C264.7 77.8 265.2 77.3 265.8 77.7Z" fill="#455A64"/>
<path id="XMLID_338_" d="M261.8 75.4C262.4 75.8 262.9 76.8 262.9 77.7C262.9 78.6 262.4 79.1 261.8 78.8C261.2 78.4 260.7 77.4 260.7 76.5C260.7 75.5 261.2 75 261.8 75.4Z" fill="#455A64"/>
<path id="XMLID_336_" d="M257.8 73.1C258.4 73.5 258.9 74.5 258.9 75.4C258.9 76.3 258.4 76.8 257.8 76.5C257.2 76.1 256.7 75.1 256.7 74.2C256.7 73.3 257.2 72.7 257.8 73.1Z" fill="#455A64"/>
</g>
<path id="Vector_4" opacity="0.9" d="M269.5 174.8L269.6 174.7L271.7 173.5C272.3 173.2 272.6 172.6 272.7 172C272.7 171.9 272.7 171.8 272.7 171.7V84.6L270.2 86.1V173.7C270.2 174.1 269.9 174.5 269.5 174.8C269.5 174.8 269.6 174.8 269.5 174.8Z" fill="#263238"/>
</g>
<g id="Code_1_">
<g id="Group_2">
<path id="XMLID_334_" d="M176.7 42.6L203.9 58.3C204.3 58.5 204.6 59 204.6 59.5C204.6 59.9 204.3 60.1 203.9 59.9L176.7 44.2C176.3 44 176 43.5 176 43C176 42.5 176.3 42.3 176.7 42.6Z" fill="#03ABAA"/>
<path id="XMLID_333_" d="M187.1 72.6L197.4 78.5C197.8 78.7 198.1 79.2 198.1 79.7C198.1 80.1 197.8 80.3 197.4 80.1L187.1 74.2C186.7 74 186.4 73.5 186.4 73C186.4 72.5 186.7 72.4 187.1 72.6Z" fill="#E6E6E6"/>
<path id="XMLID_332_" d="M187.1 78.6L197.4 84.5C197.8 84.7 198.1 85.2 198.1 85.7C198.1 86.1 197.8 86.3 197.4 86.1L187.1 80.2C186.7 80 186.4 79.5 186.4 79C186.4 78.5 186.7 78.4 187.1 78.6Z" fill="#E6E6E6"/>
<path id="XMLID_331_" d="M206.6 59.8L261.1 91.2C261.5 91.4 261.8 91.9 261.8 92.4C261.8 92.8 261.5 93 261.1 92.8L206.6 61.4C206.2 61.2 205.9 60.7 205.9 60.2C205.9 59.7 206.2 59.6 206.6 59.8Z" fill="#03ABAA"/>
<path id="XMLID_330_" d="M187.3 114.7L203.9 124.3C204.3 124.5 204.6 125 204.6 125.5C204.6 125.9 204.3 126.1 203.9 125.9L187.3 116.3C186.9 116.1 186.6 115.6 186.6 115.1C186.6 114.7 186.9 114.5 187.3 114.7Z" fill="#03ABAA"/>
<path id="XMLID_329_" d="M206.6 125.9L261.1 157.3C261.5 157.5 261.8 158 261.8 158.5C261.8 158.9 261.5 159.1 261.1 158.9L206.6 127.5C206.2 127.3 205.9 126.8 205.9 126.3C205.9 125.8 206.2 125.7 206.6 125.9Z" fill="#03ABAA"/>
<g id="XMLID_326_">
<path id="XMLID_328_" d="M176.7 48.6L190.4 56.5C190.8 56.7 191.1 57.2 191.1 57.7C191.1 58.1 190.8 58.3 190.4 58.1L176.7 50.2C176.3 50 176 49.5 176 49C176 48.5 176.3 48.4 176.7 48.6Z" fill="#03ABAA"/>
<path id="XMLID_327_" opacity="0.6" d="M176.7 48.6L190.4 56.5C190.8 56.7 191.1 57.2 191.1 57.7C191.1 58.1 190.8 58.3 190.4 58.1L176.7 50.2C176.3 50 176 49.5 176 49C176 48.5 176.3 48.4 176.7 48.6Z" fill="white"/>
</g>
<g id="XMLID_323_">
<path id="XMLID_325_" d="M176.7 54.6L183.1 58.3C183.5 58.5 183.8 59 183.8 59.5C183.8 59.9 183.5 60.1 183.1 59.9L176.7 56.2C176.3 56 176 55.5 176 55C176 54.5 176.3 54.4 176.7 54.6Z" fill="#03ABAA"/>
<path id="XMLID_324_" opacity="0.6" d="M176.7 54.6L183.1 58.3C183.5 58.5 183.8 59 183.8 59.5C183.8 59.9 183.5 60.1 183.1 59.9L176.7 56.2C176.3 56 176 55.5 176 55C176 54.5 176.3 54.4 176.7 54.6Z" fill="white"/>
</g>
<g id="XMLID_319_">
<path id="XMLID_322_" d="M176.7 66.6L183.1 70.3C183.5 70.5 183.8 71 183.8 71.5C183.8 71.9 183.5 72.1 183.1 71.9L176.7 68.2C176.3 68 176 67.5 176 67C176 66.5 176.3 66.4 176.7 66.6Z" fill="#03ABAA"/>
<path id="XMLID_320_" opacity="0.6" d="M176.7 66.6L183.1 70.3C183.5 70.5 183.8 71 183.8 71.5C183.8 71.9 183.5 72.1 183.1 71.9L176.7 68.2C176.3 68 176 67.5 176 67C176 66.5 176.3 66.4 176.7 66.6Z" fill="white"/>
</g>
<g id="XMLID_316_">
<path id="XMLID_318_" d="M176.7 72.6L183.1 76.3C183.5 76.5 183.8 77 183.8 77.5C183.8 78 183.5 78.1 183.1 77.9L176.7 74.2C176.3 74 176 73.5 176 73C176 72.5 176.3 72.4 176.7 72.6Z" fill="#03ABAA"/>
<path id="XMLID_317_" opacity="0.6" d="M176.7 72.6L183.1 76.3C183.5 76.5 183.8 77 183.8 77.5C183.8 78 183.5 78.1 183.1 77.9L176.7 74.2C176.3 74 176 73.5 176 73C176 72.5 176.3 72.4 176.7 72.6Z" fill="white"/>
</g>
<g id="XMLID_313_">
<path id="XMLID_315_" d="M193.1 58L201.3 62.8C201.7 63 202 63.5 202 64C202 64.4 201.7 64.6 201.3 64.4L193.1 59.6C192.7 59.4 192.4 58.9 192.4 58.4C192.4 58 192.7 57.8 193.1 58Z" fill="#03ABAA"/>
<path id="XMLID_314_" opacity="0.6" d="M193.1 58L201.3 62.8C201.7 63 202 63.5 202 64C202 64.4 201.7 64.6 201.3 64.4L193.1 59.6C192.7 59.4 192.4 58.9 192.4 58.4C192.4 58 192.7 57.8 193.1 58Z" fill="white"/>
</g>
<g id="XMLID_311_">
<path id="XMLID_312_" d="M205.8 101.5L261.1 133.3C261.5 133.5 261.8 134 261.8 134.5C261.8 134.9 261.5 135.1 261.1 134.9L205.8 103C205.4 102.8 205.1 102.3 205.1 101.8C205.1 101.4 205.4 101.2 205.8 101.5Z" fill="white"/>
</g>
<g id="XMLID_309_">
<path id="XMLID_310_" d="M252.9 122.5L261.1 127.3C261.5 127.5 261.8 128 261.8 128.5C261.8 129 261.5 129.1 261.1 128.9L252.9 124.1C252.5 123.9 252.2 123.4 252.2 122.9C252.2 122.5 252.5 122.3 252.9 122.5Z" fill="white"/>
</g>
<g id="XMLID_307_">
<path id="XMLID_308_" d="M194.9 89.1L250.2 120.9C250.6 121.1 250.9 121.6 250.9 122.1C250.9 122.6 250.6 122.7 250.2 122.5L194.9 90.7C194.5 90.5 194.2 90 194.2 89.5C194.2 89.1 194.5 88.9 194.9 89.1Z" fill="white"/>
</g>
<g id="XMLID_304_">
<path id="XMLID_306_" d="M187.1 60.6L200.8 68.5C201.2 68.7 201.5 69.2 201.5 69.7C201.5 70.1 201.2 70.3 200.8 70.1L187.1 62.2C186.7 62 186.4 61.5 186.4 61C186.4 60.5 186.7 60.4 187.1 60.6Z" fill="#03ABAA"/>
<path id="XMLID_305_" opacity="0.6" d="M187.1 60.6L200.8 68.5C201.2 68.7 201.5 69.2 201.5 69.7C201.5 70.1 201.2 70.3 200.8 70.1L187.1 62.2C186.7 62 186.4 61.5 186.4 61C186.4 60.5 186.7 60.4 187.1 60.6Z" fill="white"/>
</g>
<g id="XMLID_301_">
<path id="XMLID_303_" d="M203.5 70L260.7 103.1C261.1 103.3 261.4 103.8 261.4 104.3C261.4 104.7 261.1 104.9 260.7 104.7L203.5 71.6C203.1 71.4 202.8 70.9 202.8 70.4C202.8 70 203.1 69.8 203.5 70Z" fill="#03ABAA"/>
<path id="XMLID_302_" opacity="0.6" d="M203.5 70L260.7 103.1C261.1 103.3 261.4 103.8 261.4 104.3C261.4 104.7 261.1 104.9 260.7 104.7L203.5 71.6C203.1 71.4 202.8 70.9 202.8 70.4C202.8 70 203.1 69.8 203.5 70Z" fill="white"/>
</g>
<path id="XMLID_300_" d="M187.1 96.8L261.1 139.5C261.5 139.7 261.8 140.2 261.8 140.7C261.8 141.2 261.5 141.3 261.1 141.1L187.1 98.4C186.7 98.2 186.4 97.7 186.4 97.2C186.4 96.7 186.7 96.5 187.1 96.8Z" fill="#E6E6E6"/>
<g id="XMLID_297_">
<path id="XMLID_299_" d="M176.7 90.8L183.1 94.5C183.5 94.7 183.8 95.2 183.8 95.7C183.8 96.1 183.5 96.3 183.1 96.1L176.7 92.4C176.3 92.2 176 91.7 176 91.2C176 90.7 176.3 90.5 176.7 90.8Z" fill="#03ABAA"/>
<path id="XMLID_298_" opacity="0.6" d="M176.7 90.8L183.1 94.5C183.5 94.7 183.8 95.2 183.8 95.7C183.8 96.1 183.5 96.3 183.1 96.1L176.7 92.4C176.3 92.2 176 91.7 176 91.2C176 90.7 176.3 90.5 176.7 90.8Z" fill="white"/>
</g>
<path id="XMLID_296_" d="M187.1 102.8L261.1 145.5C261.5 145.7 261.8 146.2 261.8 146.7C261.8 147.1 261.5 147.3 261.1 147.1L187.1 104.4C186.7 104.2 186.4 103.7 186.4 103.2C186.4 102.7 186.7 102.5 187.1 102.8Z" fill="#E6E6E6"/>
<g id="XMLID_293_">
<path id="XMLID_295_" d="M176.7 96.8L183.1 100.5C183.5 100.7 183.8 101.2 183.8 101.7C183.8 102.2 183.5 102.3 183.1 102.1L176.7 98.4C176.3 98.2 176 97.7 176 97.2C176 96.7 176.3 96.5 176.7 96.8Z" fill="#03ABAA"/>
<path id="XMLID_294_" opacity="0.6" d="M176.7 96.8L183.1 100.5C183.5 100.7 183.8 101.2 183.8 101.7C183.8 102.2 183.5 102.3 183.1 102.1L176.7 98.4C176.3 98.2 176 97.7 176 97.2C176 96.7 176.3 96.5 176.7 96.8Z" fill="white"/>
</g>
<path id="XMLID_292_" d="M187.1 108.8L261.1 151.5C261.5 151.7 261.8 152.2 261.8 152.7C261.8 153.2 261.5 153.3 261.1 153.1L187.1 110.4C186.7 110.2 186.4 109.7 186.4 109.2C186.4 108.7 186.7 108.6 187.1 108.8Z" fill="#E6E6E6"/>
<g id="XMLID_289_">
<path id="XMLID_291_" d="M176.7 102.8L183.1 106.5C183.5 106.7 183.8 107.2 183.8 107.7C183.8 108.1 183.5 108.3 183.1 108.1L176.7 104.4C176.3 104.2 176 103.7 176 103.2C176 102.7 176.3 102.5 176.7 102.8Z" fill="#03ABAA"/>
<path id="XMLID_290_" opacity="0.6" d="M176.7 102.8L183.1 106.5C183.5 106.7 183.8 107.2 183.8 107.7C183.8 108.1 183.5 108.3 183.1 108.1L176.7 104.4C176.3 104.2 176 103.7 176 103.2C176 102.7 176.3 102.5 176.7 102.8Z" fill="white"/>
</g>
</g>
<g id="Group_3" opacity="0.6">
<path id="Vector_5" d="M166.7 36.5L170.5 38.7C170.9 38.9 171.2 39.4 171.2 39.9V41.3C171.2 41.7 170.9 41.9 170.5 41.7L166.7 39.5C166.3 39.3 166 38.8 166 38.3V36.9C166 36.5 166.3 36.3 166.7 36.5Z" fill="white"/>
<path id="Vector_6" d="M166.7 42.6L170.5 44.8C170.9 45 171.2 45.5 171.2 46V47.4C171.2 47.8 170.9 48 170.5 47.8L166.7 45.6C166.3 45.4 166 44.9 166 44.4V43C166 42.6 166.3 42.4 166.7 42.6Z" fill="white"/>
<path id="Vector_7" d="M166.7 48.7L170.5 50.9C170.9 51.1 171.2 51.6 171.2 52.1V53.5C171.2 53.9 170.9 54.1 170.5 53.9L166.7 51.7C166.3 51.5 166 51 166 50.5V49.1C166 48.6 166.3 48.5 166.7 48.7Z" fill="white"/>
<path id="Vector_8" d="M166.7 54.7L170.5 56.9C170.9 57.1 171.2 57.6 171.2 58.1V59.5C171.2 59.9 170.9 60.1 170.5 59.9L166.7 57.7C166.3 57.5 166 57 166 56.5V55.1C166 54.7 166.3 54.5 166.7 54.7Z" fill="white"/>
<path id="Vector_9" d="M166.7 60.8L170.5 63C170.9 63.2 171.2 63.7 171.2 64.2V65.6C171.2 66 170.9 66.2 170.5 66L166.7 63.8C166.3 63.6 166 63.1 166 62.6V61.2C166 60.8 166.3 60.6 166.7 60.8Z" fill="white"/>
<path id="Vector_10" d="M166.7 66.9L170.5 69.1C170.9 69.3 171.2 69.8 171.2 70.3V71.7C171.2 72.1 170.9 72.3 170.5 72.1L166.7 69.9C166.3 69.7 166 69.2 166 68.7V67.3C166 66.8 166.3 66.6 166.7 66.9Z" fill="white"/>
<path id="Vector_11" d="M166.7 72.9L170.5 75.1C170.9 75.3 171.2 75.8 171.2 76.3V77.7C171.2 78.1 170.9 78.3 170.5 78.1L166.7 75.9C166.3 75.7 166 75.1 166 74.7V73.3C166 72.9 166.3 72.7 166.7 72.9Z" fill="white"/>
<path id="Vector_12" d="M166.7 79L170.5 81.2C170.9 81.4 171.2 81.9 171.2 82.4V83.8C171.2 84.2 170.9 84.4 170.5 84.2L166.7 82C166.3 81.8 166 81.3 166 80.8V79.4C166 79 166.3 78.8 166.7 79Z" fill="white"/>
<path id="Vector_13" d="M166.7 85.1L170.5 87.3C170.9 87.5 171.2 88 171.2 88.5V89.9C171.2 90.3 170.9 90.5 170.5 90.3L166.7 88.1C166.3 87.9 166 87.4 166 86.9V85.5C166 85 166.3 84.8 166.7 85.1Z" fill="white"/>
<path id="Vector_14" d="M166.7 91.1L170.5 93.3C170.9 93.5 171.2 94 171.2 94.5V95.9C171.2 96.3 170.9 96.5 170.5 96.3L166.7 94.1C166.3 93.9 166 93.4 166 92.9V91.5C166 91.1 166.3 90.9 166.7 91.1Z" fill="white"/>
<path id="Vector_15" d="M166.7 97.2L170.5 99.4C170.9 99.6 171.2 100.1 171.2 100.6V102C171.2 102.4 170.9 102.6 170.5 102.4L166.7 100.2C166.3 100 166 99.5 166 99V97.6C166 97.1 166.3 97 166.7 97.2Z" fill="white"/>
<path id="Vector_16" d="M166.7 103.3L170.5 105.5C170.9 105.7 171.2 106.2 171.2 106.7V108.1C171.2 108.5 170.9 108.7 170.5 108.5L166.7 106.3C166.3 106.1 166 105.6 166 105.1V103.7C166 103.2 166.3 103 166.7 103.3Z" fill="white"/>
</g>
<g id="Group_4">
<path id="Vector_17" d="M141.6 16.8L162 28.6C162.8 29 163.4 30.1 163.4 31V54.6C163.4 55.5 162.8 55.8 162 55.4L141.6 43.6C140.8 43.2 140.2 42.1 140.2 41.2V17.6C140.3 16.8 140.9 16.4 141.6 16.8Z" fill="#37474F"/>
<g id="Group_5">
<g id="Group_6">
<path id="XMLID_288_" d="M143.5 40.2L145.4 41.3C145.8 41.5 146.1 42 146.1 42.5C146.1 42.9 145.8 43.1 145.4 42.9L143.5 41.8C143.1 41.6 142.8 41.1 142.8 40.6C142.8 40.1 143.2 40 143.5 40.2Z" fill="#03ABAA"/>
<path id="XMLID_287_" opacity="0.6" d="M143.5 40.2L145.4 41.3C145.8 41.5 146.1 42 146.1 42.5C146.1 42.9 145.8 43.1 145.4 42.9L143.5 41.8C143.1 41.6 142.8 41.1 142.8 40.6C142.8 40.1 143.2 40 143.5 40.2Z" fill="white"/>
</g>
<g id="Group_7">
<path id="XMLID_286_" d="M143.5 20.9L145.4 22C145.8 22.2 146.1 22.7 146.1 23.2C146.1 23.6 145.8 23.8 145.4 23.6L143.5 22.5C143.1 22.3 142.8 21.8 142.8 21.3C142.8 20.8 143.2 20.7 143.5 20.9Z" fill="#03ABAA"/>
<path id="XMLID_285_" opacity="0.6" d="M143.5 20.9L145.4 22C145.8 22.2 146.1 22.7 146.1 23.2C146.1 23.6 145.8 23.8 145.4 23.6L143.5 22.5C143.1 22.3 142.8 21.8 142.8 21.3C142.8 20.8 143.2 20.7 143.5 20.9Z" fill="white"/>
</g>
<g id="Group_8">
<path id="Vector_18" d="M146.2 26.3L148.1 27.4C148.5 27.6 148.8 28.1 148.8 28.6C148.8 29 148.5 29.2 148.1 29L146.2 27.9C145.8 27.7 145.5 27.2 145.5 26.7C145.5 26.2 145.8 26.1 146.2 26.3Z" fill="#03ABAA"/>
<path id="Vector_19" opacity="0.6" d="M146.2 26.3L148.1 27.4C148.5 27.6 148.8 28.1 148.8 28.6C148.8 29 148.5 29.2 148.1 29L146.2 27.9C145.8 27.7 145.5 27.2 145.5 26.7C145.5 26.2 145.8 26.1 146.2 26.3Z" fill="white"/>
</g>
<g id="Group_9">
<path id="Vector_20" d="M146.2 30.1L148.1 31.2C148.5 31.4 148.8 31.9 148.8 32.4C148.8 32.8 148.5 33 148.1 32.8L146.2 31.7C145.8 31.5 145.5 31 145.5 30.5C145.5 30.1 145.8 29.9 146.2 30.1Z" fill="#03ABAA"/>
<path id="Vector_21" opacity="0.6" d="M146.2 30.1L148.1 31.2C148.5 31.4 148.8 31.9 148.8 32.4C148.8 32.8 148.5 33 148.1 32.8L146.2 31.7C145.8 31.5 145.5 31 145.5 30.5C145.5 30.1 145.8 29.9 146.2 30.1Z" fill="white"/>
</g>
<g id="Group_10">
<path id="Vector_22" d="M143.5 32.5L145.4 33.6C145.8 33.8 146.1 34.3 146.1 34.8C146.1 35.2 145.8 35.4 145.4 35.2L143.5 34.1C143.1 33.9 142.8 33.4 142.8 32.9C142.8 32.4 143.2 32.2 143.5 32.5Z" fill="#03ABAA"/>
<path id="Vector_23" opacity="0.6" d="M143.5 32.5L145.4 33.6C145.8 33.8 146.1 34.3 146.1 34.8C146.1 35.2 145.8 35.4 145.4 35.2L143.5 34.1C143.1 33.9 142.8 33.4 142.8 32.9C142.8 32.4 143.2 32.2 143.5 32.5Z" fill="white"/>
</g>
<g id="Group_11">
<path id="Vector_24" d="M146.2 37.8L148.1 38.9C148.5 39.1 148.8 39.6 148.8 40.1C148.8 40.6 148.5 40.7 148.1 40.5L146.2 39.4C145.8 39.2 145.5 38.7 145.5 38.2C145.5 37.8 145.8 37.6 146.2 37.8Z" fill="#03ABAA"/>
<path id="Vector_25" opacity="0.6" d="M146.2 37.8L148.1 38.9C148.5 39.1 148.8 39.6 148.8 40.1C148.8 40.6 148.5 40.7 148.1 40.5L146.2 39.4C145.8 39.2 145.5 38.7 145.5 38.2C145.5 37.8 145.8 37.6 146.2 37.8Z" fill="white"/>
</g>
</g>
<g id="Group_12">
<g id="Group_13">
<path id="XMLID_284_" d="M148.7 23.9L160.2 30.5C160.6 30.7 160.9 31.2 160.9 31.7C160.9 32.1 160.6 32.3 160.2 32.1L148.7 25.5C148.3 25.3 148 24.8 148 24.3C148 23.8 148.3 23.6 148.7 23.9Z" fill="#03ABAA"/>
<path id="XMLID_283_" opacity="0.8" d="M148.7 23.9L160.2 30.5C160.6 30.7 160.9 31.2 160.9 31.7C160.9 32.1 160.6 32.3 160.2 32.1L148.7 25.5C148.3 25.3 148 24.8 148 24.3C148 23.8 148.3 23.6 148.7 23.9Z" fill="white"/>
</g>
<g id="Group_14">
<path id="XMLID_282_" d="M148.7 43.2L160.2 49.8C160.6 50 160.9 50.5 160.9 51C160.9 51.5 160.6 51.6 160.2 51.4L148.7 44.8C148.3 44.6 148 44.1 148 43.6C148 43.1 148.3 42.9 148.7 43.2Z" fill="#03ABAA"/>
<path id="XMLID_281_" opacity="0.8" d="M148.7 43.2L160.2 49.8C160.6 50 160.9 50.5 160.9 51C160.9 51.5 160.6 51.6 160.2 51.4L148.7 44.8C148.3 44.6 148 44.1 148 43.6C148 43.1 148.3 42.9 148.7 43.2Z" fill="white"/>
</g>
<g id="Group_15">
<path id="Vector_26" d="M151.3 29.2L160.1 34.3C160.5 34.5 160.8 35 160.8 35.5C160.8 35.9 160.5 36.1 160.1 35.9L151.3 30.8C150.9 30.6 150.6 30.1 150.6 29.6C150.6 29.2 150.9 29 151.3 29.2Z" fill="#03ABAA"/>
<path id="Vector_27" opacity="0.8" d="M151.3 29.2L160.1 34.3C160.5 34.5 160.8 35 160.8 35.5C160.8 35.9 160.5 36.1 160.1 35.9L151.3 30.8C150.9 30.6 150.6 30.1 150.6 29.6C150.6 29.2 150.9 29 151.3 29.2Z" fill="white"/>
</g>
<g id="Group_16">
<path id="Vector_28" d="M151.3 33.1L160.1 38.2C160.5 38.4 160.8 38.9 160.8 39.4C160.8 39.8 160.5 40 160.1 39.8L151.3 34.7C150.9 34.5 150.6 34 150.6 33.5C150.6 33 150.9 32.9 151.3 33.1Z" fill="#03ABAA"/>
<path id="Vector_29" opacity="0.8" d="M151.3 33.1L160.1 38.2C160.5 38.4 160.8 38.9 160.8 39.4C160.8 39.8 160.5 40 160.1 39.8L151.3 34.7C150.9 34.5 150.6 34 150.6 33.5C150.6 33 150.9 32.9 151.3 33.1Z" fill="white"/>
</g>
<g id="Group_17">
<path id="Vector_30" d="M148.7 35.4L160.2 42C160.6 42.2 160.9 42.7 160.9 43.2C160.9 43.6 160.6 43.8 160.2 43.6L148.7 37C148.3 36.8 148 36.3 148 35.8C148 35.4 148.3 35.2 148.7 35.4Z" fill="#03ABAA"/>
<path id="Vector_31" opacity="0.8" d="M148.7 35.4L160.2 42C160.6 42.2 160.9 42.7 160.9 43.2C160.9 43.6 160.6 43.8 160.2 43.6L148.7 37C148.3 36.8 148 36.3 148 35.8C148 35.4 148.3 35.2 148.7 35.4Z" fill="white"/>
</g>
<g id="Group_18">
<path id="Vector_32" d="M151.3 40.8L160.1 45.9C160.5 46.1 160.8 46.6 160.8 47.1C160.8 47.5 160.5 47.7 160.1 47.5L151.3 42.4C150.9 42.2 150.6 41.7 150.6 41.2C150.6 40.8 150.9 40.6 151.3 40.8Z" fill="#03ABAA"/>
<path id="Vector_33" opacity="0.8" d="M151.3 40.8L160.1 45.9C160.5 46.1 160.8 46.6 160.8 47.1C160.8 47.5 160.5 47.7 160.1 47.5L151.3 42.4C150.9 42.2 150.6 41.7 150.6 41.2C150.6 40.8 150.9 40.6 151.3 40.8Z" fill="white"/>
</g>
</g>
</g>
<g id="Group_19">
<path id="Vector_34" d="M141.6 48L162 59.8C162.8 60.2 163.4 61.3 163.4 62.2V108.7C163.4 109.6 162.8 109.9 162 109.5L141.6 97.7C140.8 97.3 140.2 96.2 140.2 95.3V48.8C140.3 47.9 140.9 47.6 141.6 48Z" fill="#37474F"/>
<g id="Group_20">
<g id="Group_21">
<path id="XMLID_280_" d="M143.5 52L145.4 53.1C145.8 53.3 146.1 53.8 146.1 54.3C146.1 54.7 145.8 54.9 145.4 54.7L143.5 53.6C143.1 53.4 142.8 52.9 142.8 52.4C142.8 52 143.2 51.8 143.5 52Z" fill="#03ABAA"/>
<path id="XMLID_279_" opacity="0.6" d="M143.5 52L145.4 53.1C145.8 53.3 146.1 53.8 146.1 54.3C146.1 54.7 145.8 54.9 145.4 54.7L143.5 53.6C143.1 53.4 142.8 52.9 142.8 52.4C142.8 52 143.2 51.8 143.5 52Z" fill="white"/>
</g>
<g id="Group_22">
<path id="Vector_35" d="M146.2 57.4L148.1 58.5C148.5 58.7 148.8 59.2 148.8 59.7C148.8 60.1 148.5 60.3 148.1 60.1L146.2 59C145.8 58.8 145.5 58.3 145.5 57.8C145.5 57.4 145.8 57.2 146.2 57.4Z" fill="#03ABAA"/>
<path id="Vector_36" opacity="0.6" d="M146.2 57.4L148.1 58.5C148.5 58.7 148.8 59.2 148.8 59.7C148.8 60.1 148.5 60.3 148.1 60.1L146.2 59C145.8 58.8 145.5 58.3 145.5 57.8C145.5 57.4 145.8 57.2 146.2 57.4Z" fill="white"/>
</g>
<g id="Group_23">
<path id="Vector_37" d="M146.2 61.3L148.1 62.4C148.5 62.6 148.8 63.1 148.8 63.6C148.8 64.1 148.5 64.2 148.1 64L146.2 62.9C145.8 62.7 145.5 62.2 145.5 61.7C145.5 61.2 145.8 61 146.2 61.3Z" fill="#03ABAA"/>
<path id="Vector_38" opacity="0.6" d="M146.2 61.3L148.1 62.4C148.5 62.6 148.8 63.1 148.8 63.6C148.8 64.1 148.5 64.2 148.1 64L146.2 62.9C145.8 62.7 145.5 62.2 145.5 61.7C145.5 61.2 145.8 61 146.2 61.3Z" fill="white"/>
</g>
<g id="Group_24">
<path id="Vector_39" d="M143.5 63.6L145.4 64.7C145.8 64.9 146.1 65.4 146.1 65.9C146.1 66.3 145.8 66.5 145.4 66.3L143.5 65.2C143.1 65 142.8 64.5 142.8 64C142.8 63.6 143.2 63.4 143.5 63.6Z" fill="#03ABAA"/>
<path id="Vector_40" opacity="0.6" d="M143.5 63.6L145.4 64.7C145.8 64.9 146.1 65.4 146.1 65.9C146.1 66.3 145.8 66.5 145.4 66.3L143.5 65.2C143.1 65 142.8 64.5 142.8 64C142.8 63.6 143.2 63.4 143.5 63.6Z" fill="white"/>
</g>
</g>
<g id="Group_25">
<g id="Group_26">
<path id="XMLID_278_" d="M148.7 55L160.2 61.6C160.6 61.8 160.9 62.3 160.9 62.8C160.9 63.2 160.6 63.4 160.2 63.2L148.7 56.6C148.3 56.4 148 55.9 148 55.4C148 54.9 148.3 54.8 148.7 55Z" fill="#03ABAA"/>
<path id="XMLID_277_" opacity="0.8" d="M148.7 55L160.2 61.6C160.6 61.8 160.9 62.3 160.9 62.8C160.9 63.2 160.6 63.4 160.2 63.2L148.7 56.6C148.3 56.4 148 55.9 148 55.4C148 54.9 148.3 54.8 148.7 55Z" fill="white"/>
</g>
<g id="Group_27">
<path id="Vector_41" d="M151.3 60.4L160.1 65.5C160.5 65.7 160.8 66.2 160.8 66.7C160.8 67.1 160.5 67.3 160.1 67.1L151.3 62C150.9 61.8 150.6 61.3 150.6 60.8C150.6 60.3 150.9 60.2 151.3 60.4Z" fill="#03ABAA"/>
<path id="Vector_42" opacity="0.8" d="M151.3 60.4L160.1 65.5C160.5 65.7 160.8 66.2 160.8 66.7C160.8 67.1 160.5 67.3 160.1 67.1L151.3 62C150.9 61.8 150.6 61.3 150.6 60.8C150.6 60.3 150.9 60.2 151.3 60.4Z" fill="white"/>
</g>
<g id="Group_28">
<path id="Vector_43" d="M151.3 64.3L160.1 69.4C160.5 69.6 160.8 70.1 160.8 70.6C160.8 71 160.5 71.2 160.1 71L151.3 65.9C150.9 65.7 150.6 65.2 150.6 64.7C150.6 64.2 150.9 64 151.3 64.3Z" fill="#03ABAA"/>
<path id="Vector_44" opacity="0.8" d="M151.3 64.3L160.1 69.4C160.5 69.6 160.8 70.1 160.8 70.6C160.8 71 160.5 71.2 160.1 71L151.3 65.9C150.9 65.7 150.6 65.2 150.6 64.7C150.6 64.2 150.9 64 151.3 64.3Z" fill="white"/>
</g>
<g id="Group_29">
<path id="Vector_45" d="M148.7 66.6L160.2 73.2C160.6 73.4 160.9 73.9 160.9 74.4C160.9 74.8 160.6 75 160.2 74.8L148.7 68.2C148.3 68 148 67.5 148 67C148 66.5 148.3 66.4 148.7 66.6Z" fill="#03ABAA"/>
<path id="Vector_46" opacity="0.8" d="M148.7 66.6L160.2 73.2C160.6 73.4 160.9 73.9 160.9 74.4C160.9 74.8 160.6 75 160.2 74.8L148.7 68.2C148.3 68 148 67.5 148 67C148 66.5 148.3 66.4 148.7 66.6Z" fill="white"/>
</g>
<g id="Group_30">
<path id="Vector_47" d="M146.2 69L148.1 70.1C148.5 70.3 148.8 70.8 148.8 71.3C148.8 71.7 148.5 71.9 148.1 71.7L146.2 70.6C145.8 70.4 145.5 69.9 145.5 69.4C145.5 69 145.8 68.8 146.2 69Z" fill="#03ABAA"/>
<path id="Vector_48" opacity="0.6" d="M146.2 69L148.1 70.1C148.5 70.3 148.8 70.8 148.8 71.3C148.8 71.7 148.5 71.9 148.1 71.7L146.2 70.6C145.8 70.4 145.5 69.9 145.5 69.4C145.5 69 145.8 68.8 146.2 69Z" fill="white"/>
</g>
<g id="Group_31">
<path id="Vector_49" d="M146.2 72.9L148.1 74C148.5 74.2 148.8 74.7 148.8 75.2C148.8 75.6 148.5 75.8 148.1 75.6L146.2 74.5C145.8 74.3 145.5 73.8 145.5 73.3C145.5 72.8 145.8 72.6 146.2 72.9Z" fill="#03ABAA"/>
<path id="Vector_50" opacity="0.6" d="M146.2 72.9L148.1 74C148.5 74.2 148.8 74.7 148.8 75.2C148.8 75.6 148.5 75.8 148.1 75.6L146.2 74.5C145.8 74.3 145.5 73.8 145.5 73.3C145.5 72.8 145.8 72.6 146.2 72.9Z" fill="white"/>
</g>
<g id="Group_32">
<path id="Vector_51" d="M151.3 72L160.1 77.1C160.5 77.3 160.8 77.8 160.8 78.3C160.8 78.7 160.5 78.9 160.1 78.7L151.3 73.6C150.9 73.4 150.6 72.9 150.6 72.4C150.6 71.9 150.9 71.8 151.3 72Z" fill="#03ABAA"/>
<path id="Vector_52" opacity="0.8" d="M151.3 72L160.1 77.1C160.5 77.3 160.8 77.8 160.8 78.3C160.8 78.7 160.5 78.9 160.1 78.7L151.3 73.6C150.9 73.4 150.6 72.9 150.6 72.4C150.6 71.9 150.9 71.8 151.3 72Z" fill="white"/>
</g>
<g id="Group_33">
<path id="Vector_53" d="M151.3 75.8L160.1 80.9C160.5 81.1 160.8 81.6 160.8 82.1C160.8 82.6 160.5 82.7 160.1 82.5L151.3 77.4C150.9 77.2 150.6 76.7 150.6 76.2C150.6 75.8 150.9 75.6 151.3 75.8Z" fill="#03ABAA"/>
<path id="Vector_54" opacity="0.8" d="M151.3 75.8L160.1 80.9C160.5 81.1 160.8 81.6 160.8 82.1C160.8 82.6 160.5 82.7 160.1 82.5L151.3 77.4C150.9 77.2 150.6 76.7 150.6 76.2C150.6 75.8 150.9 75.6 151.3 75.8Z" fill="white"/>
</g>
<g id="Group_34">
<path id="Vector_55" d="M143.5 83L145.4 84.1C145.8 84.3 146.1 84.8 146.1 85.3C146.1 85.8 145.8 85.9 145.4 85.7L143.5 84.6C143.1 84.4 142.8 83.9 142.8 83.4C142.8 82.9 143.2 82.7 143.5 83Z" fill="#03ABAA"/>
<path id="Vector_56" opacity="0.6" d="M143.5 83L145.4 84.1C145.8 84.3 146.1 84.8 146.1 85.3C146.1 85.8 145.8 85.9 145.4 85.7L143.5 84.6C143.1 84.4 142.8 83.9 142.8 83.4C142.8 82.9 143.2 82.7 143.5 83Z" fill="white"/>
</g>
<g id="Group_35">
<path id="Vector_57" d="M148.7 85.9L160.2 92.5C160.6 92.7 160.9 93.2 160.9 93.7C160.9 94.1 160.6 94.3 160.2 94.1L148.7 87.5C148.3 87.3 148 86.8 148 86.3C148 85.8 148.3 85.7 148.7 85.9Z" fill="#03ABAA"/>
<path id="Vector_58" opacity="0.8" d="M148.7 85.9L160.2 92.5C160.6 92.7 160.9 93.2 160.9 93.7C160.9 94.1 160.6 94.3 160.2 94.1L148.7 87.5C148.3 87.3 148 86.8 148 86.3C148 85.8 148.3 85.7 148.7 85.9Z" fill="white"/>
</g>
<g id="Group_36">
<path id="Vector_59" d="M146.2 88.4L148.1 89.5C148.5 89.7 148.8 90.2 148.8 90.7C148.8 91.1 148.5 91.3 148.1 91.1L146.2 90C145.8 89.8 145.5 89.3 145.5 88.8C145.5 88.3 145.8 88.1 146.2 88.4Z" fill="#03ABAA"/>
<path id="Vector_60" opacity="0.6" d="M146.2 88.4L148.1 89.5C148.5 89.7 148.8 90.2 148.8 90.7C148.8 91.1 148.5 91.3 148.1 91.1L146.2 90C145.8 89.8 145.5 89.3 145.5 88.8C145.5 88.3 145.8 88.1 146.2 88.4Z" fill="white"/>
</g>
<g id="Group_37">
<path id="Vector_61" d="M146.2 92.2L148.1 93.3C148.5 93.5 148.8 94 148.8 94.5C148.8 94.9 148.5 95.1 148.1 94.9L146.2 93.8C145.8 93.6 145.5 93.1 145.5 92.6C145.5 92.1 145.8 92 146.2 92.2Z" fill="#03ABAA"/>
<path id="Vector_62" opacity="0.6" d="M146.2 92.2L148.1 93.3C148.5 93.5 148.8 94 148.8 94.5C148.8 94.9 148.5 95.1 148.1 94.9L146.2 93.8C145.8 93.6 145.5 93.1 145.5 92.6C145.5 92.1 145.8 92 146.2 92.2Z" fill="white"/>
</g>
<g id="Group_38">
<path id="Vector_63" d="M151.3 91.3L160.1 96.4C160.5 96.6 160.8 97.1 160.8 97.6C160.8 98 160.5 98.2 160.1 98L151.3 92.9C150.9 92.7 150.6 92.2 150.6 91.7C150.6 91.3 150.9 91.1 151.3 91.3Z" fill="#03ABAA"/>
<path id="Vector_64" opacity="0.8" d="M151.3 91.3L160.1 96.4C160.5 96.6 160.8 97.1 160.8 97.6C160.8 98 160.5 98.2 160.1 98L151.3 92.9C150.9 92.7 150.6 92.2 150.6 91.7C150.6 91.3 150.9 91.1 151.3 91.3Z" fill="white"/>
</g>
<g id="Group_39">
<path id="Vector_65" d="M151.3 95.2L160.1 100.3C160.5 100.5 160.8 101 160.8 101.5C160.8 102 160.5 102.1 160.1 101.9L151.3 96.8C150.9 96.6 150.6 96.1 150.6 95.6C150.6 95.1 150.9 95 151.3 95.2Z" fill="#03ABAA"/>
<path id="Vector_66" opacity="0.8" d="M151.3 95.2L160.1 100.3C160.5 100.5 160.8 101 160.8 101.5C160.8 102 160.5 102.1 160.1 101.9L151.3 96.8C150.9 96.6 150.6 96.1 150.6 95.6C150.6 95.1 150.9 95 151.3 95.2Z" fill="white"/>
</g>
<g id="Group_40">
<path id="Vector_67" d="M146.2 76.7L148.1 77.8C148.5 78 148.8 78.5 148.8 79C148.8 79.4 148.5 79.6 148.1 79.4L146.2 78.3C145.8 78.1 145.5 77.6 145.5 77.1C145.5 76.6 145.8 76.5 146.2 76.7Z" fill="#03ABAA"/>
<path id="Vector_68" opacity="0.6" d="M146.2 76.7L148.1 77.8C148.5 78 148.8 78.5 148.8 79C148.8 79.4 148.5 79.6 148.1 79.4L146.2 78.3C145.8 78.1 145.5 77.6 145.5 77.1C145.5 76.6 145.8 76.5 146.2 76.7Z" fill="white"/>
</g>
<g id="Group_41">
<path id="Vector_69" d="M143.5 79L145.4 80.1C145.8 80.3 146.1 80.8 146.1 81.3C146.1 81.8 145.8 81.9 145.4 81.7L143.5 80.6C143.1 80.4 142.8 79.9 142.8 79.4C142.8 79 143.2 78.8 143.5 79Z" fill="#03ABAA"/>
<path id="Vector_70" opacity="0.6" d="M143.5 79L145.4 80.1C145.8 80.3 146.1 80.8 146.1 81.3C146.1 81.8 145.8 81.9 145.4 81.7L143.5 80.6C143.1 80.4 142.8 79.9 142.8 79.4C142.8 79 143.2 78.8 143.5 79Z" fill="white"/>
</g>
<g id="Group_42">
<path id="Vector_71" d="M151.3 79.7L160.1 84.8C160.5 85 160.8 85.5 160.8 86C160.8 86.4 160.5 86.6 160.1 86.4L151.3 81.3C150.9 81.1 150.6 80.6 150.6 80.1C150.6 79.6 150.9 79.5 151.3 79.7Z" fill="#03ABAA"/>
<path id="Vector_72" opacity="0.8" d="M151.3 79.7L160.1 84.8C160.5 85 160.8 85.5 160.8 86C160.8 86.4 160.5 86.6 160.1 86.4L151.3 81.3C150.9 81.1 150.6 80.6 150.6 80.1C150.6 79.6 150.9 79.5 151.3 79.7Z" fill="white"/>
</g>
<g id="Group_43">
<path id="Vector_73" d="M148.7 82L160.2 88.6C160.6 88.8 160.9 89.3 160.9 89.8C160.9 90.3 160.6 90.4 160.2 90.2L148.7 83.6C148.3 83.4 148 82.9 148 82.4C148 82 148.3 81.8 148.7 82Z" fill="#03ABAA"/>
<path id="Vector_74" opacity="0.8" d="M148.7 82L160.2 88.6C160.6 88.8 160.9 89.3 160.9 89.8C160.9 90.3 160.6 90.4 160.2 90.2L148.7 83.6C148.3 83.4 148 82.9 148 82.4C148 82 148.3 81.8 148.7 82Z" fill="white"/>
</g>
<g id="Group_44">
<path id="Vector_75" d="M143.5 94.6L145.4 95.7C145.8 95.9 146.1 96.4 146.1 96.9C146.1 97.3 145.8 97.5 145.4 97.3L143.5 96.2C143.1 96 142.8 95.5 142.8 95C142.8 94.5 143.2 94.4 143.5 94.6Z" fill="#03ABAA"/>
<path id="Vector_76" opacity="0.6" d="M143.5 94.6L145.4 95.7C145.8 95.9 146.1 96.4 146.1 96.9C146.1 97.3 145.8 97.5 145.4 97.3L143.5 96.2C143.1 96 142.8 95.5 142.8 95C142.8 94.5 143.2 94.4 143.5 94.6Z" fill="white"/>
</g>
<g id="Group_45">
<path id="Vector_77" d="M148.7 97.6L160.2 104.2C160.6 104.4 160.9 104.9 160.9 105.4C160.9 105.8 160.6 106 160.2 105.8L148.7 99.2C148.3 99 148 98.5 148 98C148 97.5 148.3 97.4 148.7 97.6Z" fill="#03ABAA"/>
<path id="Vector_78" opacity="0.8" d="M148.7 97.6L160.2 104.2C160.6 104.4 160.9 104.9 160.9 105.4C160.9 105.8 160.6 106 160.2 105.8L148.7 99.2C148.3 99 148 98.5 148 98C148 97.5 148.3 97.4 148.7 97.6Z" fill="white"/>
</g>
</g>
</g>
</g>
</g>
<g id="Window_2_">
<g id="XMLID_265_">
<g id="XMLID_276_" opacity="0.8">
<path id="Vector_79" d="M255.2 113.4V189.8C255.2 190.8 255.9 192 256.8 192.5L300.7 217.8C300.9 217.9 301.1 218 301.2 218C301.3 218 301.3 218 301.4 218H301.5H301.6C301.6 218 301.7 218 301.7 217.9C301.7 217.9 301.8 217.9 301.8 217.8C301.9 217.7 302 217.5 302.1 217.4C302.2 217.2 302.3 216.9 302.3 216.6V140.6C302.3 139.6 301.6 138.4 300.7 137.9L256.8 112.6C256.4 112.4 256 112.3 255.7 112.5C255.7 112.5 255.6 112.5 255.6 112.6L255.5 112.7C255.5 112.7 255.5 112.7 255.5 112.8C255.5 112.8 255.5 112.9 255.4 112.9C255.4 113 255.3 113 255.3 113.1V113.2V113.3C255.2 113.3 255.2 113.4 255.2 113.4Z" fill="#455A64"/>
</g>
<g id="XMLID_271_">
<g id="XMLID_275_">
<path id="Vector_80" d="M255.7 112.4C256 112.3 256.4 112.3 256.8 112.5L300.7 137.8C301.6 138.3 302.3 139.5 302.3 140.5V145.7L304.8 144.2V139.1C304.8 138.1 304.1 136.9 303.2 136.4L259.3 111.1C258.8 110.8 258.4 110.8 258.1 111C257.8 111.2 256 112.2 255.7 112.4Z" fill="#03ABAA"/>
</g>
<path id="XMLID_274_" d="M255.2 113.4C255.2 112.4 255.9 112 256.8 112.5L300.7 137.8C301.6 138.3 302.3 139.5 302.3 140.5V145.7L255.3 118.6V113.4H255.2Z" fill="#03ABAA"/>
<g id="XMLID_273_" opacity="0.5">
<path id="Vector_81" d="M256.7 112.5L300.6 137.8C301 138.1 301.4 138.5 301.7 139L304.2 137.6C303.9 137.1 303.5 136.7 303.1 136.4L259.2 111.1C258.7 110.8 258.3 110.8 258 111C257.7 111.2 255.9 112.2 255.6 112.4C256 112.2 256.3 112.3 256.7 112.5Z" fill="white"/>
</g>
<path id="XMLID_272_" opacity="0.15" d="M304.7 144.3V139.1C304.7 138.6 304.5 138 304.2 137.5L301.7 138.9C302 139.4 302.2 140 302.2 140.5V145.7L304.7 144.3Z" fill="black"/>
</g>
<g id="XMLID_267_">
<path id="XMLID_270_" d="M299.9 139.9C300.4 140.2 300.8 141 300.8 141.8C300.8 142.6 300.4 142.9 299.9 142.7C299.4 142.4 299 141.6 299 140.8C299 140 299.4 139.6 299.9 139.9Z" fill="#455A64"/>
<path id="XMLID_269_" d="M296.7 138.1C297.2 138.4 297.6 139.2 297.6 140C297.6 140.8 297.2 141.1 296.7 140.9C296.2 140.7 295.8 139.8 295.8 139C295.8 138.2 296.2 137.8 296.7 138.1Z" fill="#455A64"/>
<path id="XMLID_268_" d="M293.4 136.2C293.9 136.5 294.3 137.3 294.3 138.1C294.3 138.9 293.9 139.2 293.4 139C292.9 138.7 292.5 137.9 292.5 137.1C292.5 136.3 292.9 135.9 293.4 136.2Z" fill="#455A64"/>
</g>
<g id="XMLID_266_" opacity="0.9">
<path id="Vector_82" d="M301.6 217.9C301.7 217.9 301.7 217.8 301.8 217.8C301.9 217.7 302.1 217.6 302.3 217.5C302.4 217.4 302.5 217.4 302.6 217.3C302.7 217.2 302.9 217.1 303 217.1C303.1 217 303.8 216.7 303.9 216.6C304 216.5 304.1 216.5 304.1 216.5C304.2 216.4 304.3 216.4 304.4 216.3C304.5 216.2 304.6 216.1 304.6 216C304.7 215.8 304.8 215.5 304.8 215.2V144.4L302.3 145.9V216.7C302.3 217 302.2 217.3 302.1 217.5C302 217.7 301.9 217.8 301.8 217.9C301.7 217.8 301.7 217.8 301.6 217.9C301.6 217.9 301.6 217.8 301.6 217.9Z" fill="#37474F"/>
</g>
</g>
<g id="XMLID_206_">
<g id="XMLID_252_">
<path id="XMLID_263_" d="M258.8 127.4C258.8 127.3 258.8 127.2 258.9 127.2L260 126.2C260 126.2 260 126.2 260.1 126.2L260.2 126.3C260.2 126.4 260.2 126.4 260.2 126.5V127.3C260.2 127.4 260.2 127.5 260.2 127.5C260.2 127.5 260.2 127.6 260.1 127.6L259.5 128.2L260.1 129.4C260.1 129.5 260.2 129.6 260.2 129.6C260.2 129.7 260.2 129.7 260.2 129.8V130.6C260.2 130.7 260.2 130.7 260.2 130.7H260.1C260.1 130.7 260.1 130.7 260 130.6L258.9 128.2C258.8 128.1 258.8 128 258.8 127.9V127.4Z" fill="#03ABAA"/>
<path id="XMLID_261_" d="M263 126.3C263 126.2 263 126.2 263.1 126.2C263.1 126.2 263.2 126.2 263.3 126.2L263.7 126.4L263.8 126.5C263.8 126.6 263.8 126.6 263.8 126.7C263.8 126.7 263.8 126.7 263.8 126.8L261.8 132.9C261.8 133 261.8 133 261.7 133C261.7 133 261.6 133 261.5 133L261.1 132.8L261 132.7C261 132.6 261 132.6 261 132.5C261 132.5 261 132.5 261 132.4L263 126.3Z" fill="#03ABAA"/>
<path id="XMLID_259_" d="M266 132.1C266 132.2 266 132.3 265.9 132.3L264.8 133.3C264.8 133.3 264.8 133.3 264.7 133.3L264.6 133.2C264.6 133.1 264.6 133.1 264.6 133V132.2C264.6 132.1 264.6 132 264.6 132C264.6 132 264.6 131.9 264.7 131.9L265.3 131.3L264.7 130.1C264.7 130 264.6 129.9 264.6 129.9C264.6 129.8 264.6 129.8 264.6 129.7V128.9C264.6 128.8 264.6 128.8 264.6 128.8H264.7C264.7 128.8 264.7 128.8 264.8 128.9L265.9 131.3C266 131.4 266 131.5 266 131.6V132.1Z" fill="#03ABAA"/>
<path id="XMLID_257_" d="M269.2 135.2L269.3 135.3C269.3 135.4 269.3 135.4 269.3 135.5V136.4C269.3 136.5 269.3 136.5 269.3 136.5H269.2L268.7 136.2L268.6 136.1C268.6 136 268.6 136 268.6 135.9V135C268.6 134.9 268.6 134.9 268.6 134.9H268.7L269.2 135.2Z" fill="#03ABAA"/>
<path id="XMLID_255_" d="M271 136.3L271.1 136.4C271.1 136.5 271.1 136.5 271.1 136.6V137.5C271.1 137.6 271.1 137.6 271.1 137.6H271L270.5 137.3L270.4 137.2C270.4 137.1 270.4 137.1 270.4 137V136.1C270.4 136 270.4 136 270.4 136H270.5L271 136.3Z" fill="#03ABAA"/>
<path id="XMLID_253_" d="M272.8 137.3L272.9 137.4C272.9 137.5 272.9 137.5 272.9 137.6V138.5C272.9 138.6 272.9 138.6 272.9 138.6H272.8L272.3 138.3L272.2 138.2C272.2 138.1 272.2 138.1 272.2 138V137.1C272.2 137 272.2 137 272.2 137H272.3L272.8 137.3Z" fill="#03ABAA"/>
</g>
<path id="XMLID_251_" d="M259.3 134.3L285.7 149.5C286 149.7 286.3 150.1 286.3 150.4C286.3 150.7 286 150.9 285.7 150.7L259.3 135.5C259 135.3 258.7 134.9 258.7 134.6C258.7 134.2 259 134.1 259.3 134.3Z" fill="#03ABAA"/>
<path id="XMLID_250_" d="M267.7 153.8L294.1 169C294.4 169.2 294.7 169.6 294.7 169.9C294.7 170.2 294.4 170.4 294.1 170.2L267.7 155C267.4 154.8 267.1 154.4 267.1 154.1C267.2 153.8 267.4 153.7 267.7 153.8Z" fill="#E6E6E6"/>
<path id="XMLID_249_" d="M267.7 163.6L280.3 170.9C280.6 171.1 280.9 171.5 280.9 171.8C280.9 172.1 280.6 172.3 280.3 172.1L267.7 164.8C267.4 164.6 267.1 164.2 267.1 163.9C267.2 163.5 267.4 163.4 267.7 163.6Z" fill="#E6E6E6"/>
<path id="XMLID_248_" d="M287.8 150.8L298.3 156.8C298.6 157 298.9 157.4 298.9 157.7C298.9 158 298.6 158.2 298.3 158L287.8 152C287.5 151.8 287.2 151.4 287.2 151.1C287.2 150.8 287.5 150.6 287.8 150.8Z" fill="#03ABAA"/>
<path id="XMLID_247_" d="M259.3 188L285.7 203.2C286 203.4 286.3 203.8 286.3 204.1C286.3 204.4 286 204.6 285.7 204.4L259.3 189.2C259 189 258.7 188.6 258.7 188.3C258.7 188 259 187.8 259.3 188Z" fill="#03ABAA"/>
<path id="XMLID_246_" d="M287.8 204.5L298.3 210.5C298.6 210.7 298.9 211.1 298.9 211.4C298.9 211.7 298.6 211.9 298.3 211.7L287.8 205.7C287.5 205.5 287.2 205.1 287.2 204.8C287.3 204.4 287.5 204.3 287.8 204.5Z" fill="#03ABAA"/>
<path id="XMLID_245_" d="M287.8 189.9L298.3 195.9C298.6 196.1 298.9 196.5 298.9 196.8C298.9 197.1 298.6 197.3 298.3 197.1L287.8 191.1C287.5 190.9 287.2 190.5 287.2 190.2C287.3 189.8 287.5 189.7 287.8 189.9Z" fill="#03ABAA"/>
<path id="XMLID_244_" d="M287.8 194.8L298.3 200.8C298.6 201 298.9 201.4 298.9 201.7C298.9 202 298.6 202.2 298.3 202L287.8 196C287.5 195.8 287.2 195.4 287.2 195.1C287.3 194.7 287.5 194.6 287.8 194.8Z" fill="#03ABAA"/>
<path id="XMLID_243_" d="M278.9 184.7L284.8 188.1C285.1 188.3 285.4 188.7 285.4 189C285.4 189.3 285.1 189.5 284.8 189.3L278.9 185.9C278.6 185.7 278.3 185.3 278.3 185C278.3 184.6 278.6 184.5 278.9 184.7Z" fill="#03ABAA"/>
<g id="XMLID_240_">
<path id="XMLID_242_" d="M259.3 139.2L274.7 148.1C275 148.3 275.3 148.7 275.3 149C275.3 149.3 275 149.5 274.7 149.3L259.3 140.4C259 140.2 258.7 139.8 258.7 139.5C258.7 139.1 259 139 259.3 139.2Z" fill="#03ABAA"/>
<path id="XMLID_241_" opacity="0.6" d="M259.3 139.2L274.7 148.1C275 148.3 275.3 148.7 275.3 149C275.3 149.3 275 149.5 274.7 149.3L259.3 140.4C259 140.2 258.7 139.8 258.7 139.5C258.7 139.1 259 139 259.3 139.2Z" fill="white"/>
</g>
<g id="XMLID_237_">
<path id="XMLID_239_" d="M259.3 144.1L264.5 147.1C264.8 147.3 265.1 147.7 265.1 148C265.1 148.3 264.8 148.5 264.5 148.3L259.3 145.3C259 145.1 258.7 144.7 258.7 144.4C258.7 144 259 143.9 259.3 144.1Z" fill="#03ABAA"/>
<path id="XMLID_238_" opacity="0.6" d="M259.3 144.1L264.5 147.1C264.8 147.3 265.1 147.7 265.1 148C265.1 148.3 264.8 148.5 264.5 148.3L259.3 145.3C259 145.1 258.7 144.7 258.7 144.4C258.7 144 259 143.9 259.3 144.1Z" fill="white"/>
</g>
<g id="XMLID_234_">
<path id="XMLID_236_" d="M259.3 148.9L264.5 151.9C264.8 152.1 265.1 152.5 265.1 152.8C265.1 153.1 264.8 153.3 264.5 153.1L259.3 150.1C259 149.9 258.7 149.5 258.7 149.2C258.7 148.9 259 148.8 259.3 148.9Z" fill="#03ABAA"/>
<path id="XMLID_235_" opacity="0.6" d="M259.3 148.9L264.5 151.9C264.8 152.1 265.1 152.5 265.1 152.8C265.1 153.1 264.8 153.3 264.5 153.1L259.3 150.1C259 149.9 258.7 149.5 258.7 149.2C258.7 148.9 259 148.8 259.3 148.9Z" fill="white"/>
</g>
<g id="XMLID_232_">
<path id="XMLID_233_" d="M259.3 153.8L264.5 156.8C264.8 157 265.1 157.4 265.1 157.7C265.1 158 264.8 158.2 264.5 158L259.3 155C259 154.8 258.7 154.4 258.7 154.1C258.7 153.8 259 153.7 259.3 153.8Z" fill="#03ABAA"/>
</g>
<path id="XMLID_231_" opacity="0.6" d="M259.3 153.8L264.5 156.8C264.8 157 265.1 157.4 265.1 157.7C265.1 158 264.8 158.2 264.5 158L259.3 155C259 154.8 258.7 154.4 258.7 154.1C258.7 153.8 259 153.7 259.3 153.8Z" fill="white"/>
<path id="XMLID_230_" opacity="0.6" d="M267.7 158.7L283.1 167.6C283.4 167.8 283.7 168.2 283.7 168.5C283.7 168.8 283.4 169 283.1 168.8L267.7 159.9C267.4 159.7 267.1 159.3 267.1 159C267.2 158.7 267.4 158.5 267.7 158.7Z" fill="#03ABAA"/>
<path id="XMLID_229_" opacity="0.6" d="M285.3 168.8L292 172.7C292.3 172.9 292.6 173.3 292.6 173.6C292.6 173.9 292.3 174.1 292 173.9L285.3 170C285 169.8 284.7 169.4 284.7 169.1C284.7 168.8 285 168.7 285.3 168.8Z" fill="#03ABAA"/>
<path id="XMLID_228_" opacity="0.6" d="M267.7 158.7L283.1 167.6C283.4 167.8 283.7 168.2 283.7 168.5C283.7 168.8 283.4 169 283.1 168.8L267.7 159.9C267.4 159.7 267.1 159.3 267.1 159C267.2 158.7 267.4 158.5 267.7 158.7Z" fill="white"/>
<path id="XMLID_227_" opacity="0.6" d="M285.3 168.8L292 172.7C292.3 172.9 292.6 173.3 292.6 173.6C292.6 173.9 292.3 174.1 292 173.9L285.3 170C285 169.8 284.7 169.4 284.7 169.1C284.7 168.8 285 168.7 285.3 168.8Z" fill="white"/>
<g id="XMLID_224_">
<path id="XMLID_226_" d="M259.3 158.7L264.5 161.7C264.8 161.9 265.1 162.3 265.1 162.6C265.1 162.9 264.8 163.1 264.5 162.9L259.3 159.9C259 159.7 258.7 159.3 258.7 159C258.7 158.7 259 158.5 259.3 158.7Z" fill="#03ABAA"/>
<path id="XMLID_225_" opacity="0.6" d="M259.3 158.7L264.5 161.7C264.8 161.9 265.1 162.3 265.1 162.6C265.1 162.9 264.8 163.1 264.5 162.9L259.3 159.9C259 159.7 258.7 159.3 258.7 159C258.7 158.7 259 158.5 259.3 158.7Z" fill="white"/>
</g>
<g id="XMLID_221_">
<path id="XMLID_223_" d="M276.8 149.3L283.5 153.2C283.8 153.4 284.1 153.8 284.1 154.1C284.1 154.4 283.8 154.6 283.5 154.4L276.8 150.5C276.5 150.3 276.2 149.9 276.2 149.6C276.3 149.3 276.5 149.1 276.8 149.3Z" fill="#03ABAA"/>
<path id="XMLID_222_" opacity="0.6" d="M276.8 149.3L283.5 153.2C283.8 153.4 284.1 153.8 284.1 154.1C284.1 154.4 283.8 154.6 283.5 154.4L276.8 150.5C276.5 150.3 276.2 149.9 276.2 149.6C276.3 149.3 276.5 149.1 276.8 149.3Z" fill="white"/>
</g>
<g id="XMLID_219_">
<path id="XMLID_220_" d="M274.1 172.1L289.5 181C289.8 181.2 290.1 181.6 290.1 181.9C290.1 182.2 289.8 182.4 289.5 182.2L274.1 173.3C273.8 173.1 273.5 172.7 273.5 172.4C273.5 172.1 273.8 172 274.1 172.1Z" fill="white"/>
</g>
<g id="XMLID_217_">
<path id="XMLID_218_" d="M283 182.2L298.4 191.1C298.7 191.3 299 191.7 299 192C299 192.3 298.7 192.5 298.4 192.3L283 183.4C282.7 183.2 282.4 182.8 282.4 182.5C282.4 182.1 282.6 182 283 182.2Z" fill="white"/>
</g>
<g id="XMLID_215_">
<path id="XMLID_216_" d="M291.6 182.3L298.3 186.2C298.6 186.4 298.9 186.8 298.9 187.1C298.9 187.4 298.6 187.6 298.3 187.4L291.6 183.5C291.3 183.3 291 182.9 291 182.6C291.1 182.2 291.3 182.1 291.6 182.3Z" fill="white"/>
</g>
<g id="XMLID_213_">
<path id="XMLID_214_" d="M291.6 201.6L298.3 205.5C298.6 205.7 298.9 206.1 298.9 206.4C298.9 206.7 298.6 206.9 298.3 206.7L291.6 202.8C291.3 202.6 291 202.2 291 201.9C291.1 201.6 291.3 201.4 291.6 201.6Z" fill="#E6E6E6"/>
</g>
<g id="XMLID_210_">
<path id="XMLID_212_" d="M267.7 148.9L283.1 157.8C283.4 158 283.7 158.4 283.7 158.7C283.7 159 283.4 159.2 283.1 159L267.7 150.1C267.4 149.9 267.1 149.5 267.1 149.2C267.2 148.9 267.4 148.8 267.7 148.9Z" fill="#03ABAA"/>
<path id="XMLID_211_" opacity="0.6" d="M267.7 148.9L283.1 157.8C283.4 158 283.7 158.4 283.7 158.7C283.7 159 283.4 159.2 283.1 159L267.7 150.1C267.4 149.9 267.1 149.5 267.1 149.2C267.2 148.9 267.4 148.8 267.7 148.9Z" fill="white"/>
</g>
<g id="XMLID_207_">
<path id="XMLID_209_" d="M285.3 159.1L292 163C292.3 163.2 292.6 163.6 292.6 163.9C292.6 164.2 292.3 164.4 292 164.2L285.3 160.3C285 160.1 284.7 159.7 284.7 159.4C284.7 159 285 158.9 285.3 159.1Z" fill="#03ABAA"/>
<path id="XMLID_208_" opacity="0.6" d="M285.3 159.1L292 163C292.3 163.2 292.6 163.6 292.6 163.9C292.6 164.2 292.3 164.4 292 164.2L285.3 160.3C285 160.1 284.7 159.7 284.7 159.4C284.7 159 285 158.9 285.3 159.1Z" fill="white"/>
</g>
</g>
</g>
<g id="Mouse_1_">
<path id="Vector_83" opacity="0.15" d="M180.5 215L189.9 220.4C192.9 222.1 197.5 221.9 200.3 219.9L215.8 208.5C218.6 206.5 218.4 203.5 215.4 201.7L210.7 199C207.7 197.3 202.8 197.1 199.8 198.7L180.6 209.1C177.6 210.7 177.5 213.3 180.5 215Z" fill="black"/>
<path id="Vector_84" d="M216.1 203.6L205.3 212L197.4 218.2C196.6 218.6 195.7 218.8 194.9 218.8C193.6 218.9 192.2 218.6 191.1 218L182.7 213.1C179.7 211.4 179 207.4 181 204.6C181.1 204.5 181.2 204.4 181.2 204.3C182.8 202.1 185.2 200.6 188 200L192.3 199.1C199.2 197.7 204.9 197 205.6 197.5L216.1 203.6Z" fill="#37474F"/>
<path id="Vector_85" d="M210.1 208.3L210.7 207.8L201.2 202.3L209.5 199.7C209.2 199.5 208.9 199.4 208.7 199.2L200.4 201.8L194.7 198.5C194.3 198.6 194 198.6 193.6 198.7L210.1 208.3Z" fill="#03ABAA"/>
<path id="Vector_86" d="M198.3 217.8C198.4 217.7 198.4 217.7 198.3 217.8C198.4 217.7 198.4 217.7 198.3 217.8L205.9 212.3L216.1 204.9V203.7V203.6C216.1 203.6 216.1 203.6 216 203.6C215.2 203.3 210.8 204.7 205.5 206.8L202 208.2C200.9 208.6 199.9 209.2 199 210C196.5 212.1 194.9 215.3 194.9 218.7V218.9C195.8 218.9 196.7 218.7 197.4 218.3L198.3 217.8Z" fill="#263238"/>
</g>
</g>
</svg>
