<svg width="449" height="462" viewBox="0 0 449 462" fill="none" xmlns="http://www.w3.org/2000/svg">
<g id="Group 5">
<g id="Frame" clip-path="url(#clip0_27_1761)">
<path id="Floor_1_" d="M382.8 249.7C470.4 298.2 470.4 376.8 382.8 425.3C295.2 473.8 153.3 473.8 65.7 425.3C-21.9 376.8 -21.9 298.2 65.7 249.7C153.2 201.2 295.2 201.2 382.8 249.7Z" fill="#F5F5F5"/>
<path id="Shadow_7_" d="M426.1 318.3L301.1 390.5C300.2 391 298.7 391 297.7 390.5L117.5 286.4C116.6 285.9 116.6 285 117.5 284.5L242.5 212.3C243.4 211.8 244.9 211.8 245.9 212.3L426.1 316.4C427 316.9 427 317.7 426.1 318.3Z" fill="#E6E6E6"/>
<path id="Shadow_6_" d="M188.7 418.2C218 401.3 218 373.8 188.7 356.9C159.4 340 111.8 340 82.5 356.9C53.2 373.8 53.2 401.3 82.5 418.2C111.8 435.1 159.4 435.1 188.7 418.2Z" fill="#E6E6E6"/>
<path id="Shadow_4_" d="M268.8 361.4C291.9 348.1 291.9 326.5 268.8 313.1C245.7 299.8 208.3 299.8 185.2 313.1C162.1 326.4 162.1 348 185.2 361.4C208.3 374.7 245.7 374.7 268.8 361.4Z" fill="#E6E6E6"/>
<path id="Shadow_3_" d="M384.7 398.1C399.2 389.7 399.2 376.2 384.7 367.8C370.2 359.4 346.7 359.4 332.2 367.8C317.7 376.2 317.7 389.7 332.2 398.1C346.7 406.5 370.2 406.5 384.7 398.1Z" fill="#E6E6E6"/>
<g id="Desk_2_">
<g id="Table_1_">
<g id="XMLID_496_">
<path id="XMLID_498_" d="M303.8 261.5V372.4C303.8 373.1 303.3 374 302.7 374.3L300.3 375.7C299.7 376.1 298.7 376.1 298.1 375.7L295.7 374.3C295.1 373.9 294.6 373.1 294.6 372.4V261.5C294.6 260.8 295.1 260.5 295.7 260.9L298.1 262.3C298.7 262.7 299.7 262.7 300.3 262.3L302.7 260.9C303.3 260.5 303.8 260.8 303.8 261.5Z" fill="#37474F"/>
<path id="XMLID_497_" d="M298 375.7L295.6 374.3C295 373.9 294.5 373.1 294.5 372.4V261.5C294.5 260.8 295 260.5 295.6 260.9L298 262.3C298.6 262.7 299.1 263.5 299.1 264.2V375.1C299.2 375.8 298.7 376.1 298 375.7Z" fill="#455A64"/>
</g>
<g id="XMLID_493_">
<path id="XMLID_495_" d="M405.3 202.8V313.7C405.3 314.4 404.8 315.3 404.2 315.6L401.8 317C401.2 317.4 400.2 317.4 399.6 317L397.2 315.6C396.6 315.2 396.1 314.4 396.1 313.7V202.8C396.1 202.1 396.6 201.8 397.2 202.2L399.6 203.6C400.2 204 401.2 204 401.8 203.6L404.2 202.2C404.8 201.8 405.3 202.1 405.3 202.8Z" fill="#37474F"/>
<path id="XMLID_494_" d="M399.6 317.1L397.2 315.7C396.6 315.3 396.1 314.5 396.1 313.8V202.8C396.1 202.1 396.6 201.8 397.2 202.2L399.6 203.6C400.2 204 400.7 204.8 400.7 205.5V316.4C400.7 317.2 400.2 317.5 399.6 317.1Z" fill="#455A64"/>
</g>
<g id="XMLID_490_">
<path id="XMLID_492_" d="M167.1 182.6V293.5C167.1 294.2 166.6 295.1 166 295.4L163.6 296.8C163 297.2 162 297.2 161.4 296.8L159 295.4C158.4 295 157.9 294.2 157.9 293.5V182.6C157.9 181.9 158.4 181.6 159 182L161.4 183.4C162 183.8 163 183.8 163.6 183.4L166 182C166.6 181.6 167.1 181.9 167.1 182.6Z" fill="#37474F"/>
<path id="XMLID_491_" d="M161.3 296.9L158.9 295.5C158.3 295.1 157.8 294.3 157.8 293.6V182.6C157.8 181.9 158.3 181.6 158.9 182L161.3 183.4C161.9 183.8 162.4 184.6 162.4 185.3V296.2C162.5 296.9 162 297.2 161.3 296.9Z" fill="#455A64"/>
</g>
<g id="XMLID_481_">
<g id="XMLID_487_">
<path id="XMLID_489_" d="M427.4 210.7V209.9C427.4 208.6 426.5 207 425.4 206.4L246.4 103.1C245.3 102.5 243.5 102.5 242.3 103.1L132.2 166.7C131.1 167.3 130.2 168.9 130.2 170.2V171C130.2 172.3 131.1 173.9 132.2 174.5L311.2 277.8C312.3 278.4 314.2 278.4 315.3 277.8L425.4 214.2C426.5 213.6 427.4 212 427.4 210.7Z" fill="#03ABAA"/>
<path id="XMLID_488_" opacity="0.6" d="M427.4 210.7V209.9C427.4 208.6 426.5 207 425.4 206.4L246.4 103.1C245.3 102.5 243.5 102.5 242.3 103.1L132.2 166.7C131.1 167.3 130.2 168.9 130.2 170.2V171C130.2 172.3 131.1 173.9 132.2 174.5L311.2 277.8C312.3 278.4 314.2 278.4 315.3 277.8L425.4 214.2C426.5 213.6 427.4 212 427.4 210.7Z" fill="black"/>
</g>
<g id="XMLID_484_">
<path id="XMLID_486_" d="M313.2 272.8V278.3C313.9 278.3 314.7 278.1 315.2 277.8L425.3 214.2C426.4 213.5 427.3 212 427.3 210.7V209.9C427.3 208.8 426.6 207.4 425.6 206.6C426.3 207.2 426.2 208.1 425.2 208.7L315.1 272.3C314.7 272.7 313.9 272.8 313.2 272.8Z" fill="#03ABAA"/>
<path id="XMLID_485_" opacity="0.5" d="M313.2 272.8V278.3C313.9 278.3 314.7 278.1 315.2 277.8L425.3 214.2C426.4 213.5 427.3 212 427.3 210.7V209.9C427.3 208.8 426.6 207.4 425.6 206.6C426.3 207.2 426.2 208.1 425.2 208.7L315.1 272.3C314.7 272.7 313.9 272.8 313.2 272.8Z" fill="black"/>
</g>
<g id="Group">
<path id="XMLID_483_" d="M425.3 208.7L315.2 272.3C314.1 272.9 312.3 272.9 311.1 272.3L132.1 169C131 168.4 131 167.3 132.1 166.6L242.2 103C243.3 102.4 245.2 102.4 246.3 103L425.3 206.3C426.5 207 426.5 208.1 425.3 208.7Z" fill="#03ABAA"/>
<path id="XMLID_482_" opacity="0.4" d="M425.3 208.7L315.2 272.3C314.1 272.9 312.3 272.9 311.1 272.3L132.1 169C131 168.4 131 167.3 132.1 166.6L242.2 103C243.3 102.4 245.2 102.4 246.3 103L425.3 206.3C426.5 207 426.5 208.1 425.3 208.7Z" fill="black"/>
</g>
</g>
</g>
<g id="Keyboard_2_">
<path id="Shadow_2_" opacity="0.15" d="M299.7 207.4L273.6 222.5C272.8 223 271.5 223 270.7 222.5L193.6 178C192.8 177.5 192.8 176.8 193.6 176.3L219.7 161.2C220.5 160.7 221.8 160.7 222.6 161.2L299.7 205.6C300.5 206.1 300.5 206.9 299.7 207.4Z" fill="black"/>
<g id="Keyboard_3_">
<g id="XMLID_477_">
<path id="XMLID_480_" d="M195.1 173.7C195.1 173.4 195.3 173.1 195.7 172.9L220.2 158.8C221 158.3 222.3 158.3 223.1 158.8L297.9 202.1C298.3 202.3 298.5 202.6 298.5 202.9C298.5 203.2 298.5 205.2 298.5 205.5C298.5 205.8 298.3 206.1 297.9 206.3L273.4 220.4C272.6 220.9 271.3 220.9 270.5 220.4L195.7 177.2C195.3 177 195.1 176.7 195.1 176.4C195.1 176 195.1 174 195.1 173.7Z" fill="#263238"/>
<path id="XMLID_479_" d="M273.5 217.7L298 203.6C298.8 203.1 298.8 202.4 298 201.9L223.2 158.6C222.4 158.1 221.1 158.1 220.3 158.6L195.8 172.7C195 173.2 195 173.9 195.8 174.4L270.6 217.6C271.4 218.2 272.7 218.2 273.5 217.7Z" fill="#37474F"/>
<path id="XMLID_478_" d="M272.1 218V220.6C272.6 220.6 273.1 220.5 273.5 220.3L298 206.2C298.4 206 298.6 205.7 298.6 205.4V202.8C298.6 203.1 298.4 203.4 298 203.6L273.5 217.7C273.1 217.9 272.6 218 272.1 218Z" fill="#263238"/>
</g>
<path id="XMLID_368_" d="M199.7 173.8L202.1 172.4L205.4 174.3L203 175.7L199.7 173.8ZM203.5 171.7C203.5 171.6 203.5 171.6 203.5 171.7L205.9 170.3L208.5 171.8L206.1 173.2L203.5 171.7ZM204.3 176.5L206.7 175.1L209.3 176.6L206.9 178L204.3 176.5ZM207.3 169.5C207.3 169.4 207.3 169.4 207.3 169.5L209.7 168.1L213.9 170.5L211.5 171.9L207.3 169.5ZM207.4 173.9L209.8 172.5L211.9 173.7L209.5 175.1L207.4 173.9ZM208.2 178.7L210.6 177.3L213.2 178.8L210.8 180.2L208.2 178.7ZM210.7 175.8L213.1 174.4L215.2 175.6L212.8 177L210.7 175.8ZM211.1 167.3C211.1 167.3 211.1 167.2 211.1 167.3L213.5 165.9L216.8 167.8L214.4 169.2L211.1 167.3ZM212.1 181L214.5 179.6L233.2 190.4L230.8 191.8L212.1 181ZM212.8 172.6L215.2 171.2L217.3 172.4L214.9 173.8L212.8 172.6ZM214.1 177.8L216.5 176.4L218.6 177.6L216.2 179L214.1 177.8ZM214.9 165.1C214.9 165.1 214.9 165 214.9 165.1L217.3 163.7L219.4 164.9L217 166.3L214.9 165.1ZM215.7 169.9L218.1 168.5L220.2 169.7L217.8 171.1L215.7 169.9ZM216.1 174.6C216.1 174.6 216.1 174.5 216.1 174.6L218.5 173.2L220.6 174.4L218.2 175.8L216.1 174.6ZM217.4 179.7C217.4 179.7 217.5 179.7 217.4 179.7L219.8 178.3L221.9 179.5L219.5 180.9L217.4 179.7ZM218.2 167L220.6 165.6L222.7 166.8L220.3 168.2L218.2 167ZM219 171.9C219 171.8 219 171.8 219 171.9L221.4 170.5L223.5 171.7L221.1 173.1L219 171.9ZM219.5 176.5L221.9 175.1L224 176.3L221.6 177.7L219.5 176.5ZM219.5 162.4L221.9 161L224.5 162.5L222.1 163.9L219.5 162.4ZM220.8 181.7C220.8 181.6 220.8 181.6 220.8 181.7L223.2 180.3L225.3 181.5L222.9 182.9L220.8 181.7ZM221.6 169C221.6 168.9 221.6 168.9 221.6 169L224 167.6L226.1 168.8L223.7 170.2L221.6 169ZM222.4 173.8L224.8 172.4L226.9 173.6L224.5 175L222.4 173.8ZM222.8 178.4L225.2 177L227.3 178.2L224.9 179.6L222.8 178.4ZM224.2 183.6L226.6 182.2L228.7 183.4L226.3 184.8L224.2 183.6ZM224.8 165.5L227.2 164.1L229.3 165.3L226.9 166.7L224.8 165.5ZM224.9 170.9C224.9 170.9 225 170.9 224.9 170.9L227.3 169.5L229.4 170.7L227 172.1L224.9 170.9ZM225.7 175.7C225.7 175.7 225.8 175.7 225.7 175.7L228.1 174.3L230.2 175.5L227.8 176.9L225.7 175.7ZM226.2 180.4L228.6 179L230.7 180.2L228.3 181.6L226.2 180.4ZM227.5 185.5L229.9 184.1L232 185.3L229.6 186.7L227.5 185.5ZM228.2 167.4L230.6 166L232.7 167.2L230.3 168.6L228.2 167.4ZM228.3 172.8L230.7 171.4L232.8 172.6L230.4 174L228.3 172.8ZM229.1 177.7L231.5 176.3L233.6 177.5L231.2 178.9L229.1 177.7ZM229.6 182.3L232 180.9L234.1 182.1L231.7 183.5L229.6 182.3ZM230.9 187.5L233.3 186.1L235.4 187.3L233 188.7L230.9 187.5ZM231.5 169.4C231.5 169.4 231.6 169.4 231.5 169.4L233.9 168L236 169.2L233.6 170.6L231.5 169.4ZM231.7 174.8C231.7 174.8 231.7 174.7 231.7 174.8L234.1 173.4L236.2 174.6L233.8 176L231.7 174.8ZM232 192.5C232 192.5 232.1 192.5 232 192.5L234.4 191.1L237 192.6L234.6 194L232 192.5ZM232.5 179.6L234.9 178.2L237 179.4L234.6 180.8L232.5 179.6ZM232.9 184.3C232.9 184.3 232.9 184.2 232.9 184.3L235.3 182.9L237.4 184.1L235 185.5L232.9 184.3ZM234.2 189.4C234.2 189.4 234.3 189.4 234.2 189.4L236.6 188L238.7 189.2L236.3 190.6L234.2 189.4ZM234.9 171.3L237.3 169.9L239.4 171.1L237 172.5L234.9 171.3ZM235 176.7L237.4 175.3L239.5 176.5L237.1 177.9L235 176.7ZM235.8 181.6C235.8 181.5 235.8 181.5 235.8 181.6L238.2 180.2L240.3 181.4L237.9 182.8L235.8 181.6ZM235.9 194.8L238.3 193.4L240.9 194.9L238.5 196.3L235.9 194.8ZM236.3 186.2L238.7 184.8L240.8 186L238.4 187.4L236.3 186.2ZM237.6 191.4C237.6 191.3 237.6 191.3 237.6 191.4L240 190L242.1 191.2L239.7 192.6L237.6 191.4ZM238.4 178.7C238.4 178.6 238.4 178.6 238.4 178.7L240.8 177.3L242.9 178.5L240.5 179.9L238.4 178.7ZM239.2 183.5L241.6 182.1L243.7 183.3L241.3 184.7L239.2 183.5ZM239.6 188.1L242 186.7L244.1 187.9L241.7 189.3L239.6 188.1ZM239.7 174.1L242.1 172.7L244.2 173.9L241.8 175.3L239.7 174.1ZM239.8 197L242.2 195.6L244.8 197.1L242.4 198.5L239.8 197ZM241 193.3L243.4 191.9L245.5 193.1L243.1 194.5L241 193.3ZM241.7 180.6C241.7 180.6 241.8 180.6 241.7 180.6L244.1 179.2L246.2 180.4L243.8 181.8L241.7 180.6ZM242.5 185.4C242.5 185.4 242.6 185.4 242.5 185.4L244.9 184L247 185.2L244.6 186.6L242.5 185.4ZM243 190.1L245.4 188.7L247.5 189.9L245.1 191.3L243 190.1ZM243.1 176.1C243.1 176 243.1 176 243.1 176.1L245.5 174.7L247.6 175.9L245.2 177.3L243.1 176.1ZM243.7 199.3C243.7 199.3 243.7 199.2 243.7 199.3L246.1 197.9L249.4 199.8L247 201.2L243.7 199.3ZM244.3 195.2L246.7 193.8L253.2 197.5L250.8 198.9L244.3 195.2ZM245.1 182.5L247.5 181.1L249.6 182.3L247.2 183.7L245.1 182.5ZM245.9 187.4L248.3 186L250.4 187.2L248 188.6L245.9 187.4ZM246.4 192L248.8 190.6L250.9 191.8L248.5 193.2L246.4 192ZM246.5 178L248.9 176.6L251 177.8L248.6 179.2L246.5 178ZM248.5 184.5C248.5 184.5 248.5 184.4 248.5 184.5L250.9 183.1L253 184.3L250.6 185.7L248.5 184.5ZM249 202.3L251.4 200.9L253.5 202.1L251.1 203.5L249 202.3ZM249.3 189.3L251.7 187.9L253.8 189.1L251.4 190.5L249.3 189.3ZM249.7 194C249.7 194 249.7 193.9 249.7 194L252.1 192.6L254 193.7C254.1 193.8 254.4 193.8 254.6 193.8C254.9 193.8 255.1 193.8 255.2 193.7L258.4 191.9L260.8 193.3L254.6 196.9L249.7 194ZM249.8 179.9L252.2 178.5L254.3 179.7L251.9 181.1L249.8 179.9ZM251.8 186.4L254.2 185L256.3 186.2L253.9 187.6L251.8 186.4ZM252.4 204.3C252.4 204.3 252.4 204.2 252.4 204.3L254.8 202.9L256.9 204.1L254.5 205.5L252.4 204.3ZM252.6 191.3C252.6 191.2 252.6 191.2 252.6 191.3L255 189.9L257.1 191.1L254.7 192.5L252.6 191.3ZM254.6 182.7L257 181.3L259.1 182.5L256.7 183.9L254.6 182.7ZM255.2 188.4C255.2 188.3 255.2 188.3 255.2 188.4L257.6 187L259.7 188.2L257.3 189.6L255.2 188.4ZM255.7 206.2L258.1 204.8L260.2 206L257.8 207.4L255.7 206.2ZM256.2 202.1L258.6 200.7L260.7 201.9L258.3 203.3L256.2 202.1ZM258 184.7C258 184.6 258 184.6 258 184.7L260.4 183.3L262.5 184.5L260.1 185.9L258 184.7ZM258.5 190.3C258.5 190.3 258.6 190.3 258.5 190.3L260.9 188.9L264.5 191L262.1 192.4L258.5 190.3ZM259.8 208.6C259.8 208.5 259.8 208.5 259.8 208.6L262.2 207.2L267.6 210.3L265.2 211.7L259.8 208.6ZM260.4 195.8C260.4 195.7 260.4 195.7 260.4 195.8L262.8 194.4L264.9 195.6L262.5 197L260.4 195.8ZM261.4 186.6L263.8 185.2L265.9 186.4L263.5 187.8L261.4 186.6ZM263.6 206.4C263.6 206.4 263.6 206.3 263.6 206.4L266 205L268.1 206.2L265.7 207.6L263.6 206.4ZM263.8 197.7L266.2 196.3L268.3 197.5L265.9 198.9L263.8 197.7ZM264.2 193.6C264.2 193.5 264.2 193.5 264.2 193.6L266.6 192.2L268.7 193.4L266.3 194.8L264.2 193.6ZM264.7 188.5L267.1 187.1L269.2 188.3L266.8 189.7L264.7 188.5ZM266.5 212.4L268.9 211L271 212.2L268.6 213.6L266.5 212.4ZM267 208.3L269.4 206.9L271.5 208.1L269.1 209.5L267 208.3ZM267.1 199.6L269.5 198.2L271.6 199.4L269.2 200.8L267.1 199.6ZM267.4 204.2L269.8 202.8L271.9 204L269.5 205.4L267.4 204.2ZM267.6 195.5L270 194.1L272.1 195.3L269.7 196.7L267.6 195.5ZM268.8 190.9L271.2 189.5L273.3 190.7L270.9 192.1L268.8 190.9ZM269.9 214.4L276.1 210.8L278.2 212L272 215.6L269.9 214.4ZM270.3 210.3C270.3 210.2 270.3 210.2 270.3 210.3L272.7 208.9L274.8 210.1L272.4 211.5L270.3 210.3ZM270.8 206.1L273.2 204.7L275.3 205.9L272.9 207.3L270.8 206.1ZM270.9 197.4L273.3 196L275.4 197.2L273 198.6L270.9 197.4ZM271.2 202L273.6 200.6L275.7 201.8L273.3 203.2L271.2 202ZM272.2 192.8L274.6 191.4L276.7 192.6L274.3 194L272.2 192.8ZM274.1 208.1C274.1 208 274.1 208 274.1 208.1L276.5 206.7L278.6 207.9L276.2 209.3L274.1 208.1ZM274.6 203.9L277 202.5L279.1 203.7L276.7 205.1L274.6 203.9ZM275 199.8L277.4 198.4L279.5 199.6L277.1 201L275 199.8ZM275.5 194.8L277.9 193.4L280 194.6L277.6 196L275.5 194.8ZM277.5 210L283.7 206.4L285.8 207.6L279.6 211.2L277.5 210ZM277.9 205.9C277.9 205.9 277.9 205.8 277.9 205.9L280.3 204.5L282.4 205.7L280 207.1L277.9 205.9ZM278.4 201.7L280.8 200.3L282.9 201.5L280.5 202.9L278.4 201.7ZM280.6 196.6C280.6 196.6 280.6 196.5 280.6 196.6L281.6 196L283.7 197.2L282.6 197.9L280.6 196.6ZM281.7 203.7C281.7 203.7 281.7 203.6 281.7 203.7L284.1 202.3L286.2 203.5L283.8 204.9L281.7 203.7ZM283.9 198.5C283.9 198.5 284 198.5 283.9 198.5L284.9 197.9L287 199.1L285.9 199.8L283.9 198.5ZM285.1 205.6L287.5 204.2L289.6 205.4L287.2 206.8L285.1 205.6ZM287.3 200.4L288.3 199.8L290.4 201L289.3 201.7L287.3 200.4ZM290.7 202.4L291.7 201.8L293.8 203L292.7 203.7L290.7 202.4Z" fill="#03ABAA"/>
</g>
</g>
<g id="Device_1_">
<path id="Shadow_1_" opacity="0.15" d="M359.9 210.3L382.9 197L268.1 130.8L245.2 144L359.9 210.3Z" fill="black"/>
<g id="Monitor_1_">
<g id="XMLID_361_">
<g id="XMLID_366_">
<path id="XMLID_367_" d="M295 188.7L278.6 179.2C276.9 178.2 276.1 176.9 276.1 175.7C276.1 174.4 276.1 173.4 276.1 173.4L291.5 164.6C292.4 164.1 293.1 162.8 293.1 161.8V141.6L321.7 158.1V178.3C321.7 179.3 321 180.6 320.1 181.1L307.2 188.6C303.8 190.7 298.3 190.7 295 188.7Z" fill="#E6E6E6"/>
</g>
<path id="XMLID_365_" d="M314.8 182V184.3L320 181.3C320.9 180.8 321.6 179.5 321.6 178.5V158.3L316.1 155.2C316 156.6 315.9 158 315.8 159.4L319.6 161.6V177.4C319.6 178.4 318.9 179.7 318 180.2L314.8 182Z" fill="#E0E0E0"/>
<path id="XMLID_364_" d="M319.7 177.3C319.7 178.3 319 179.6 318.1 180.1L307.2 186.5C303.8 188.5 298.3 188.5 295 186.5L278.6 177C275.2 175.1 275.2 171.9 278.6 169.9L289.5 163.5C290.4 163 291.1 161.7 291.1 160.7V144.9L319.7 161.4V177.3V177.3Z" fill="#F5F5F5"/>
<path id="XMLID_363_" d="M286.2 165.5L289.5 163.6C290.4 163.1 291.1 161.8 291.1 160.8V145L319.7 161.5V177.3C319.7 178.3 319 179.6 318.1 180.1L314.8 182L286.2 165.5Z" fill="#EBEBEB"/>
<path id="XMLID_362_" d="M276 173.4C276 173.4 276 174.4 276 175.7C276 177 276.8 178.3 278.5 179.2L294.9 188.7C296.5 189.6 298.6 190.1 300.7 190.2V187.9C298.6 187.9 296.5 187.4 294.9 186.4L278.5 176.9C276.9 176 276 174.7 276 173.4Z" fill="#EBEBEB"/>
</g>
<path id="XMLID_360_" d="M365.7 199.1C364.6 199.7 362.9 199.7 361.7 199C347.6 190.9 265.1 143.2 251 135.1C249.9 134.4 249 132.9 249 131.6V34.7C249 33.4 249.9 31.9 250.9 31.2C252 30.6 253.7 30.6 254.9 31.3L365.6 95.2C366.7 95.9 367.6 97.4 367.6 98.7V195.6C367.6 196.9 366.7 198.4 365.7 199.1Z" fill="#455A64"/>
<path id="XMLID_359_" d="M361.7 199L251 135.1C249.9 134.4 249 132.9 249 131.6V34.7C249 33.4 249.9 32.9 251 33.5L361.7 97.4C362.8 98.1 363.7 99.6 363.7 100.9V197.8C363.8 199.1 362.9 199.6 361.7 199Z" fill="#37474F"/>
<path id="XMLID_358_" d="M362 199.4C363.1 199.9 364.7 199.9 365.7 199.3C366.8 198.7 367.6 197.1 367.6 195.8V184.9L363.8 187.1V198C363.8 199.2 363 199.8 362 199.4Z" fill="#E0E0E0"/>
<path id="XMLID_357_" d="M363.8 187.2V198.1C363.8 199.4 362.9 199.9 361.8 199.3L251 135.3C249.9 134.6 249 133.1 249 131.8V120.9L363.8 187.2Z" fill="white"/>
<path id="XMLID_356_" d="M359.9 178.9V102.2C359.9 101.4 359.4 100.5 358.7 100.1L254.1 39.6C253.4 39.2 252.9 39.5 252.9 40.3V117C252.9 117.8 253.4 118.7 254.1 119.1L358.8 179.5C359.4 180 359.9 179.6 359.9 178.9Z" fill="#03ABAA"/>
<path id="XMLID_355_" opacity="0.5" d="M359.9 178.9V102.2C359.9 101.4 359.4 100.5 358.7 100.1L254.1 39.6C253.4 39.2 252.9 39.5 252.9 40.3V117C252.9 117.8 253.4 118.7 254.1 119.1L358.8 179.5C359.4 180 359.9 179.6 359.9 178.9Z" fill="white"/>
<path id="XMLID_351_" d="M306.4 158.2C307.5 158.8 308.3 160.3 308.3 161.5C308.3 162.7 307.4 163.2 306.4 162.6C305.3 162 304.5 160.5 304.5 159.3C304.5 158.1 305.3 157.6 306.4 158.2Z" fill="#455A64"/>
<path id="XMLID_350_" d="M363.2 98.9C363.6 99.5 363.8 100.3 363.8 100.9V187.1L367.6 184.9V98.7C367.6 98.1 367.4 97.3 367 96.7L363.2 98.9Z" fill="#263238"/>
</g>
</g>
<g id="Window_5_">
<g id="Window_6_">
<path id="Vector" d="M267.1 14.7C267.1 14.6 267.1 14.6 267.1 14.5C267.1 14.4 267.1 14.4 267.1 14.3C267.1 14.2 267.2 14.1 267.2 14.1C267.2 14.1 267.2 14 267.3 14C267.3 14 267.3 13.9 267.4 13.9C267.4 13.8 267.5 13.8 267.5 13.8C267.6 13.8 267.6 13.7 267.7 13.7C268.1 13.5 268.5 13.6 269 13.9L398.2 88.4C399.3 89 400.2 90.5 400.2 91.8V185.3V185.7C400.2 186.2 399.9 186.7 399.5 186.9C399.5 186.9 399.4 186.9 399.4 187C399.4 187 399.3 187 399.3 187.1C399.2 187.1 399.2 187.1 399.1 187.2C399 187.2 398.9 187.2 398.9 187.2C398.7 187.2 398.5 187.1 398.3 187H398.2L396.3 185.9L269 112.4C267.9 111.8 267 110.3 267 109V15C267.1 14.8 267.1 14.7 267.1 14.7Z" fill="#455A64"/>
<g id="XMLID_345_">
<g id="XMLID_349_">
<path id="Vector_2" d="M267.7 13.6C268.1 13.4 268.5 13.5 269 13.8L398.2 88.3C399.3 88.9 400.2 90.4 400.2 91.7V98.1L402.7 96.6V90.3C402.7 89.1 401.8 87.5 400.8 86.9L271.6 12.4C271 12.1 270.5 12.1 270.2 12.3C269.8 12.5 268.2 13.4 267.7 13.6Z" fill="#03ABAA"/>
</g>
<path id="XMLID_348_" d="M267.1 14.9C267.1 13.7 268 13.2 269 13.8L398.2 88.3C399.3 88.9 400.2 90.4 400.2 91.7V98.1L267.1 21.3V14.9Z" fill="#03ABAA"/>
<g id="XMLID_347_" opacity="0.5">
<path id="Vector_3" d="M269.1 13.8L398.3 88.3C398.8 88.6 399.3 89.1 399.7 89.7L402.2 88.3C401.9 87.7 401.4 87.2 400.8 86.9L271.6 12.4C271 12.1 270.5 12.1 270.2 12.3C269.9 12.5 268.2 13.4 267.8 13.7C268.1 13.4 268.6 13.5 269.1 13.8Z" fill="white"/>
</g>
<path id="XMLID_346_" opacity="0.15" d="M402.7 96.6V90.3C402.7 89.7 402.5 89 402.1 88.3L399.6 89.7C400 90.3 400.2 91 400.2 91.6V98L402.7 96.6Z" fill="black"/>
</g>
<g id="XMLID_335_">
<path id="XMLID_344_" d="M395.8 89.7C396.4 90.1 396.9 91.1 396.9 92C396.9 92.9 396.4 93.4 395.8 93.1C395.2 92.7 394.7 91.7 394.7 90.8C394.7 89.8 395.2 89.3 395.8 89.7Z" fill="#455A64"/>
<path id="XMLID_338_" d="M391.8 87.4C392.4 87.8 392.9 88.8 392.9 89.7C392.9 90.6 392.4 91.1 391.8 90.8C391.2 90.4 390.7 89.4 390.7 88.5C390.7 87.5 391.2 87 391.8 87.4Z" fill="#455A64"/>
<path id="XMLID_336_" d="M387.8 85.1C388.4 85.5 388.9 86.5 388.9 87.4C388.9 88.3 388.4 88.8 387.8 88.5C387.2 88.1 386.7 87.1 386.7 86.2C386.7 85.3 387.2 84.7 387.8 85.1Z" fill="#455A64"/>
</g>
<path id="Vector_4" opacity="0.9" d="M399.5 186.8L399.6 186.7L401.7 185.5C402.3 185.2 402.6 184.6 402.7 184C402.7 183.9 402.7 183.8 402.7 183.7V96.6L400.2 98.1V185.7C400.2 186.1 399.9 186.5 399.5 186.8C399.5 186.8 399.6 186.8 399.5 186.8Z" fill="#263238"/>
</g>
<g id="Code_1_">
<g id="Group_2">
<path id="XMLID_334_" d="M306.7 54.6L333.9 70.3C334.3 70.5 334.6 71 334.6 71.5C334.6 71.9 334.3 72.1 333.9 71.9L306.7 56.2C306.3 56 306 55.5 306 55C306 54.5 306.3 54.3 306.7 54.6Z" fill="#03ABAA"/>
<path id="XMLID_333_" d="M317.1 84.6L327.4 90.5C327.8 90.7 328.1 91.2 328.1 91.7C328.1 92.1 327.8 92.3 327.4 92.1L317.1 86.2C316.7 86 316.4 85.5 316.4 85C316.4 84.5 316.7 84.4 317.1 84.6Z" fill="#E6E6E6"/>
<path id="XMLID_332_" d="M317.1 90.6L327.4 96.5C327.8 96.7 328.1 97.2 328.1 97.7C328.1 98.1 327.8 98.3 327.4 98.1L317.1 92.2C316.7 92 316.4 91.5 316.4 91C316.4 90.5 316.7 90.4 317.1 90.6Z" fill="#E6E6E6"/>
<path id="XMLID_331_" d="M336.6 71.8L391.1 103.2C391.5 103.4 391.8 103.9 391.8 104.4C391.8 104.8 391.5 105 391.1 104.8L336.6 73.4C336.2 73.2 335.9 72.7 335.9 72.2C335.9 71.7 336.2 71.6 336.6 71.8Z" fill="#03ABAA"/>
<path id="XMLID_330_" d="M317.3 126.7L333.9 136.3C334.3 136.5 334.6 137 334.6 137.5C334.6 137.9 334.3 138.1 333.9 137.9L317.3 128.3C316.9 128.1 316.6 127.6 316.6 127.1C316.6 126.7 316.9 126.5 317.3 126.7Z" fill="#03ABAA"/>
<path id="XMLID_329_" d="M336.6 137.9L391.1 169.3C391.5 169.5 391.8 170 391.8 170.5C391.8 170.9 391.5 171.1 391.1 170.9L336.6 139.5C336.2 139.3 335.9 138.8 335.9 138.3C335.9 137.8 336.2 137.7 336.6 137.9Z" fill="#03ABAA"/>
<g id="XMLID_326_">
<path id="XMLID_328_" d="M306.7 60.6L320.4 68.5C320.8 68.7 321.1 69.2 321.1 69.7C321.1 70.1 320.8 70.3 320.4 70.1L306.7 62.2C306.3 62 306 61.5 306 61C306 60.5 306.3 60.4 306.7 60.6Z" fill="#03ABAA"/>
<path id="XMLID_327_" opacity="0.6" d="M306.7 60.6L320.4 68.5C320.8 68.7 321.1 69.2 321.1 69.7C321.1 70.1 320.8 70.3 320.4 70.1L306.7 62.2C306.3 62 306 61.5 306 61C306 60.5 306.3 60.4 306.7 60.6Z" fill="white"/>
</g>
<g id="XMLID_323_">
<path id="XMLID_325_" d="M306.7 66.6L313.1 70.3C313.5 70.5 313.8 71 313.8 71.5C313.8 71.9 313.5 72.1 313.1 71.9L306.7 68.2C306.3 68 306 67.5 306 67C306 66.5 306.3 66.4 306.7 66.6Z" fill="#03ABAA"/>
<path id="XMLID_324_" opacity="0.6" d="M306.7 66.6L313.1 70.3C313.5 70.5 313.8 71 313.8 71.5C313.8 71.9 313.5 72.1 313.1 71.9L306.7 68.2C306.3 68 306 67.5 306 67C306 66.5 306.3 66.4 306.7 66.6Z" fill="white"/>
</g>
<g id="XMLID_319_">
<path id="XMLID_322_" d="M306.7 78.6L313.1 82.3C313.5 82.5 313.8 83 313.8 83.5C313.8 83.9 313.5 84.1 313.1 83.9L306.7 80.2C306.3 80 306 79.5 306 79C306 78.5 306.3 78.4 306.7 78.6Z" fill="#03ABAA"/>
<path id="XMLID_320_" opacity="0.6" d="M306.7 78.6L313.1 82.3C313.5 82.5 313.8 83 313.8 83.5C313.8 83.9 313.5 84.1 313.1 83.9L306.7 80.2C306.3 80 306 79.5 306 79C306 78.5 306.3 78.4 306.7 78.6Z" fill="white"/>
</g>
<g id="XMLID_316_">
<path id="XMLID_318_" d="M306.7 84.6L313.1 88.3C313.5 88.5 313.8 89 313.8 89.5C313.8 90 313.5 90.1 313.1 89.9L306.7 86.2C306.3 86 306 85.5 306 85C306 84.5 306.3 84.4 306.7 84.6Z" fill="#03ABAA"/>
<path id="XMLID_317_" opacity="0.6" d="M306.7 84.6L313.1 88.3C313.5 88.5 313.8 89 313.8 89.5C313.8 90 313.5 90.1 313.1 89.9L306.7 86.2C306.3 86 306 85.5 306 85C306 84.5 306.3 84.4 306.7 84.6Z" fill="white"/>
</g>
<g id="XMLID_313_">
<path id="XMLID_315_" d="M323.1 70L331.3 74.8C331.7 75 332 75.5 332 76C332 76.4 331.7 76.6 331.3 76.4L323.1 71.6C322.7 71.4 322.4 70.9 322.4 70.4C322.4 70 322.7 69.8 323.1 70Z" fill="#03ABAA"/>
<path id="XMLID_314_" opacity="0.6" d="M323.1 70L331.3 74.8C331.7 75 332 75.5 332 76C332 76.4 331.7 76.6 331.3 76.4L323.1 71.6C322.7 71.4 322.4 70.9 322.4 70.4C322.4 70 322.7 69.8 323.1 70Z" fill="white"/>
</g>
<g id="XMLID_311_">
<path id="XMLID_312_" d="M335.8 113.5L391.1 145.3C391.5 145.5 391.8 146 391.8 146.5C391.8 146.9 391.5 147.1 391.1 146.9L335.8 115C335.4 114.8 335.1 114.3 335.1 113.8C335.1 113.4 335.4 113.2 335.8 113.5Z" fill="white"/>
</g>
<g id="XMLID_309_">
<path id="XMLID_310_" d="M382.9 134.5L391.1 139.3C391.5 139.5 391.8 140 391.8 140.5C391.8 141 391.5 141.1 391.1 140.9L382.9 136.1C382.5 135.9 382.2 135.4 382.2 134.9C382.2 134.5 382.5 134.3 382.9 134.5Z" fill="white"/>
</g>
<g id="XMLID_307_">
<path id="XMLID_308_" d="M324.9 101.1L380.2 132.9C380.6 133.1 380.9 133.6 380.9 134.1C380.9 134.6 380.6 134.7 380.2 134.5L324.9 102.7C324.5 102.5 324.2 102 324.2 101.5C324.2 101.1 324.5 100.9 324.9 101.1Z" fill="white"/>
</g>
<g id="XMLID_304_">
<path id="XMLID_306_" d="M317.1 72.6L330.8 80.5C331.2 80.7 331.5 81.2 331.5 81.7C331.5 82.1 331.2 82.3 330.8 82.1L317.1 74.2C316.7 74 316.4 73.5 316.4 73C316.4 72.5 316.7 72.4 317.1 72.6Z" fill="#03ABAA"/>
<path id="XMLID_305_" opacity="0.6" d="M317.1 72.6L330.8 80.5C331.2 80.7 331.5 81.2 331.5 81.7C331.5 82.1 331.2 82.3 330.8 82.1L317.1 74.2C316.7 74 316.4 73.5 316.4 73C316.4 72.5 316.7 72.4 317.1 72.6Z" fill="white"/>
</g>
<g id="XMLID_301_">
<path id="XMLID_303_" d="M333.5 82L390.7 115.1C391.1 115.3 391.4 115.8 391.4 116.3C391.4 116.7 391.1 116.9 390.7 116.7L333.5 83.6C333.1 83.4 332.8 82.9 332.8 82.4C332.8 82 333.1 81.8 333.5 82Z" fill="#03ABAA"/>
<path id="XMLID_302_" opacity="0.6" d="M333.5 82L390.7 115.1C391.1 115.3 391.4 115.8 391.4 116.3C391.4 116.7 391.1 116.9 390.7 116.7L333.5 83.6C333.1 83.4 332.8 82.9 332.8 82.4C332.8 82 333.1 81.8 333.5 82Z" fill="white"/>
</g>
<path id="XMLID_300_" d="M317.1 108.8L391.1 151.5C391.5 151.7 391.8 152.2 391.8 152.7C391.8 153.2 391.5 153.3 391.1 153.1L317.1 110.4C316.7 110.2 316.4 109.7 316.4 109.2C316.4 108.7 316.7 108.5 317.1 108.8Z" fill="#E6E6E6"/>
<g id="XMLID_297_">
<path id="XMLID_299_" d="M306.7 102.8L313.1 106.5C313.5 106.7 313.8 107.2 313.8 107.7C313.8 108.1 313.5 108.3 313.1 108.1L306.7 104.4C306.3 104.2 306 103.7 306 103.2C306 102.7 306.3 102.5 306.7 102.8Z" fill="#03ABAA"/>
<path id="XMLID_298_" opacity="0.6" d="M306.7 102.8L313.1 106.5C313.5 106.7 313.8 107.2 313.8 107.7C313.8 108.1 313.5 108.3 313.1 108.1L306.7 104.4C306.3 104.2 306 103.7 306 103.2C306 102.7 306.3 102.5 306.7 102.8Z" fill="white"/>
</g>
<path id="XMLID_296_" d="M317.1 114.8L391.1 157.5C391.5 157.7 391.8 158.2 391.8 158.7C391.8 159.1 391.5 159.3 391.1 159.1L317.1 116.4C316.7 116.2 316.4 115.7 316.4 115.2C316.4 114.7 316.7 114.5 317.1 114.8Z" fill="#E6E6E6"/>
<g id="XMLID_293_">
<path id="XMLID_295_" d="M306.7 108.8L313.1 112.5C313.5 112.7 313.8 113.2 313.8 113.7C313.8 114.2 313.5 114.3 313.1 114.1L306.7 110.4C306.3 110.2 306 109.7 306 109.2C306 108.7 306.3 108.5 306.7 108.8Z" fill="#03ABAA"/>
<path id="XMLID_294_" opacity="0.6" d="M306.7 108.8L313.1 112.5C313.5 112.7 313.8 113.2 313.8 113.7C313.8 114.2 313.5 114.3 313.1 114.1L306.7 110.4C306.3 110.2 306 109.7 306 109.2C306 108.7 306.3 108.5 306.7 108.8Z" fill="white"/>
</g>
<path id="XMLID_292_" d="M317.1 120.8L391.1 163.5C391.5 163.7 391.8 164.2 391.8 164.7C391.8 165.2 391.5 165.3 391.1 165.1L317.1 122.4C316.7 122.2 316.4 121.7 316.4 121.2C316.4 120.7 316.7 120.6 317.1 120.8Z" fill="#E6E6E6"/>
<g id="XMLID_289_">
<path id="XMLID_291_" d="M306.7 114.8L313.1 118.5C313.5 118.7 313.8 119.2 313.8 119.7C313.8 120.1 313.5 120.3 313.1 120.1L306.7 116.4C306.3 116.2 306 115.7 306 115.2C306 114.7 306.3 114.5 306.7 114.8Z" fill="#03ABAA"/>
<path id="XMLID_290_" opacity="0.6" d="M306.7 114.8L313.1 118.5C313.5 118.7 313.8 119.2 313.8 119.7C313.8 120.1 313.5 120.3 313.1 120.1L306.7 116.4C306.3 116.2 306 115.7 306 115.2C306 114.7 306.3 114.5 306.7 114.8Z" fill="white"/>
</g>
</g>
<g id="Group_3" opacity="0.6">
<path id="Vector_5" d="M296.7 48.5L300.5 50.7C300.9 50.9 301.2 51.4 301.2 51.9V53.3C301.2 53.7 300.9 53.9 300.5 53.7L296.7 51.5C296.3 51.3 296 50.8 296 50.3V48.9C296 48.5 296.3 48.3 296.7 48.5Z" fill="white"/>
<path id="Vector_6" d="M296.7 54.6L300.5 56.8C300.9 57 301.2 57.5 301.2 58V59.4C301.2 59.8 300.9 60 300.5 59.8L296.7 57.6C296.3 57.4 296 56.9 296 56.4V55C296 54.6 296.3 54.4 296.7 54.6Z" fill="white"/>
<path id="Vector_7" d="M296.7 60.7L300.5 62.9C300.9 63.1 301.2 63.6 301.2 64.1V65.5C301.2 65.9 300.9 66.1 300.5 65.9L296.7 63.7C296.3 63.5 296 63 296 62.5V61.1C296 60.6 296.3 60.5 296.7 60.7Z" fill="white"/>
<path id="Vector_8" d="M296.7 66.7L300.5 68.9C300.9 69.1 301.2 69.6 301.2 70.1V71.5C301.2 71.9 300.9 72.1 300.5 71.9L296.7 69.7C296.3 69.5 296 69 296 68.5V67.1C296 66.7 296.3 66.5 296.7 66.7Z" fill="white"/>
<path id="Vector_9" d="M296.7 72.8L300.5 75C300.9 75.2 301.2 75.7 301.2 76.2V77.6C301.2 78 300.9 78.2 300.5 78L296.7 75.8C296.3 75.6 296 75.1 296 74.6V73.2C296 72.8 296.3 72.6 296.7 72.8Z" fill="white"/>
<path id="Vector_10" d="M296.7 78.9L300.5 81.1C300.9 81.3 301.2 81.8 301.2 82.3V83.7C301.2 84.1 300.9 84.3 300.5 84.1L296.7 81.9C296.3 81.7 296 81.2 296 80.7V79.3C296 78.8 296.3 78.6 296.7 78.9Z" fill="white"/>
<path id="Vector_11" d="M296.7 84.9L300.5 87.1C300.9 87.3 301.2 87.8 301.2 88.3V89.7C301.2 90.1 300.9 90.3 300.5 90.1L296.7 87.9C296.3 87.7 296 87.1 296 86.7V85.3C296 84.9 296.3 84.7 296.7 84.9Z" fill="white"/>
<path id="Vector_12" d="M296.7 91L300.5 93.2C300.9 93.4 301.2 93.9 301.2 94.4V95.8C301.2 96.2 300.9 96.4 300.5 96.2L296.7 94C296.3 93.8 296 93.3 296 92.8V91.4C296 91 296.3 90.8 296.7 91Z" fill="white"/>
<path id="Vector_13" d="M296.7 97.1L300.5 99.3C300.9 99.5 301.2 100 301.2 100.5V101.9C301.2 102.3 300.9 102.5 300.5 102.3L296.7 100.1C296.3 99.9 296 99.4 296 98.9V97.5C296 97 296.3 96.8 296.7 97.1Z" fill="white"/>
<path id="Vector_14" d="M296.7 103.1L300.5 105.3C300.9 105.5 301.2 106 301.2 106.5V107.9C301.2 108.3 300.9 108.5 300.5 108.3L296.7 106.1C296.3 105.9 296 105.4 296 104.9V103.5C296 103.1 296.3 102.9 296.7 103.1Z" fill="white"/>
<path id="Vector_15" d="M296.7 109.2L300.5 111.4C300.9 111.6 301.2 112.1 301.2 112.6V114C301.2 114.4 300.9 114.6 300.5 114.4L296.7 112.2C296.3 112 296 111.5 296 111V109.6C296 109.1 296.3 109 296.7 109.2Z" fill="white"/>
<path id="Vector_16" d="M296.7 115.3L300.5 117.5C300.9 117.7 301.2 118.2 301.2 118.7V120.1C301.2 120.5 300.9 120.7 300.5 120.5L296.7 118.3C296.3 118.1 296 117.6 296 117.1V115.7C296 115.2 296.3 115 296.7 115.3Z" fill="white"/>
</g>
<g id="Group_4">
<path id="Vector_17" d="M271.6 28.8L292 40.6C292.8 41 293.4 42.1 293.4 43V66.6C293.4 67.5 292.8 67.8 292 67.4L271.6 55.6C270.8 55.2 270.2 54.1 270.2 53.2V29.6C270.3 28.8 270.9 28.4 271.6 28.8Z" fill="#37474F"/>
<g id="Group_5">
<g id="Group_6">
<path id="XMLID_288_" d="M273.5 52.2L275.4 53.3C275.8 53.5 276.1 54 276.1 54.5C276.1 54.9 275.8 55.1 275.4 54.9L273.5 53.8C273.1 53.6 272.8 53.1 272.8 52.6C272.8 52.1 273.2 52 273.5 52.2Z" fill="#03ABAA"/>
<path id="XMLID_287_" opacity="0.6" d="M273.5 52.2L275.4 53.3C275.8 53.5 276.1 54 276.1 54.5C276.1 54.9 275.8 55.1 275.4 54.9L273.5 53.8C273.1 53.6 272.8 53.1 272.8 52.6C272.8 52.1 273.2 52 273.5 52.2Z" fill="white"/>
</g>
<g id="Group_7">
<path id="XMLID_286_" d="M273.5 32.9L275.4 34C275.8 34.2 276.1 34.7 276.1 35.2C276.1 35.6 275.8 35.8 275.4 35.6L273.5 34.5C273.1 34.3 272.8 33.8 272.8 33.3C272.8 32.8 273.2 32.7 273.5 32.9Z" fill="#03ABAA"/>
<path id="XMLID_285_" opacity="0.6" d="M273.5 32.9L275.4 34C275.8 34.2 276.1 34.7 276.1 35.2C276.1 35.6 275.8 35.8 275.4 35.6L273.5 34.5C273.1 34.3 272.8 33.8 272.8 33.3C272.8 32.8 273.2 32.7 273.5 32.9Z" fill="white"/>
</g>
<g id="Group_8">
<path id="Vector_18" d="M276.2 38.3L278.1 39.4C278.5 39.6 278.8 40.1 278.8 40.6C278.8 41 278.5 41.2 278.1 41L276.2 39.9C275.8 39.7 275.5 39.2 275.5 38.7C275.5 38.2 275.8 38.1 276.2 38.3Z" fill="#03ABAA"/>
<path id="Vector_19" opacity="0.6" d="M276.2 38.3L278.1 39.4C278.5 39.6 278.8 40.1 278.8 40.6C278.8 41 278.5 41.2 278.1 41L276.2 39.9C275.8 39.7 275.5 39.2 275.5 38.7C275.5 38.2 275.8 38.1 276.2 38.3Z" fill="white"/>
</g>
<g id="Group_9">
<path id="Vector_20" d="M276.2 42.1L278.1 43.2C278.5 43.4 278.8 43.9 278.8 44.4C278.8 44.8 278.5 45 278.1 44.8L276.2 43.7C275.8 43.5 275.5 43 275.5 42.5C275.5 42.1 275.8 41.9 276.2 42.1Z" fill="#03ABAA"/>
<path id="Vector_21" opacity="0.6" d="M276.2 42.1L278.1 43.2C278.5 43.4 278.8 43.9 278.8 44.4C278.8 44.8 278.5 45 278.1 44.8L276.2 43.7C275.8 43.5 275.5 43 275.5 42.5C275.5 42.1 275.8 41.9 276.2 42.1Z" fill="white"/>
</g>
<g id="Group_10">
<path id="Vector_22" d="M273.5 44.5L275.4 45.6C275.8 45.8 276.1 46.3 276.1 46.8C276.1 47.2 275.8 47.4 275.4 47.2L273.5 46.1C273.1 45.9 272.8 45.4 272.8 44.9C272.8 44.4 273.2 44.2 273.5 44.5Z" fill="#03ABAA"/>
<path id="Vector_23" opacity="0.6" d="M273.5 44.5L275.4 45.6C275.8 45.8 276.1 46.3 276.1 46.8C276.1 47.2 275.8 47.4 275.4 47.2L273.5 46.1C273.1 45.9 272.8 45.4 272.8 44.9C272.8 44.4 273.2 44.2 273.5 44.5Z" fill="white"/>
</g>
<g id="Group_11">
<path id="Vector_24" d="M276.2 49.8L278.1 50.9C278.5 51.1 278.8 51.6 278.8 52.1C278.8 52.6 278.5 52.7 278.1 52.5L276.2 51.4C275.8 51.2 275.5 50.7 275.5 50.2C275.5 49.8 275.8 49.6 276.2 49.8Z" fill="#03ABAA"/>
<path id="Vector_25" opacity="0.6" d="M276.2 49.8L278.1 50.9C278.5 51.1 278.8 51.6 278.8 52.1C278.8 52.6 278.5 52.7 278.1 52.5L276.2 51.4C275.8 51.2 275.5 50.7 275.5 50.2C275.5 49.8 275.8 49.6 276.2 49.8Z" fill="white"/>
</g>
</g>
<g id="Group_12">
<g id="Group_13">
<path id="XMLID_284_" d="M278.7 35.9L290.2 42.5C290.6 42.7 290.9 43.2 290.9 43.7C290.9 44.1 290.6 44.3 290.2 44.1L278.7 37.5C278.3 37.3 278 36.8 278 36.3C278 35.8 278.3 35.6 278.7 35.9Z" fill="#03ABAA"/>
<path id="XMLID_283_" opacity="0.8" d="M278.7 35.9L290.2 42.5C290.6 42.7 290.9 43.2 290.9 43.7C290.9 44.1 290.6 44.3 290.2 44.1L278.7 37.5C278.3 37.3 278 36.8 278 36.3C278 35.8 278.3 35.6 278.7 35.9Z" fill="white"/>
</g>
<g id="Group_14">
<path id="XMLID_282_" d="M278.7 55.2L290.2 61.8C290.6 62 290.9 62.5 290.9 63C290.9 63.5 290.6 63.6 290.2 63.4L278.7 56.8C278.3 56.6 278 56.1 278 55.6C278 55.1 278.3 54.9 278.7 55.2Z" fill="#03ABAA"/>
<path id="XMLID_281_" opacity="0.8" d="M278.7 55.2L290.2 61.8C290.6 62 290.9 62.5 290.9 63C290.9 63.5 290.6 63.6 290.2 63.4L278.7 56.8C278.3 56.6 278 56.1 278 55.6C278 55.1 278.3 54.9 278.7 55.2Z" fill="white"/>
</g>
<g id="Group_15">
<path id="Vector_26" d="M281.3 41.2L290.1 46.3C290.5 46.5 290.8 47 290.8 47.5C290.8 47.9 290.5 48.1 290.1 47.9L281.3 42.8C280.9 42.6 280.6 42.1 280.6 41.6C280.6 41.2 280.9 41 281.3 41.2Z" fill="#03ABAA"/>
<path id="Vector_27" opacity="0.8" d="M281.3 41.2L290.1 46.3C290.5 46.5 290.8 47 290.8 47.5C290.8 47.9 290.5 48.1 290.1 47.9L281.3 42.8C280.9 42.6 280.6 42.1 280.6 41.6C280.6 41.2 280.9 41 281.3 41.2Z" fill="white"/>
</g>
<g id="Group_16">
<path id="Vector_28" d="M281.3 45.1L290.1 50.2C290.5 50.4 290.8 50.9 290.8 51.4C290.8 51.8 290.5 52 290.1 51.8L281.3 46.7C280.9 46.5 280.6 46 280.6 45.5C280.6 45 280.9 44.9 281.3 45.1Z" fill="#03ABAA"/>
<path id="Vector_29" opacity="0.8" d="M281.3 45.1L290.1 50.2C290.5 50.4 290.8 50.9 290.8 51.4C290.8 51.8 290.5 52 290.1 51.8L281.3 46.7C280.9 46.5 280.6 46 280.6 45.5C280.6 45 280.9 44.9 281.3 45.1Z" fill="white"/>
</g>
<g id="Group_17">
<path id="Vector_30" d="M278.7 47.4L290.2 54C290.6 54.2 290.9 54.7 290.9 55.2C290.9 55.6 290.6 55.8 290.2 55.6L278.7 49C278.3 48.8 278 48.3 278 47.8C278 47.4 278.3 47.2 278.7 47.4Z" fill="#03ABAA"/>
<path id="Vector_31" opacity="0.8" d="M278.7 47.4L290.2 54C290.6 54.2 290.9 54.7 290.9 55.2C290.9 55.6 290.6 55.8 290.2 55.6L278.7 49C278.3 48.8 278 48.3 278 47.8C278 47.4 278.3 47.2 278.7 47.4Z" fill="white"/>
</g>
<g id="Group_18">
<path id="Vector_32" d="M281.3 52.8L290.1 57.9C290.5 58.1 290.8 58.6 290.8 59.1C290.8 59.5 290.5 59.7 290.1 59.5L281.3 54.4C280.9 54.2 280.6 53.7 280.6 53.2C280.6 52.8 280.9 52.6 281.3 52.8Z" fill="#03ABAA"/>
<path id="Vector_33" opacity="0.8" d="M281.3 52.8L290.1 57.9C290.5 58.1 290.8 58.6 290.8 59.1C290.8 59.5 290.5 59.7 290.1 59.5L281.3 54.4C280.9 54.2 280.6 53.7 280.6 53.2C280.6 52.8 280.9 52.6 281.3 52.8Z" fill="white"/>
</g>
</g>
</g>
<g id="Group_19">
<path id="Vector_34" d="M271.6 60L292 71.8C292.8 72.2 293.4 73.3 293.4 74.2V120.7C293.4 121.6 292.8 121.9 292 121.5L271.6 109.7C270.8 109.3 270.2 108.2 270.2 107.3V60.8C270.3 59.9 270.9 59.6 271.6 60Z" fill="#37474F"/>
<g id="Group_20">
<g id="Group_21">
<path id="XMLID_280_" d="M273.5 64L275.4 65.1C275.8 65.3 276.1 65.8 276.1 66.3C276.1 66.7 275.8 66.9 275.4 66.7L273.5 65.6C273.1 65.4 272.8 64.9 272.8 64.4C272.8 64 273.2 63.8 273.5 64Z" fill="#03ABAA"/>
<path id="XMLID_279_" opacity="0.6" d="M273.5 64L275.4 65.1C275.8 65.3 276.1 65.8 276.1 66.3C276.1 66.7 275.8 66.9 275.4 66.7L273.5 65.6C273.1 65.4 272.8 64.9 272.8 64.4C272.8 64 273.2 63.8 273.5 64Z" fill="white"/>
</g>
<g id="Group_22">
<path id="Vector_35" d="M276.2 69.4L278.1 70.5C278.5 70.7 278.8 71.2 278.8 71.7C278.8 72.1 278.5 72.3 278.1 72.1L276.2 71C275.8 70.8 275.5 70.3 275.5 69.8C275.5 69.4 275.8 69.2 276.2 69.4Z" fill="#03ABAA"/>
<path id="Vector_36" opacity="0.6" d="M276.2 69.4L278.1 70.5C278.5 70.7 278.8 71.2 278.8 71.7C278.8 72.1 278.5 72.3 278.1 72.1L276.2 71C275.8 70.8 275.5 70.3 275.5 69.8C275.5 69.4 275.8 69.2 276.2 69.4Z" fill="white"/>
</g>
<g id="Group_23">
<path id="Vector_37" d="M276.2 73.3L278.1 74.4C278.5 74.6 278.8 75.1 278.8 75.6C278.8 76.1 278.5 76.2 278.1 76L276.2 74.9C275.8 74.7 275.5 74.2 275.5 73.7C275.5 73.2 275.8 73 276.2 73.3Z" fill="#03ABAA"/>
<path id="Vector_38" opacity="0.6" d="M276.2 73.3L278.1 74.4C278.5 74.6 278.8 75.1 278.8 75.6C278.8 76.1 278.5 76.2 278.1 76L276.2 74.9C275.8 74.7 275.5 74.2 275.5 73.7C275.5 73.2 275.8 73 276.2 73.3Z" fill="white"/>
</g>
<g id="Group_24">
<path id="Vector_39" d="M273.5 75.6L275.4 76.7C275.8 76.9 276.1 77.4 276.1 77.9C276.1 78.3 275.8 78.5 275.4 78.3L273.5 77.2C273.1 77 272.8 76.5 272.8 76C272.8 75.6 273.2 75.4 273.5 75.6Z" fill="#03ABAA"/>
<path id="Vector_40" opacity="0.6" d="M273.5 75.6L275.4 76.7C275.8 76.9 276.1 77.4 276.1 77.9C276.1 78.3 275.8 78.5 275.4 78.3L273.5 77.2C273.1 77 272.8 76.5 272.8 76C272.8 75.6 273.2 75.4 273.5 75.6Z" fill="white"/>
</g>
</g>
<g id="Group_25">
<g id="Group_26">
<path id="XMLID_278_" d="M278.7 67L290.2 73.6C290.6 73.8 290.9 74.3 290.9 74.8C290.9 75.2 290.6 75.4 290.2 75.2L278.7 68.6C278.3 68.4 278 67.9 278 67.4C278 66.9 278.3 66.8 278.7 67Z" fill="#03ABAA"/>
<path id="XMLID_277_" opacity="0.8" d="M278.7 67L290.2 73.6C290.6 73.8 290.9 74.3 290.9 74.8C290.9 75.2 290.6 75.4 290.2 75.2L278.7 68.6C278.3 68.4 278 67.9 278 67.4C278 66.9 278.3 66.8 278.7 67Z" fill="white"/>
</g>
<g id="Group_27">
<path id="Vector_41" d="M281.3 72.4L290.1 77.5C290.5 77.7 290.8 78.2 290.8 78.7C290.8 79.1 290.5 79.3 290.1 79.1L281.3 74C280.9 73.8 280.6 73.3 280.6 72.8C280.6 72.3 280.9 72.2 281.3 72.4Z" fill="#03ABAA"/>
<path id="Vector_42" opacity="0.8" d="M281.3 72.4L290.1 77.5C290.5 77.7 290.8 78.2 290.8 78.7C290.8 79.1 290.5 79.3 290.1 79.1L281.3 74C280.9 73.8 280.6 73.3 280.6 72.8C280.6 72.3 280.9 72.2 281.3 72.4Z" fill="white"/>
</g>
<g id="Group_28">
<path id="Vector_43" d="M281.3 76.3L290.1 81.4C290.5 81.6 290.8 82.1 290.8 82.6C290.8 83 290.5 83.2 290.1 83L281.3 77.9C280.9 77.7 280.6 77.2 280.6 76.7C280.6 76.2 280.9 76 281.3 76.3Z" fill="#03ABAA"/>
<path id="Vector_44" opacity="0.8" d="M281.3 76.3L290.1 81.4C290.5 81.6 290.8 82.1 290.8 82.6C290.8 83 290.5 83.2 290.1 83L281.3 77.9C280.9 77.7 280.6 77.2 280.6 76.7C280.6 76.2 280.9 76 281.3 76.3Z" fill="white"/>
</g>
<g id="Group_29">
<path id="Vector_45" d="M278.7 78.6L290.2 85.2C290.6 85.4 290.9 85.9 290.9 86.4C290.9 86.8 290.6 87 290.2 86.8L278.7 80.2C278.3 80 278 79.5 278 79C278 78.5 278.3 78.4 278.7 78.6Z" fill="#03ABAA"/>
<path id="Vector_46" opacity="0.8" d="M278.7 78.6L290.2 85.2C290.6 85.4 290.9 85.9 290.9 86.4C290.9 86.8 290.6 87 290.2 86.8L278.7 80.2C278.3 80 278 79.5 278 79C278 78.5 278.3 78.4 278.7 78.6Z" fill="white"/>
</g>
<g id="Group_30">
<path id="Vector_47" d="M276.2 81L278.1 82.1C278.5 82.3 278.8 82.8 278.8 83.3C278.8 83.7 278.5 83.9 278.1 83.7L276.2 82.6C275.8 82.4 275.5 81.9 275.5 81.4C275.5 81 275.8 80.8 276.2 81Z" fill="#03ABAA"/>
<path id="Vector_48" opacity="0.6" d="M276.2 81L278.1 82.1C278.5 82.3 278.8 82.8 278.8 83.3C278.8 83.7 278.5 83.9 278.1 83.7L276.2 82.6C275.8 82.4 275.5 81.9 275.5 81.4C275.5 81 275.8 80.8 276.2 81Z" fill="white"/>
</g>
<g id="Group_31">
<path id="Vector_49" d="M276.2 84.9L278.1 86C278.5 86.2 278.8 86.7 278.8 87.2C278.8 87.6 278.5 87.8 278.1 87.6L276.2 86.5C275.8 86.3 275.5 85.8 275.5 85.3C275.5 84.8 275.8 84.6 276.2 84.9Z" fill="#03ABAA"/>
<path id="Vector_50" opacity="0.6" d="M276.2 84.9L278.1 86C278.5 86.2 278.8 86.7 278.8 87.2C278.8 87.6 278.5 87.8 278.1 87.6L276.2 86.5C275.8 86.3 275.5 85.8 275.5 85.3C275.5 84.8 275.8 84.6 276.2 84.9Z" fill="white"/>
</g>
<g id="Group_32">
<path id="Vector_51" d="M281.3 84L290.1 89.1C290.5 89.3 290.8 89.8 290.8 90.3C290.8 90.7 290.5 90.9 290.1 90.7L281.3 85.6C280.9 85.4 280.6 84.9 280.6 84.4C280.6 83.9 280.9 83.8 281.3 84Z" fill="#03ABAA"/>
<path id="Vector_52" opacity="0.8" d="M281.3 84L290.1 89.1C290.5 89.3 290.8 89.8 290.8 90.3C290.8 90.7 290.5 90.9 290.1 90.7L281.3 85.6C280.9 85.4 280.6 84.9 280.6 84.4C280.6 83.9 280.9 83.8 281.3 84Z" fill="white"/>
</g>
<g id="Group_33">
<path id="Vector_53" d="M281.3 87.8L290.1 92.9C290.5 93.1 290.8 93.6 290.8 94.1C290.8 94.6 290.5 94.7 290.1 94.5L281.3 89.4C280.9 89.2 280.6 88.7 280.6 88.2C280.6 87.8 280.9 87.6 281.3 87.8Z" fill="#03ABAA"/>
<path id="Vector_54" opacity="0.8" d="M281.3 87.8L290.1 92.9C290.5 93.1 290.8 93.6 290.8 94.1C290.8 94.6 290.5 94.7 290.1 94.5L281.3 89.4C280.9 89.2 280.6 88.7 280.6 88.2C280.6 87.8 280.9 87.6 281.3 87.8Z" fill="white"/>
</g>
<g id="Group_34">
<path id="Vector_55" d="M273.5 95L275.4 96.1C275.8 96.3 276.1 96.8 276.1 97.3C276.1 97.8 275.8 97.9 275.4 97.7L273.5 96.6C273.1 96.4 272.8 95.9 272.8 95.4C272.8 94.9 273.2 94.7 273.5 95Z" fill="#03ABAA"/>
<path id="Vector_56" opacity="0.6" d="M273.5 95L275.4 96.1C275.8 96.3 276.1 96.8 276.1 97.3C276.1 97.8 275.8 97.9 275.4 97.7L273.5 96.6C273.1 96.4 272.8 95.9 272.8 95.4C272.8 94.9 273.2 94.7 273.5 95Z" fill="white"/>
</g>
<g id="Group_35">
<path id="Vector_57" d="M278.7 97.9L290.2 104.5C290.6 104.7 290.9 105.2 290.9 105.7C290.9 106.1 290.6 106.3 290.2 106.1L278.7 99.5C278.3 99.3 278 98.8 278 98.3C278 97.8 278.3 97.7 278.7 97.9Z" fill="#03ABAA"/>
<path id="Vector_58" opacity="0.8" d="M278.7 97.9L290.2 104.5C290.6 104.7 290.9 105.2 290.9 105.7C290.9 106.1 290.6 106.3 290.2 106.1L278.7 99.5C278.3 99.3 278 98.8 278 98.3C278 97.8 278.3 97.7 278.7 97.9Z" fill="white"/>
</g>
<g id="Group_36">
<path id="Vector_59" d="M276.2 100.4L278.1 101.5C278.5 101.7 278.8 102.2 278.8 102.7C278.8 103.1 278.5 103.3 278.1 103.1L276.2 102C275.8 101.8 275.5 101.3 275.5 100.8C275.5 100.3 275.8 100.1 276.2 100.4Z" fill="#03ABAA"/>
<path id="Vector_60" opacity="0.6" d="M276.2 100.4L278.1 101.5C278.5 101.7 278.8 102.2 278.8 102.7C278.8 103.1 278.5 103.3 278.1 103.1L276.2 102C275.8 101.8 275.5 101.3 275.5 100.8C275.5 100.3 275.8 100.1 276.2 100.4Z" fill="white"/>
</g>
<g id="Group_37">
<path id="Vector_61" d="M276.2 104.2L278.1 105.3C278.5 105.5 278.8 106 278.8 106.5C278.8 106.9 278.5 107.1 278.1 106.9L276.2 105.8C275.8 105.6 275.5 105.1 275.5 104.6C275.5 104.1 275.8 104 276.2 104.2Z" fill="#03ABAA"/>
<path id="Vector_62" opacity="0.6" d="M276.2 104.2L278.1 105.3C278.5 105.5 278.8 106 278.8 106.5C278.8 106.9 278.5 107.1 278.1 106.9L276.2 105.8C275.8 105.6 275.5 105.1 275.5 104.6C275.5 104.1 275.8 104 276.2 104.2Z" fill="white"/>
</g>
<g id="Group_38">
<path id="Vector_63" d="M281.3 103.3L290.1 108.4C290.5 108.6 290.8 109.1 290.8 109.6C290.8 110 290.5 110.2 290.1 110L281.3 104.9C280.9 104.7 280.6 104.2 280.6 103.7C280.6 103.3 280.9 103.1 281.3 103.3Z" fill="#03ABAA"/>
<path id="Vector_64" opacity="0.8" d="M281.3 103.3L290.1 108.4C290.5 108.6 290.8 109.1 290.8 109.6C290.8 110 290.5 110.2 290.1 110L281.3 104.9C280.9 104.7 280.6 104.2 280.6 103.7C280.6 103.3 280.9 103.1 281.3 103.3Z" fill="white"/>
</g>
<g id="Group_39">
<path id="Vector_65" d="M281.3 107.2L290.1 112.3C290.5 112.5 290.8 113 290.8 113.5C290.8 114 290.5 114.1 290.1 113.9L281.3 108.8C280.9 108.6 280.6 108.1 280.6 107.6C280.6 107.1 280.9 107 281.3 107.2Z" fill="#03ABAA"/>
<path id="Vector_66" opacity="0.8" d="M281.3 107.2L290.1 112.3C290.5 112.5 290.8 113 290.8 113.5C290.8 114 290.5 114.1 290.1 113.9L281.3 108.8C280.9 108.6 280.6 108.1 280.6 107.6C280.6 107.1 280.9 107 281.3 107.2Z" fill="white"/>
</g>
<g id="Group_40">
<path id="Vector_67" d="M276.2 88.7L278.1 89.8C278.5 90 278.8 90.5 278.8 91C278.8 91.4 278.5 91.6 278.1 91.4L276.2 90.3C275.8 90.1 275.5 89.6 275.5 89.1C275.5 88.6 275.8 88.5 276.2 88.7Z" fill="#03ABAA"/>
<path id="Vector_68" opacity="0.6" d="M276.2 88.7L278.1 89.8C278.5 90 278.8 90.5 278.8 91C278.8 91.4 278.5 91.6 278.1 91.4L276.2 90.3C275.8 90.1 275.5 89.6 275.5 89.1C275.5 88.6 275.8 88.5 276.2 88.7Z" fill="white"/>
</g>
<g id="Group_41">
<path id="Vector_69" d="M273.5 91L275.4 92.1C275.8 92.3 276.1 92.8 276.1 93.3C276.1 93.8 275.8 93.9 275.4 93.7L273.5 92.6C273.1 92.4 272.8 91.9 272.8 91.4C272.8 91 273.2 90.8 273.5 91Z" fill="#03ABAA"/>
<path id="Vector_70" opacity="0.6" d="M273.5 91L275.4 92.1C275.8 92.3 276.1 92.8 276.1 93.3C276.1 93.8 275.8 93.9 275.4 93.7L273.5 92.6C273.1 92.4 272.8 91.9 272.8 91.4C272.8 91 273.2 90.8 273.5 91Z" fill="white"/>
</g>
<g id="Group_42">
<path id="Vector_71" d="M281.3 91.7L290.1 96.8C290.5 97 290.8 97.5 290.8 98C290.8 98.4 290.5 98.6 290.1 98.4L281.3 93.3C280.9 93.1 280.6 92.6 280.6 92.1C280.6 91.6 280.9 91.5 281.3 91.7Z" fill="#03ABAA"/>
<path id="Vector_72" opacity="0.8" d="M281.3 91.7L290.1 96.8C290.5 97 290.8 97.5 290.8 98C290.8 98.4 290.5 98.6 290.1 98.4L281.3 93.3C280.9 93.1 280.6 92.6 280.6 92.1C280.6 91.6 280.9 91.5 281.3 91.7Z" fill="white"/>
</g>
<g id="Group_43">
<path id="Vector_73" d="M278.7 94L290.2 100.6C290.6 100.8 290.9 101.3 290.9 101.8C290.9 102.3 290.6 102.4 290.2 102.2L278.7 95.6C278.3 95.4 278 94.9 278 94.4C278 94 278.3 93.8 278.7 94Z" fill="#03ABAA"/>
<path id="Vector_74" opacity="0.8" d="M278.7 94L290.2 100.6C290.6 100.8 290.9 101.3 290.9 101.8C290.9 102.3 290.6 102.4 290.2 102.2L278.7 95.6C278.3 95.4 278 94.9 278 94.4C278 94 278.3 93.8 278.7 94Z" fill="white"/>
</g>
<g id="Group_44">
<path id="Vector_75" d="M273.5 106.6L275.4 107.7C275.8 107.9 276.1 108.4 276.1 108.9C276.1 109.3 275.8 109.5 275.4 109.3L273.5 108.2C273.1 108 272.8 107.5 272.8 107C272.8 106.5 273.2 106.4 273.5 106.6Z" fill="#03ABAA"/>
<path id="Vector_76" opacity="0.6" d="M273.5 106.6L275.4 107.7C275.8 107.9 276.1 108.4 276.1 108.9C276.1 109.3 275.8 109.5 275.4 109.3L273.5 108.2C273.1 108 272.8 107.5 272.8 107C272.8 106.5 273.2 106.4 273.5 106.6Z" fill="white"/>
</g>
<g id="Group_45">
<path id="Vector_77" d="M278.7 109.6L290.2 116.2C290.6 116.4 290.9 116.9 290.9 117.4C290.9 117.8 290.6 118 290.2 117.8L278.7 111.2C278.3 111 278 110.5 278 110C278 109.5 278.3 109.4 278.7 109.6Z" fill="#03ABAA"/>
<path id="Vector_78" opacity="0.8" d="M278.7 109.6L290.2 116.2C290.6 116.4 290.9 116.9 290.9 117.4C290.9 117.8 290.6 118 290.2 117.8L278.7 111.2C278.3 111 278 110.5 278 110C278 109.5 278.3 109.4 278.7 109.6Z" fill="white"/>
</g>
</g>
</g>
</g>
</g>
<g id="Window_2_">
<g id="XMLID_265_">
<g id="XMLID_276_" opacity="0.8">
<path id="Vector_79" d="M385.2 125.4V201.8C385.2 202.8 385.9 204 386.8 204.5L430.7 229.8C430.9 229.9 431.1 230 431.2 230C431.3 230 431.3 230 431.4 230H431.5H431.6C431.6 230 431.7 230 431.7 229.9C431.7 229.9 431.8 229.9 431.8 229.8C431.9 229.7 432 229.5 432.1 229.4C432.2 229.2 432.3 228.9 432.3 228.6V152.6C432.3 151.6 431.6 150.4 430.7 149.9L386.8 124.6C386.4 124.4 386 124.3 385.7 124.5C385.7 124.5 385.6 124.5 385.6 124.6L385.5 124.7C385.5 124.7 385.5 124.7 385.5 124.8C385.5 124.8 385.5 124.9 385.4 124.9C385.4 125 385.3 125 385.3 125.1V125.2V125.3C385.2 125.3 385.2 125.4 385.2 125.4Z" fill="#455A64"/>
</g>
<g id="XMLID_271_">
<g id="XMLID_275_">
<path id="Vector_80" d="M385.7 124.4C386 124.3 386.4 124.3 386.8 124.5L430.7 149.8C431.6 150.3 432.3 151.5 432.3 152.5V157.7L434.8 156.2V151.1C434.8 150.1 434.1 148.9 433.2 148.4L389.3 123.1C388.8 122.8 388.4 122.8 388.1 123C387.8 123.2 386 124.2 385.7 124.4Z" fill="#03ABAA"/>
</g>
<path id="XMLID_274_" d="M385.2 125.4C385.2 124.4 385.9 124 386.8 124.5L430.7 149.8C431.6 150.3 432.3 151.5 432.3 152.5V157.7L385.3 130.6V125.4H385.2Z" fill="#03ABAA"/>
<g id="XMLID_273_" opacity="0.5">
<path id="Vector_81" d="M386.7 124.5L430.6 149.8C431 150.1 431.4 150.5 431.7 151L434.2 149.6C433.9 149.1 433.5 148.7 433.1 148.4L389.2 123.1C388.7 122.8 388.3 122.8 388 123C387.7 123.2 385.9 124.2 385.6 124.4C386 124.2 386.3 124.3 386.7 124.5Z" fill="white"/>
</g>
<path id="XMLID_272_" opacity="0.15" d="M434.7 156.3V151.1C434.7 150.6 434.5 150 434.2 149.5L431.7 150.9C432 151.4 432.2 152 432.2 152.5V157.7L434.7 156.3Z" fill="black"/>
</g>
<g id="XMLID_267_">
<path id="XMLID_270_" d="M429.9 151.9C430.4 152.2 430.8 153 430.8 153.8C430.8 154.6 430.4 154.9 429.9 154.7C429.4 154.4 429 153.6 429 152.8C429 152 429.4 151.6 429.9 151.9Z" fill="#455A64"/>
<path id="XMLID_269_" d="M426.7 150.1C427.2 150.4 427.6 151.2 427.6 152C427.6 152.8 427.2 153.1 426.7 152.9C426.2 152.7 425.8 151.8 425.8 151C425.8 150.2 426.2 149.8 426.7 150.1Z" fill="#455A64"/>
<path id="XMLID_268_" d="M423.4 148.2C423.9 148.5 424.3 149.3 424.3 150.1C424.3 150.9 423.9 151.2 423.4 151C422.9 150.7 422.5 149.9 422.5 149.1C422.5 148.3 422.9 147.9 423.4 148.2Z" fill="#455A64"/>
</g>
<g id="XMLID_266_" opacity="0.9">
<path id="Vector_82" d="M431.6 229.9C431.7 229.9 431.7 229.8 431.8 229.8C431.9 229.7 432.1 229.6 432.3 229.5C432.4 229.4 432.5 229.4 432.6 229.3C432.7 229.2 432.9 229.1 433 229.1C433.1 229 433.8 228.7 433.9 228.6C434 228.5 434.1 228.5 434.1 228.5C434.2 228.4 434.3 228.4 434.4 228.3C434.5 228.2 434.6 228.1 434.6 228C434.7 227.8 434.8 227.5 434.8 227.2V156.4L432.3 157.9V228.7C432.3 229 432.2 229.3 432.1 229.5C432 229.7 431.9 229.8 431.8 229.9C431.7 229.8 431.7 229.8 431.6 229.9C431.6 229.9 431.6 229.8 431.6 229.9Z" fill="#37474F"/>
</g>
</g>
<g id="XMLID_206_">
<g id="XMLID_252_">
<path id="XMLID_263_" d="M388.8 139.4C388.8 139.3 388.8 139.2 388.9 139.2L390 138.2C390 138.2 390 138.2 390.1 138.2L390.2 138.3C390.2 138.4 390.2 138.4 390.2 138.5V139.3C390.2 139.4 390.2 139.5 390.2 139.5C390.2 139.5 390.2 139.6 390.1 139.6L389.5 140.2L390.1 141.4C390.1 141.5 390.2 141.6 390.2 141.6C390.2 141.7 390.2 141.7 390.2 141.8V142.6C390.2 142.7 390.2 142.7 390.2 142.7H390.1C390.1 142.7 390.1 142.7 390 142.6L388.9 140.2C388.8 140.1 388.8 140 388.8 139.9V139.4Z" fill="#03ABAA"/>
<path id="XMLID_261_" d="M393 138.3C393 138.2 393 138.2 393.1 138.2C393.1 138.2 393.2 138.2 393.3 138.2L393.7 138.4L393.8 138.5C393.8 138.6 393.8 138.6 393.8 138.7C393.8 138.7 393.8 138.7 393.8 138.8L391.8 144.9C391.8 145 391.8 145 391.7 145C391.7 145 391.6 145 391.5 145L391.1 144.8L391 144.7C391 144.6 391 144.6 391 144.5C391 144.5 391 144.5 391 144.4L393 138.3Z" fill="#03ABAA"/>
<path id="XMLID_259_" d="M396 144.1C396 144.2 396 144.3 395.9 144.3L394.8 145.3C394.8 145.3 394.8 145.3 394.7 145.3L394.6 145.2C394.6 145.1 394.6 145.1 394.6 145V144.2C394.6 144.1 394.6 144 394.6 144C394.6 144 394.6 143.9 394.7 143.9L395.3 143.3L394.7 142.1C394.7 142 394.6 141.9 394.6 141.9C394.6 141.8 394.6 141.8 394.6 141.7V140.9C394.6 140.8 394.6 140.8 394.6 140.8H394.7C394.7 140.8 394.7 140.8 394.8 140.9L395.9 143.3C396 143.4 396 143.5 396 143.6V144.1Z" fill="#03ABAA"/>
<path id="XMLID_257_" d="M399.2 147.2L399.3 147.3C399.3 147.4 399.3 147.4 399.3 147.5V148.4C399.3 148.5 399.3 148.5 399.3 148.5H399.2L398.7 148.2L398.6 148.1C398.6 148 398.6 148 398.6 147.9V147C398.6 146.9 398.6 146.9 398.6 146.9H398.7L399.2 147.2Z" fill="#03ABAA"/>
<path id="XMLID_255_" d="M401 148.3L401.1 148.4C401.1 148.5 401.1 148.5 401.1 148.6V149.5C401.1 149.6 401.1 149.6 401.1 149.6H401L400.5 149.3L400.4 149.2C400.4 149.1 400.4 149.1 400.4 149V148.1C400.4 148 400.4 148 400.4 148H400.5L401 148.3Z" fill="#03ABAA"/>
<path id="XMLID_253_" d="M402.8 149.3L402.9 149.4C402.9 149.5 402.9 149.5 402.9 149.6V150.5C402.9 150.6 402.9 150.6 402.9 150.6H402.8L402.3 150.3L402.2 150.2C402.2 150.1 402.2 150.1 402.2 150V149.1C402.2 149 402.2 149 402.2 149H402.3L402.8 149.3Z" fill="#03ABAA"/>
</g>
<path id="XMLID_251_" d="M389.3 146.3L415.7 161.5C416 161.7 416.3 162.1 416.3 162.4C416.3 162.7 416 162.9 415.7 162.7L389.3 147.5C389 147.3 388.7 146.9 388.7 146.6C388.7 146.2 389 146.1 389.3 146.3Z" fill="#03ABAA"/>
<path id="XMLID_250_" d="M397.7 165.8L424.1 181C424.4 181.2 424.7 181.6 424.7 181.9C424.7 182.2 424.4 182.4 424.1 182.2L397.7 167C397.4 166.8 397.1 166.4 397.1 166.1C397.2 165.8 397.4 165.7 397.7 165.8Z" fill="#E6E6E6"/>
<path id="XMLID_249_" d="M397.7 175.6L410.3 182.9C410.6 183.1 410.9 183.5 410.9 183.8C410.9 184.1 410.6 184.3 410.3 184.1L397.7 176.8C397.4 176.6 397.1 176.2 397.1 175.9C397.2 175.5 397.4 175.4 397.7 175.6Z" fill="#E6E6E6"/>
<path id="XMLID_248_" d="M417.8 162.8L428.3 168.8C428.6 169 428.9 169.4 428.9 169.7C428.9 170 428.6 170.2 428.3 170L417.8 164C417.5 163.8 417.2 163.4 417.2 163.1C417.2 162.8 417.5 162.6 417.8 162.8Z" fill="#03ABAA"/>
<path id="XMLID_247_" d="M389.3 200L415.7 215.2C416 215.4 416.3 215.8 416.3 216.1C416.3 216.4 416 216.6 415.7 216.4L389.3 201.2C389 201 388.7 200.6 388.7 200.3C388.7 200 389 199.8 389.3 200Z" fill="#03ABAA"/>
<path id="XMLID_246_" d="M417.8 216.5L428.3 222.5C428.6 222.7 428.9 223.1 428.9 223.4C428.9 223.7 428.6 223.9 428.3 223.7L417.8 217.7C417.5 217.5 417.2 217.1 417.2 216.8C417.3 216.4 417.5 216.3 417.8 216.5Z" fill="#03ABAA"/>
<path id="XMLID_245_" d="M417.8 201.9L428.3 207.9C428.6 208.1 428.9 208.5 428.9 208.8C428.9 209.1 428.6 209.3 428.3 209.1L417.8 203.1C417.5 202.9 417.2 202.5 417.2 202.2C417.3 201.8 417.5 201.7 417.8 201.9Z" fill="#03ABAA"/>
<path id="XMLID_244_" d="M417.8 206.8L428.3 212.8C428.6 213 428.9 213.4 428.9 213.7C428.9 214 428.6 214.2 428.3 214L417.8 208C417.5 207.8 417.2 207.4 417.2 207.1C417.3 206.7 417.5 206.6 417.8 206.8Z" fill="#03ABAA"/>
<path id="XMLID_243_" d="M408.9 196.7L414.8 200.1C415.1 200.3 415.4 200.7 415.4 201C415.4 201.3 415.1 201.5 414.8 201.3L408.9 197.9C408.6 197.7 408.3 197.3 408.3 197C408.3 196.6 408.6 196.5 408.9 196.7Z" fill="#03ABAA"/>
<g id="XMLID_240_">
<path id="XMLID_242_" d="M389.3 151.2L404.7 160.1C405 160.3 405.3 160.7 405.3 161C405.3 161.3 405 161.5 404.7 161.3L389.3 152.4C389 152.2 388.7 151.8 388.7 151.5C388.7 151.1 389 151 389.3 151.2Z" fill="#03ABAA"/>
<path id="XMLID_241_" opacity="0.6" d="M389.3 151.2L404.7 160.1C405 160.3 405.3 160.7 405.3 161C405.3 161.3 405 161.5 404.7 161.3L389.3 152.4C389 152.2 388.7 151.8 388.7 151.5C388.7 151.1 389 151 389.3 151.2Z" fill="white"/>
</g>
<g id="XMLID_237_">
<path id="XMLID_239_" d="M389.3 156.1L394.5 159.1C394.8 159.3 395.1 159.7 395.1 160C395.1 160.3 394.8 160.5 394.5 160.3L389.3 157.3C389 157.1 388.7 156.7 388.7 156.4C388.7 156 389 155.9 389.3 156.1Z" fill="#03ABAA"/>
<path id="XMLID_238_" opacity="0.6" d="M389.3 156.1L394.5 159.1C394.8 159.3 395.1 159.7 395.1 160C395.1 160.3 394.8 160.5 394.5 160.3L389.3 157.3C389 157.1 388.7 156.7 388.7 156.4C388.7 156 389 155.9 389.3 156.1Z" fill="white"/>
</g>
<g id="XMLID_234_">
<path id="XMLID_236_" d="M389.3 160.9L394.5 163.9C394.8 164.1 395.1 164.5 395.1 164.8C395.1 165.1 394.8 165.3 394.5 165.1L389.3 162.1C389 161.9 388.7 161.5 388.7 161.2C388.7 160.9 389 160.8 389.3 160.9Z" fill="#03ABAA"/>
<path id="XMLID_235_" opacity="0.6" d="M389.3 160.9L394.5 163.9C394.8 164.1 395.1 164.5 395.1 164.8C395.1 165.1 394.8 165.3 394.5 165.1L389.3 162.1C389 161.9 388.7 161.5 388.7 161.2C388.7 160.9 389 160.8 389.3 160.9Z" fill="white"/>
</g>
<g id="XMLID_232_">
<path id="XMLID_233_" d="M389.3 165.8L394.5 168.8C394.8 169 395.1 169.4 395.1 169.7C395.1 170 394.8 170.2 394.5 170L389.3 167C389 166.8 388.7 166.4 388.7 166.1C388.7 165.8 389 165.7 389.3 165.8Z" fill="#03ABAA"/>
</g>
<path id="XMLID_231_" opacity="0.6" d="M389.3 165.8L394.5 168.8C394.8 169 395.1 169.4 395.1 169.7C395.1 170 394.8 170.2 394.5 170L389.3 167C389 166.8 388.7 166.4 388.7 166.1C388.7 165.8 389 165.7 389.3 165.8Z" fill="white"/>
<path id="XMLID_230_" opacity="0.6" d="M397.7 170.7L413.1 179.6C413.4 179.8 413.7 180.2 413.7 180.5C413.7 180.8 413.4 181 413.1 180.8L397.7 171.9C397.4 171.7 397.1 171.3 397.1 171C397.2 170.7 397.4 170.5 397.7 170.7Z" fill="#03ABAA"/>
<path id="XMLID_229_" opacity="0.6" d="M415.3 180.8L422 184.7C422.3 184.9 422.6 185.3 422.6 185.6C422.6 185.9 422.3 186.1 422 185.9L415.3 182C415 181.8 414.7 181.4 414.7 181.1C414.7 180.8 415 180.7 415.3 180.8Z" fill="#03ABAA"/>
<path id="XMLID_228_" opacity="0.6" d="M397.7 170.7L413.1 179.6C413.4 179.8 413.7 180.2 413.7 180.5C413.7 180.8 413.4 181 413.1 180.8L397.7 171.9C397.4 171.7 397.1 171.3 397.1 171C397.2 170.7 397.4 170.5 397.7 170.7Z" fill="white"/>
<path id="XMLID_227_" opacity="0.6" d="M415.3 180.8L422 184.7C422.3 184.9 422.6 185.3 422.6 185.6C422.6 185.9 422.3 186.1 422 185.9L415.3 182C415 181.8 414.7 181.4 414.7 181.1C414.7 180.8 415 180.7 415.3 180.8Z" fill="white"/>
<g id="XMLID_224_">
<path id="XMLID_226_" d="M389.3 170.7L394.5 173.7C394.8 173.9 395.1 174.3 395.1 174.6C395.1 174.9 394.8 175.1 394.5 174.9L389.3 171.9C389 171.7 388.7 171.3 388.7 171C388.7 170.7 389 170.5 389.3 170.7Z" fill="#03ABAA"/>
<path id="XMLID_225_" opacity="0.6" d="M389.3 170.7L394.5 173.7C394.8 173.9 395.1 174.3 395.1 174.6C395.1 174.9 394.8 175.1 394.5 174.9L389.3 171.9C389 171.7 388.7 171.3 388.7 171C388.7 170.7 389 170.5 389.3 170.7Z" fill="white"/>
</g>
<g id="XMLID_221_">
<path id="XMLID_223_" d="M406.8 161.3L413.5 165.2C413.8 165.4 414.1 165.8 414.1 166.1C414.1 166.4 413.8 166.6 413.5 166.4L406.8 162.5C406.5 162.3 406.2 161.9 406.2 161.6C406.3 161.3 406.5 161.1 406.8 161.3Z" fill="#03ABAA"/>
<path id="XMLID_222_" opacity="0.6" d="M406.8 161.3L413.5 165.2C413.8 165.4 414.1 165.8 414.1 166.1C414.1 166.4 413.8 166.6 413.5 166.4L406.8 162.5C406.5 162.3 406.2 161.9 406.2 161.6C406.3 161.3 406.5 161.1 406.8 161.3Z" fill="white"/>
</g>
<g id="XMLID_219_">
<path id="XMLID_220_" d="M404.1 184.1L419.5 193C419.8 193.2 420.1 193.6 420.1 193.9C420.1 194.2 419.8 194.4 419.5 194.2L404.1 185.3C403.8 185.1 403.5 184.7 403.5 184.4C403.5 184.1 403.8 184 404.1 184.1Z" fill="white"/>
</g>
<g id="XMLID_217_">
<path id="XMLID_218_" d="M413 194.2L428.4 203.1C428.7 203.3 429 203.7 429 204C429 204.3 428.7 204.5 428.4 204.3L413 195.4C412.7 195.2 412.4 194.8 412.4 194.5C412.4 194.1 412.6 194 413 194.2Z" fill="white"/>
</g>
<g id="XMLID_215_">
<path id="XMLID_216_" d="M421.6 194.3L428.3 198.2C428.6 198.4 428.9 198.8 428.9 199.1C428.9 199.4 428.6 199.6 428.3 199.4L421.6 195.5C421.3 195.3 421 194.9 421 194.6C421.1 194.2 421.3 194.1 421.6 194.3Z" fill="white"/>
</g>
<g id="XMLID_213_">
<path id="XMLID_214_" d="M421.6 213.6L428.3 217.5C428.6 217.7 428.9 218.1 428.9 218.4C428.9 218.7 428.6 218.9 428.3 218.7L421.6 214.8C421.3 214.6 421 214.2 421 213.9C421.1 213.6 421.3 213.4 421.6 213.6Z" fill="#E6E6E6"/>
</g>
<g id="XMLID_210_">
<path id="XMLID_212_" d="M397.7 160.9L413.1 169.8C413.4 170 413.7 170.4 413.7 170.7C413.7 171 413.4 171.2 413.1 171L397.7 162.1C397.4 161.9 397.1 161.5 397.1 161.2C397.2 160.9 397.4 160.8 397.7 160.9Z" fill="#03ABAA"/>
<path id="XMLID_211_" opacity="0.6" d="M397.7 160.9L413.1 169.8C413.4 170 413.7 170.4 413.7 170.7C413.7 171 413.4 171.2 413.1 171L397.7 162.1C397.4 161.9 397.1 161.5 397.1 161.2C397.2 160.9 397.4 160.8 397.7 160.9Z" fill="white"/>
</g>
<g id="XMLID_207_">
<path id="XMLID_209_" d="M415.3 171.1L422 175C422.3 175.2 422.6 175.6 422.6 175.9C422.6 176.2 422.3 176.4 422 176.2L415.3 172.3C415 172.1 414.7 171.7 414.7 171.4C414.7 171 415 170.9 415.3 171.1Z" fill="#03ABAA"/>
<path id="XMLID_208_" opacity="0.6" d="M415.3 171.1L422 175C422.3 175.2 422.6 175.6 422.6 175.9C422.6 176.2 422.3 176.4 422 176.2L415.3 172.3C415 172.1 414.7 171.7 414.7 171.4C414.7 171 415 170.9 415.3 171.1Z" fill="white"/>
</g>
</g>
</g>
<g id="Mouse_1_">
<path id="Vector_83" opacity="0.15" d="M310.5 227L319.9 232.4C322.9 234.1 327.5 233.9 330.3 231.9L345.8 220.5C348.6 218.5 348.4 215.5 345.4 213.7L340.7 211C337.7 209.3 332.8 209.1 329.8 210.7L310.6 221.1C307.6 222.7 307.5 225.3 310.5 227Z" fill="black"/>
<path id="Vector_84" d="M346.1 215.6L335.3 224L327.4 230.2C326.6 230.6 325.7 230.8 324.9 230.8C323.6 230.9 322.2 230.6 321.1 230L312.7 225.1C309.7 223.4 309 219.4 311 216.6C311.1 216.5 311.2 216.4 311.2 216.3C312.8 214.1 315.2 212.6 318 212L322.3 211.1C329.2 209.7 334.9 209 335.6 209.5L346.1 215.6Z" fill="#37474F"/>
<path id="Vector_85" d="M340.1 220.3L340.7 219.8L331.2 214.3L339.5 211.7C339.2 211.5 338.9 211.4 338.7 211.2L330.4 213.8L324.7 210.5C324.3 210.6 324 210.6 323.6 210.7L340.1 220.3Z" fill="#03ABAA"/>
<path id="Vector_86" d="M328.3 229.8C328.4 229.7 328.4 229.7 328.3 229.8C328.4 229.7 328.4 229.7 328.3 229.8L335.9 224.3L346.1 216.9V215.7V215.6C346.1 215.6 346.1 215.6 346 215.6C345.2 215.3 340.8 216.7 335.5 218.8L332 220.2C330.9 220.6 329.9 221.2 329 222C326.5 224.1 324.9 227.3 324.9 230.7V230.9C325.8 230.9 326.7 230.7 327.4 230.3L328.3 229.8Z" fill="#263238"/>
</g>
</g>
<g id="Pot_2_">
<g id="XMLID_139_">
<g id="XMLID_140_">
<g id="XMLID_141_">
<g id="XMLID_204_">
<path id="XMLID_205_" d="M347.1 380.6C336.7 369.9 330.6 326.3 340.7 317.8H392.2C402.3 326.3 396.2 369.9 385.9 380.6C385.8 380.7 385.7 380.8 385.6 380.9C385.5 381 385.4 381.1 385.2 381.3C384.9 381.6 384.6 381.9 384.3 382.1C384.2 382.2 384.1 382.2 384.1 382.3C383.8 382.5 383.6 382.7 383.3 382.9C382.9 383.2 382.4 383.5 382 383.8C373.5 388.8 359.6 388.8 351.1 383.8C350.6 383.5 350.2 383.2 349.7 382.9C349.4 382.7 349.2 382.5 349 382.3C348.9 382.2 348.8 382.1 348.7 382.1C348.4 381.8 348.1 381.6 347.8 381.3C347.7 381.2 347.5 381 347.4 380.9C347.2 380.8 347.1 380.7 347.1 380.6Z" fill="#03ABAA"/>
</g>
<g id="XMLID_202_" opacity="0.5">
<path id="XMLID_203_" d="M347.1 380.6C336.7 369.9 330.6 326.3 340.7 317.8H392.2C402.3 326.3 396.2 369.9 385.9 380.6C385.8 380.7 385.7 380.8 385.6 380.9C385.5 381 385.4 381.1 385.2 381.3C384.9 381.6 384.6 381.9 384.3 382.1C384.2 382.2 384.1 382.2 384.1 382.3C383.8 382.5 383.6 382.7 383.3 382.9C382.9 383.2 382.4 383.5 382 383.8C373.5 388.8 359.6 388.8 351.1 383.8C350.6 383.5 350.2 383.2 349.7 382.9C349.4 382.7 349.2 382.5 349 382.3C348.9 382.2 348.8 382.1 348.7 382.1C348.4 381.8 348.1 381.6 347.8 381.3C347.7 381.2 347.5 381 347.4 380.9C347.2 380.8 347.1 380.7 347.1 380.6Z" fill="white"/>
</g>
<g id="XMLID_200_">
<path id="XMLID_201_" d="M387.7 314.4C399.5 321.3 399.5 332.4 387.7 339.2C375.9 346.1 356.9 346.1 345.1 339.2C333.3 332.3 333.3 321.2 345.1 314.4C356.9 307.6 376 307.6 387.7 314.4Z" fill="#03ABAA"/>
</g>
<g id="XMLID_198_" opacity="0.7">
<path id="XMLID_199_" d="M387.7 314.4C399.5 321.3 399.5 332.4 387.7 339.2C375.9 346.1 356.9 346.1 345.1 339.2C333.3 332.3 333.3 321.2 345.1 314.4C356.9 307.6 376 307.6 387.7 314.4Z" fill="white"/>
</g>
<g id="XMLID_196_">
<path id="XMLID_197_" d="M382.1 317.7C390.7 322.7 390.7 330.9 382.1 335.9C373.5 340.9 359.5 340.9 350.8 335.9C342.2 330.9 342.2 322.7 350.8 317.7C359.5 312.7 373.5 312.7 382.1 317.7Z" fill="#03ABAA"/>
</g>
<g id="XMLID_194_" opacity="0.3">
<path id="XMLID_195_" d="M382.1 317.7C390.7 322.7 390.7 330.9 382.1 335.9C373.5 340.9 359.5 340.9 350.8 335.9C342.2 330.9 342.2 322.7 350.8 317.7C359.5 312.7 373.5 312.7 382.1 317.7Z" fill="black"/>
</g>
<g id="XMLID_142_">
<path id="XMLID_193_" d="M350.8 326.4C359.4 321.4 373.4 321.4 382.1 326.4C384.5 327.8 386.2 329.4 387.3 331.2C386.2 332.9 384.5 334.6 382.1 336C373.5 341 359.5 341 350.8 336C348.4 334.6 346.7 333 345.6 331.2C346.7 329.4 348.4 327.8 350.8 326.4Z" fill="#F5F5F5"/>
</g>
</g>
</g>
</g>
<g id="Plants_1_">
<g id="XMLID_104_">
<g id="XMLID_137_">
<path id="XMLID_138_" d="M362.2 304.4C361.6 303.2 361.1 302 360.9 300.6C360.3 297.5 361.1 293.9 363.6 291.9C364.6 291.1 365.9 290.6 366.4 289.4C366.6 288.7 366.5 288 366.4 287.3C365.9 284.6 365 281.9 365.8 279.2C366.5 276.8 368.5 274.9 370.8 273.8C373.1 272.7 375.6 272.3 378.1 271.9C379.4 271.7 380.8 271.5 381.9 270.8C383.3 270 383.8 268.6 384.7 267.3C385.7 265.9 387 264.7 388.2 263.5C390.8 261.2 394.1 259.2 397.7 259.4C405.3 259.7 405.1 266.3 402.9 271.2C400.7 276.1 400.1 277.7 404.9 282.9C409.6 288 409.6 294.4 404 297.9C398.4 301.5 394.7 301.9 396.9 308.8C398.9 314.9 400.1 320.1 394.5 326.6C390.9 330.8 385.9 333.8 379.6 333.6C377.8 333.5 373.9 332.7 372.3 331.9C370.6 331 371.7 329.7 371.2 328C370 324.4 368.7 320.7 367.5 317.1C366.5 314.3 365.8 311.2 364.5 308.5C363.8 307.2 363 305.8 362.2 304.4Z" fill="#03ABAA"/>
</g>
<g id="XMLID_135_" opacity="0.25">
<path id="XMLID_136_" d="M362.2 304.4C361.6 303.2 361.1 302 360.9 300.6C360.3 297.5 361.1 293.9 363.6 291.9C364.6 291.1 365.9 290.6 366.4 289.4C366.6 288.7 366.5 288 366.4 287.3C365.9 284.6 365 281.9 365.8 279.2C366.5 276.8 368.5 274.9 370.8 273.8C373.1 272.7 375.6 272.3 378.1 271.9C379.4 271.7 380.8 271.5 381.9 270.8C383.3 270 383.8 268.6 384.7 267.3C385.7 265.9 387 264.7 388.2 263.5C390.8 261.2 394.1 259.2 397.7 259.4C405.3 259.7 405.1 266.3 402.9 271.2C400.7 276.1 400.1 277.7 404.9 282.9C409.6 288 409.6 294.4 404 297.9C398.4 301.5 394.7 301.9 396.9 308.8C398.9 314.9 400.1 320.1 394.5 326.6C390.9 330.8 385.9 333.8 379.6 333.6C377.8 333.5 373.9 332.7 372.3 331.9C370.6 331 371.7 329.7 371.2 328C370 324.4 368.7 320.7 367.5 317.1C366.5 314.3 365.8 311.2 364.5 308.5C363.8 307.2 363 305.8 362.2 304.4Z" fill="black"/>
</g>
<g id="XMLID_133_">
<path id="XMLID_134_" d="M372.5 332.1C372.7 332 372.9 331.8 372.9 331.6C372.6 294.2 393.2 271.8 393.4 271.6C393.6 271.4 393.6 271 393.4 270.8C393.2 270.6 392.8 270.6 392.6 270.8C392.4 271 371.5 293.7 371.8 331.6C371.8 331.9 372.1 332.2 372.4 332.2C372.4 332.1 372.5 332.1 372.5 332.1Z" fill="white"/>
</g>
<g id="XMLID_131_">
<path id="XMLID_132_" d="M378.5 297.3C378.5 297.3 378.6 297.3 378.6 297.2C385.3 293 397.3 289.8 397.4 289.8C397.7 289.7 397.9 289.4 397.8 289.1C397.7 288.8 397.4 288.6 397.1 288.7C396.6 288.8 384.8 291.9 378 296.2C377.7 296.4 377.7 296.7 377.8 297C378 297.3 378.3 297.4 378.5 297.3Z" fill="white"/>
</g>
<g id="XMLID_129_">
<path id="XMLID_130_" d="M380.6 292.2C380.9 292.1 381.1 291.7 380.9 291.5C378.6 285.7 374.9 281.3 374.7 281.1C374.5 280.9 374.1 280.8 373.9 281C373.7 281.2 373.6 281.6 373.8 281.8C373.8 281.8 377.5 286.3 379.8 291.9C380 292.1 380.3 292.3 380.6 292.2Z" fill="white"/>
</g>
</g>
<g id="XMLID_99_">
<path id="XMLID_103_" d="M367.3 336.2C367.3 336.2 360.3 338.8 350.9 336.8C341.5 334.8 335.7 326 335.7 326C335.7 326 345.9 321.9 351.8 321.5C351.8 321.5 342.6 319.9 333.9 321.9C333.9 321.9 328.4 319.9 329.5 310.7C329.5 310.7 334.6 306.9 346.5 308.4C346.5 308.4 340.6 304.2 330.2 302.9C329.4 302.9 330.5 290.9 331.5 285.6C332.5 280.2 334.5 281.1 338.7 281.5C342.9 282 355.5 284.8 357.1 287.9C358.7 291 357.1 298.8 357.1 298.8C357.1 298.8 360.6 294.5 360.6 288.5C360.6 288.5 365.3 290.2 367.9 292.5C370.4 294.7 371.7 296.5 372.4 298.2C371.8 302.4 369.8 308.8 367 312.4C367 312.4 373.3 308.4 374.7 300.9C374.7 300.9 379.7 307.3 379.7 315.6C379.6 324.9 375.4 331.9 367.3 336.2Z" fill="#03ABAA"/>
<path id="XMLID_102_" opacity="0.1" d="M367.3 336.2C367.3 336.2 360.3 338.8 350.9 336.8C341.5 334.8 335.7 326 335.7 326C335.7 326 345.9 321.9 351.8 321.5C351.8 321.5 342.6 319.9 333.9 321.9C333.9 321.9 328.4 319.9 329.5 310.7C329.5 310.7 334.6 306.9 346.5 308.4C346.5 308.4 340.6 304.2 330.2 302.9C329.4 302.9 330.5 290.9 331.5 285.6C332.5 280.2 334.5 281.1 338.7 281.5C342.9 282 355.5 284.8 357.1 287.9C358.7 291 357.1 298.8 357.1 298.8C357.1 298.8 360.6 294.5 360.6 288.5C360.6 288.5 365.3 290.2 367.9 292.5C370.4 294.7 371.7 296.5 372.4 298.2C371.8 302.4 369.8 308.8 367 312.4C367 312.4 373.3 308.4 374.7 300.9C374.7 300.9 379.7 307.3 379.7 315.6C379.6 324.9 375.4 331.9 367.3 336.2Z" fill="black"/>
<g id="XMLID_100_">
<path id="XMLID_101_" d="M368.5 335.3C368.3 335.2 368.2 335.1 368.2 334.8C366.8 316.9 346.8 289.1 338 283.4C337.8 283.2 337.7 282.9 337.8 282.7C338 282.4 338.3 282.4 338.5 282.5C347.5 288.2 367.8 316.5 369.2 334.7C369.2 335 369 335.3 368.7 335.3C368.7 335.4 368.6 335.3 368.5 335.3Z" fill="white"/>
</g>
</g>
</g>
</g>
<g id="Character_2_">
<g id="XMLID_82_">
<g id="XMLID_86_">
<g id="XMLID_94_">
<path id="XMLID_95_" d="M187.9 324.2C187.9 324 184.7 312.4 184.7 312.4C184.7 312.4 185.7 313.5 192.4 311.7C195.8 310.8 199.7 308.6 199.7 308.6L201.6 317.1C203.4 320.4 209.3 318.9 215.8 318.1C216.9 318 218 317.8 219.1 317.6H219.2C222.7 317.4 226.2 319.5 222.6 322.5C219 325.5 213 326.6 207.4 327.6C200.7 328.8 189.1 330.8 187.9 324.2Z" fill="#FFA8A7"/>
</g>
<g id="XMLID_87_">
<path id="XMLID_93_" d="M234.4 323.1C234.4 323.1 235.1 324.4 234.9 326.7C234.8 328 231.6 332.4 225.9 335.1C220.3 337.8 213.3 338 210 338.9C206.7 339.8 203.7 341.7 199.9 342.7C195.9 343.7 192.2 344.1 188.4 341.6C187.7 340.5 186.9 338 187.1 337.7C187.8 337 234.4 323.1 234.4 323.1Z" fill="#263238"/>
<path id="XMLID_92_" d="M202.6 318.2C205.1 319.9 210.2 318.7 215.8 318.1C221 317.5 226.9 315.7 230.5 316.9C234.1 318.1 237 322.3 232.2 327.7C230.8 329.3 227.9 332 225.5 332.8C219.5 334.9 214.2 335.1 210.3 336.1C205.3 337.3 202.6 339.5 197.9 340.1C191.9 340.8 188.1 339.3 187.1 337.7C186.1 336.1 185.1 323.2 187.7 323.5C187.7 323.5 188.8 327.7 198.6 323.6C202.9 321.7 202.8 319.1 202.6 318.2Z" fill="#03ABAA"/>
<path id="XMLID_91_" opacity="0.4" d="M202.6 318.2C205.1 319.9 210.2 318.7 215.8 318.1C221 317.5 226.9 315.7 230.5 316.9C234.1 318.1 237 322.3 232.2 327.7C230.8 329.3 227.9 332 225.5 332.8C219.5 334.9 214.2 335.1 210.3 336.1C205.3 337.3 202.6 339.5 197.9 340.1C191.9 340.8 188.1 339.3 187.1 337.7C186.1 336.1 185.1 323.2 187.7 323.5C187.7 323.5 188.8 327.7 198.6 323.6C202.9 321.7 202.8 319.1 202.6 318.2Z" fill="black"/>
<path id="XMLID_90_" d="M219.2 325.1C219.2 325.1 218.6 319.7 214.6 318.2C214.6 318.2 213.3 317.6 212.4 318.5C212.4 318.5 216.1 319 217.4 325.4C217.4 325.4 217.6 325.8 218.4 325.7C218.7 325.7 219.3 325.6 219.2 325.1Z" fill="#FAFAFA"/>
<path id="XMLID_89_" d="M209 318.9C209 318.9 209 318.7 209.9 318.5C210.6 318.4 211 318.6 211 318.6C211 318.6 214 319.9 214.6 325.6C214.6 325.6 214.6 326.3 213.7 326.5C212.8 326.7 212.6 325.9 212.6 325.9C212.6 325.9 212 320 209 318.9Z" fill="#FAFAFA"/>
<path id="XMLID_88_" d="M205.8 319.1C205.8 319.1 206 318.8 206.7 318.8C207.6 318.8 207.8 319.1 207.8 319.1C207.8 319.1 209.9 321.3 210 326C210 326 210.1 326.8 209 326.9C207.9 327 208 326.1 208 326.1C208 326.1 207.5 320 205.8 319.1Z" fill="#FAFAFA"/>
</g>
</g>
<g id="XMLID_83_">
<g id="XMLID_84_">
<path id="XMLID_85_" d="M183.7 245.3C188.6 260 201.6 310.8 201.6 310.8C201.6 310.8 193.1 318.4 184 314.9L162.1 251.7L183.7 245.3Z" fill="#37474F"/>
</g>
</g>
</g>
<g id="XMLID_69_">
<g id="XMLID_72_">
<g id="XMLID_80_">
<path id="XMLID_81_" d="M221.5 340.5C220.5 339 216.7 328.7 216.7 328.7C216.7 328.7 220.6 330.9 227.4 329.3C230.8 328.5 234 324.8 234 324.8L236.9 334.7C238.6 338 244.1 336.9 250.6 336.3C251.7 336.2 252.8 336 253.9 335.9H254C257.5 335.8 261 338 257.3 340.9C253.6 343.8 247.6 344.8 242 345.6C235.3 346.7 225.3 346.1 221.5 340.5Z" fill="#FFA8A7"/>
</g>
<g id="XMLID_73_">
<path id="XMLID_79_" d="M271.9 340.2C271.9 340.2 272.6 341.7 272.3 344C272.1 345.4 268.6 350 262.5 352.7C256.4 355.4 248.9 355.4 245.3 356.4C241.8 357.3 238.5 359.3 234.3 360.2C230 361.1 226 361.5 222 358.7C221.3 357.5 220.5 354.8 220.7 354.5C221.5 353.8 271.9 340.2 271.9 340.2Z" fill="#263238"/>
<path id="XMLID_78_" d="M238 334C238.4 334.3 238.8 334.5 239.2 334.8C239.6 335 240.1 335 240.6 335.1C241.7 335.2 242.8 335.2 243.9 335.2C246.6 335.1 249.4 334.7 252.1 334.4C257.7 333.9 264.1 332.1 267.9 333.5C271.7 334.9 275.1 339.5 269.8 345.1C268.3 346.7 265.1 349.5 262.7 350.5C256.4 353.1 249.9 352.6 245.7 353.6C240.3 354.8 237.3 357.1 232.3 357.6C225.9 358.2 221.8 356.4 220.8 354.7C220.2 353.7 220.9 348.7 220.1 344.7C219.4 341.3 219.6 339 220.8 339.2C221 339.6 221.4 340 221.7 340.4C222.1 340.9 222.6 341.3 223.1 341.5C223.9 341.9 224.7 342.1 225.5 342.3C227 342.7 228.5 343 230 342.9C230.4 342.9 230.9 342.8 231.2 342.5C231.6 342.1 231.8 341.5 231.9 341C232 340.5 232.1 340 232.2 339.5C232.3 339.2 232.3 339 232.5 338.7C232.7 338.4 233 338.3 233.3 338.1C234.2 337.6 235.2 337.1 235.8 336.2C236.2 335.5 236.4 334.7 236.5 333.9C236.5 333.8 236.6 333.6 236.7 333.5C236.9 333.4 237.2 333.5 237.3 333.6C237.5 333.7 237.8 333.8 238 334Z" fill="#03ABAA"/>
<path id="XMLID_77_" opacity="0.4" d="M238 334C238.4 334.3 238.8 334.5 239.2 334.8C239.6 335 240.1 335 240.6 335.1C241.7 335.2 242.8 335.2 243.9 335.2C246.6 335.1 249.4 334.7 252.1 334.4C257.7 333.9 264.1 332.1 267.9 333.5C271.7 334.9 275.1 339.5 269.8 345.1C268.3 346.7 265.1 349.5 262.7 350.5C256.4 353.1 249.9 352.6 245.7 353.6C240.3 354.8 237.3 357.1 232.3 357.6C225.9 358.2 221.8 356.4 220.8 354.7C220.2 353.7 220.9 348.7 220.1 344.7C219.4 341.3 219.6 339 220.8 339.2C221 339.6 221.4 340 221.7 340.4C222.1 340.9 222.6 341.3 223.1 341.5C223.9 341.9 224.7 342.1 225.5 342.3C227 342.7 228.5 343 230 342.9C230.4 342.9 230.9 342.8 231.2 342.5C231.6 342.1 231.8 341.5 231.9 341C232 340.5 232.1 340 232.2 339.5C232.3 339.2 232.3 339 232.5 338.7C232.7 338.4 233 338.3 233.3 338.1C234.2 337.6 235.2 337.1 235.8 336.2C236.2 335.5 236.4 334.7 236.5 333.9C236.5 333.8 236.6 333.6 236.7 333.5C236.9 333.4 237.2 333.5 237.3 333.6C237.5 333.7 237.8 333.8 238 334Z" fill="black"/>
<path id="XMLID_76_" d="M255.6 342C255.6 342 255.1 336.1 250.9 334.5C250.9 334.5 249.5 333.8 248.5 334.8C248.5 334.8 252.5 335.5 253.6 342.4C253.6 342.4 253.8 342.9 254.7 342.7C254.9 342.5 255.6 342.4 255.6 342Z" fill="#FAFAFA"/>
<path id="XMLID_75_" d="M244.7 335.1C244.7 335.1 244.7 334.9 245.7 334.7C246.4 334.6 246.9 334.9 246.9 334.9C246.9 334.9 250.1 336.4 250.5 342.5C250.5 342.5 250.5 343.2 249.5 343.4C248.5 343.6 248.4 342.8 248.4 342.8C248.4 342.8 247.9 336.3 244.7 335.1Z" fill="#FAFAFA"/>
<path id="XMLID_74_" d="M241.3 335.1C241.3 335.1 241.5 334.7 242.2 334.8C243.2 334.8 243.4 335.2 243.4 335.2C243.4 335.2 245.6 337.6 245.5 342.7C245.5 342.7 245.6 343.6 244.4 343.6C243.2 343.7 243.4 342.7 243.4 342.7C243.4 342.7 243.1 336.2 241.3 335.1Z" fill="#FAFAFA"/>
</g>
</g>
<g id="XMLID_70_">
<path id="XMLID_71_" d="M218.2 262.7C222.1 274.6 231.9 308.4 236.4 325.7C236.4 325.7 228.3 333 217.9 332.3L192.8 267.2L202.8 261L218.2 262.7Z" fill="#455A64"/>
</g>
</g>
<g id="XMLID_47_">
<g id="XMLID_67_">
<path id="XMLID_68_" d="M135.6 425.2C136.5 425.2 137.2 424.5 137.2 423.6V318.9C137.2 318 136.5 317.3 135.6 317.3C134.7 317.3 134 318 134 318.9V423.5C134 424.4 134.7 425.2 135.6 425.2Z" fill="#455A64"/>
</g>
<g id="XMLID_65_">
<path id="XMLID_66_" d="M70.9 387.1C71.5 387.1 72.2 386.7 72.4 386.1L104.5 304.9C104.8 304.1 104.4 303.1 103.6 302.8C102.8 302.5 101.8 302.9 101.5 303.7L69.4 384.9C69.1 385.7 69.5 386.7 70.3 387C70.5 387 70.7 387.1 70.9 387.1Z" fill="#455A64"/>
</g>
<g id="XMLID_63_">
<path id="XMLID_64_" d="M74.7 377.3C75.1 377.3 75.6 377.1 75.9 376.8L135.6 313.6L195.2 376.5C195.8 377.2 196.8 377.2 197.5 376.6C198.2 376 198.2 375 197.6 374.3L136.8 310.2C136.5 309.9 136.1 309.7 135.6 309.7C135.2 309.7 134.7 309.9 134.4 310.2L73.5 374.6C72.9 375.3 72.9 376.3 73.6 376.9C73.9 377.2 74.3 377.3 74.7 377.3Z" fill="#455A64"/>
</g>
<g id="XMLID_61_">
<path id="XMLID_62_" d="M200.3 387.1C200.5 387.1 200.7 387.1 200.9 387C201.7 386.7 202.1 385.7 201.8 384.9L169.7 303.7C169.4 302.9 168.4 302.5 167.6 302.8C166.8 303.1 166.4 304.1 166.7 304.9L198.8 386.1C199 386.7 199.7 387.1 200.3 387.1Z" fill="#455A64"/>
</g>
<g id="XMLID_59_">
<path id="XMLID_60_" d="M201.1 283.1C202.3 276.5 196.9 271.4 186.9 264.6C176.8 257.8 164 251.1 157.8 248.2C149.4 244.3 140.8 244.7 130 250.2C115 257.9 70 285.2 70 285.2C70 285.2 137.3 323.2 150.3 321.5C163.3 319.8 195.6 298.7 198.2 291.3C200.7 284 201.1 283.1 201.1 283.1Z" fill="#03ABAA"/>
</g>
<g id="XMLID_57_" opacity="0.4">
<path id="XMLID_58_" d="M201.1 283.1C202.3 276.5 196.9 271.4 186.9 264.6C176.8 257.8 164 251.1 157.8 248.2C149.4 244.3 140.8 244.7 130 250.2C115 257.9 70 285.2 70 285.2C70 285.2 137.3 323.2 150.3 321.5C163.3 319.8 195.6 298.7 198.2 291.3C200.7 284 201.1 283.1 201.1 283.1Z" fill="black"/>
</g>
<g id="XMLID_55_">
<path id="XMLID_56_" d="M143.7 313.6C153.4 322.3 163.5 314.8 179.4 304.4C197.5 292.7 201 283.1 201 283.1C201 283.1 201 290.3 199.7 293.7C198.4 297.1 195.4 300.9 182.4 309.9C169.4 318.9 159.9 323.4 151.1 325.1L144.2 324.1" fill="#03ABAA"/>
</g>
<path id="XMLID_54_" opacity="0.5" d="M179.5 304.4C197.6 292.7 201.1 283.1 201.1 283.1C201.1 283.1 201.1 290.3 199.8 293.7C198.5 297.1 195.5 300.9 182.5 309.9C169.5 318.9 160 323.4 151.2 325.1L144.3 324.1L143.8 313.6C153.4 322.3 163.5 314.8 179.5 304.4Z" fill="black"/>
<g id="XMLID_52_">
<path id="XMLID_53_" d="M73.4 374.3L68.4 385.7C68.4 385.8 68.4 385.9 68.3 386C68.3 386.1 68.3 386.1 68.3 386.2C68.3 386.4 68.6 386.8 68.9 387C69.6 387.5 70.8 387.5 71.6 387.1C71.9 387 72.1 386.8 72.1 386.6V386.4L76.7 375.7L73.4 374.3Z" fill="#03ABAA"/>
</g>
<g id="XMLID_50_">
<path id="XMLID_51_" d="M198.1 374.8L202.3 386C202.3 386.1 202.3 386.2 202.3 386.3C202.3 386.4 202.3 386.4 202.3 386.5C202.3 386.7 202 387 201.7 387.2C201 387.6 199.8 387.6 199.1 387.2C198.8 387 198.7 386.9 198.6 386.7V386.5L194.7 376L198.1 374.8Z" fill="#03ABAA"/>
</g>
<g id="XMLID_48_">
<path id="XMLID_49_" d="M133.7 415.4V424.7C133.7 425 133.9 425.3 134.2 425.5C134.9 425.9 136.1 425.9 136.9 425.5C137.3 425.3 137.4 425 137.4 424.7V415.4C136.2 414.8 135 414.8 133.7 415.4Z" fill="#03ABAA"/>
</g>
</g>
<g id="Group_46">
<g id="Group_47">
<g id="XMLID_42_">
<g id="XMLID_45_">
<path id="XMLID_46_" d="M96.9 243.8C100.7 248.3 135.6 238.2 144.9 237C159.8 235 171.9 233.5 177 235.1C182.1 236.7 184.2 239.3 185.8 245.3C187.6 252.4 188.6 256.1 188.6 256.1C188.6 256.1 163.8 265.6 144.3 267.9C124.7 270.2 96.9 243.8 96.9 243.8Z" fill="#37474F"/>
</g>
<g id="XMLID_43_">
<path id="XMLID_44_" d="M90.4 250.4C86.5 265.1 83.1 282.3 92 291.7C98 298 128.3 314.4 147.8 308C167 301.6 206.9 272 210.9 269.1C214.9 266.1 218.5 264.1 218.2 262.8C212.8 245 205 243.6 190.4 246.8C172.6 250.7 133.5 266.7 133.5 266.7L90.4 250.4Z" fill="#455A64"/>
</g>
</g>
</g>
<g id="Group_48">
<g id="XMLID_39_">
<g id="XMLID_40_">
<path id="XMLID_41_" d="M178.9 155.6L165.4 170.8L143.7 160.5L158.9 139.5L178.9 155.6Z" fill="#FFA8A7"/>
</g>
</g>
<g id="XMLID_34_">
<g id="XMLID_37_">
<path id="XMLID_38_" d="M195.6 126.8C195.6 126.8 201.1 134.7 200.5 135.6C199.9 136.4 196 137.2 196 137.2L195.6 126.8Z" fill="#F28F8F"/>
</g>
<path id="Vector_87" d="M195.5 131.5C198.814 131.5 201.5 128.814 201.5 125.5C201.5 122.186 198.814 119.5 195.5 119.5C192.186 119.5 189.5 122.186 189.5 125.5C189.5 128.814 192.186 131.5 195.5 131.5Z" stroke="#263238" stroke-width="1.207" stroke-miterlimit="10"/>
<g id="XMLID_35_">
<path id="XMLID_36_" d="M180.3 104.8C191.1 106.8 194.3 111.5 195.7 128.5C197.2 146.3 195.5 152 193.2 154.4C191.7 156.1 182.9 156.6 178.4 155.4C172.8 154 160.2 149.8 154.1 141C146.9 130.6 144.8 116.3 152.1 110.3C162.3 101.9 175.9 104 180.3 104.8Z" fill="#FFA8A7"/>
</g>
<path id="Vector_88" d="M178.9 155.6C183.6 156.7 190.6 156 192.7 154.8C192.5 154.9 189.2 155.7 184.9 154.5C180.5 153.3 177.7 151.3 177.7 151.3L178.9 155.6Z" fill="#F28F8F"/>
</g>
<g id="XMLID_27_">
<g id="XMLID_31_">
<g id="XMLID_32_">
<path id="XMLID_33_" d="M197.7 111.8C194.7 113.9 191 114.8 187.3 115.3C187.6 118.2 186.7 121.1 185.8 123.8C185.2 125.7 182.9 131.7 180.5 128.4C178.7 126 177.1 123.8 173.7 124.4C168.1 125.4 167.5 132.5 171.2 136.8C174.8 141.1 178.1 139.3 178.1 139.3C178.1 139.3 178.6 147 174.6 152.4C174.6 152.4 168.5 156.1 160 153.3C154.6 151.5 146.9 144.8 144 139.5C136.2 125 136.1 111.1 145.6 106.8C146.5 99.8 151.9 96.6 158.1 95C166.7 92.8 175.6 98.2 183.9 94.7C185.6 94 187.3 92.9 189 92.2C190 91.8 191.2 91.6 192.1 92.2C192.9 92.7 193.2 93.7 193.4 94.6C193.8 96.3 193.9 98.1 193.1 99.6C194.4 99 195.6 98.4 197 98.2C198.4 98 199.9 98.2 200.9 99.1C201.9 99.9 202.4 101.2 202.5 102.5C202.9 106.2 200.7 109.7 197.7 111.8Z" fill="#263238"/>
</g>
</g>
<g id="XMLID_28_">
<g id="XMLID_29_">
<path id="XMLID_30_" d="M145.6 109.2L139.1 105.6C140.1 103.8 142.4 103.2 144.2 104.2C145.9 105.2 146.6 107.4 145.6 109.2Z" fill="#263238"/>
</g>
</g>
</g>
<path id="Vector_89" d="M180.5 128.5L201.4 124.6" stroke="#263238" stroke-width="1.027" stroke-miterlimit="10"/>
</g>
<path id="Vector_90" d="M224.2 164.5C223.6 163.6 222.4 163.4 221.4 163C219.5 162.3 218 160.8 216.1 160C214 159.1 211.6 159 209.4 159.6C208.6 159.8 207.9 160 207.2 160.3C205.8 160.8 204.5 161.6 203.2 162.3C197.9 165.4 193.9 172.5 188.7 175.8C186.8 177 184.9 178.1 183.2 179.2L195.6 190.3C198.2 188.2 200.6 186.3 201.7 185.6C204.8 183.8 207.9 183.7 211.3 183.2C213.7 182.9 216 182.1 218.3 181.4C219.1 181.2 220 180.8 220.4 180.1C220.8 179.1 220.1 177.9 219.1 177.5C218 177.1 216.6 177.2 215.5 177C214.6 176.9 212.2 177.4 211.7 176.5C211.4 176 211.8 175.4 212.1 175C214.3 172.3 217 169.4 220.4 168.6C221.5 168.3 222.6 168.1 223.4 167.4C224.3 166.8 224.8 165.5 224.2 164.5Z" fill="#FFA8A7"/>
<path id="Vector_91" d="M149.8 152.1C136.6 144.9 124.6 149.5 120.2 158.8C116.3 167.2 108 199.6 108 199.6C112.1 207.1 149.8 152.1 149.8 152.1Z" fill="#03ABAA"/>
<g id="Group_49">
<path id="Vector_92" d="M147.9 154.7L149.9 152.1C135 145 121.6 154.3 109.9 172.6C97.2 192.3 90.6 220.6 90.5 250.5C90.5 250.5 93 263.9 110 270.6C128 277.7 153.1 274.7 160.9 256C160.9 256 161.1 237.4 166.7 228.2C170.4 222.3 178.9 209.1 185.3 199.6C190.8 191.4 195.1 172.6 183.6 165.8C180.2 163.8 178.8 163.2 174.2 161C163.6 164.6 146.5 158.9 147.9 154.7Z" fill="#03ABAA"/>
<path id="Vector_93" opacity="0.75" d="M147.9 154.8L149.8 152.1C134.9 145 121.5 154.3 109.8 172.6C97.1 192.3 90.5 220.6 90.4 250.5C90.4 250.5 92.9 263.9 109.9 270.6C127.9 277.7 153 274.7 160.8 256C160.8 256 161 237.4 166.6 228.2C170.3 222.3 178.8 209.1 185.2 199.6C190.7 191.4 195 172.6 183.5 165.8C180.1 163.8 178.7 163.2 174.1 161C163.6 164.6 146.5 159 147.9 154.8Z" fill="white"/>
<path id="Vector_94" opacity="0.1" d="M190.1 187.8C190.9 184.2 191.1 180.4 190.6 176.9C187.9 183.2 184.1 189.1 179.3 194.1C173.2 200.5 165.7 205.5 160.1 212.3C154.1 219.5 149.9 228.2 144.9 236C142.9 239.1 140.2 245.2 136.4 245.5C131.9 245.8 127.5 240.3 125 236.4C121.1 230.3 117.7 222.7 112.8 217.4C108.5 212.7 101.9 206.7 96 209.5C95.6 211.1 95.2 212.6 94.8 214.2C94.4 215.8 94 217.4 93.7 219C93.7 219.1 93.7 219.1 93.7 219.2C93.4 220.8 93.1 222.5 92.8 224.1C92.8 224.2 92.8 224.3 92.8 224.4C92.5 226 92.3 227.6 92 229.3C91 236.3 90.5 243.5 90.5 250.7C90.5 250.7 93 264.1 110 270.8C128 277.9 153.1 274.9 160.9 256.2C160.9 256.2 161.1 237.6 166.7 228.4C167.3 227.5 168 226.4 168.7 225.1C168.7 225 168.8 225 168.8 224.9C169.4 223.9 170.2 222.8 170.9 221.6C170.9 221.5 171 221.5 171 221.4C171 221.4 171 221.3 171.1 221.3C172.7 218.8 174.5 216 176.4 213.1C176.7 212.7 177 212.2 177.3 211.8C179.1 209 181 206.2 182.7 203.6C183.3 202.7 183.9 201.8 184.4 201C184.6 200.6 184.9 200.3 185.1 199.9C185.3 199.6 185.5 199.3 185.7 199C185.8 198.9 185.8 198.8 185.9 198.7C186 198.5 186.2 198.2 186.3 198C186.4 197.9 186.4 197.8 186.5 197.7C186.7 197.4 186.8 197.1 186.9 196.8C186.9 196.7 187 196.6 187 196.6C187.2 196.2 187.4 195.8 187.6 195.4C187.6 195.4 187.6 195.4 187.6 195.3C187.8 194.9 187.9 194.5 188.1 194.2C188.1 194.1 188.2 194 188.2 193.9C188.3 193.5 188.5 193.2 188.6 192.8V192.7V192.6C188.8 191.9 189.1 191.2 189.3 190.5C189.7 189.3 189.9 188.6 190.1 187.8C190.1 187.8 190 187.9 190.1 187.8Z" fill="#03ABAA"/>
</g>
<g id="Group_50">
<path id="Vector_95" d="M259.3 205.9C258.4 207.1 257.3 208.1 256.2 209.1C251.6 213.2 246.3 215.2 240.1 219.2C235.1 222.5 227.4 227.2 220.9 231.2C213.6 235.8 204.8 239.5 199.9 240.9C193.9 242.7 190.5 242.8 186.9 233.1C185.1 228.3 183.8 223.5 182.2 218.6C179.9 211.4 177.7 204.2 175.6 197C175.6 197 167.6 177.2 185.6 167.2C193.4 171.7 196.4 173.5 198.9 182.9C201.8 194.1 206.6 216.3 206.6 216.3C213 214.1 219.2 211.4 225.2 208.4C227.5 207.3 230.3 206.5 231.9 204.4C233 203 233.9 201.5 234.8 199.9C235.6 198.5 236.1 197 237 195.7C238.6 193.2 240.8 191.2 242.9 189.2C243.3 188.8 243.8 188.4 244.3 188.4C244.9 188.4 245.5 188.8 245.8 189.3C246.5 190.5 245.8 191.6 245.5 192.8C245.1 194.1 244.7 195.5 244.3 196.8C248.9 194.1 252.8 190.5 255.8 186C256.1 185.6 256.3 185.2 256.7 184.9C257.1 184.6 257.6 184.4 258 184.4C259.2 184.5 260.4 186.5 260.5 187.6C260.6 188.7 260.3 189.9 260.6 191C260.9 192 261.6 192.9 261.9 193.9C262.2 194.9 262.5 196.1 262.6 197.1C262.9 199.5 262 201.8 260.8 203.9C260.2 204.7 259.7 205.3 259.3 205.9Z" fill="#FFA8A7"/>
<path id="Vector_96" d="M184.4 166.5C191.3 169.3 196.2 172.4 199.3 182.9C202.4 193.4 205.8 210.1 205.8 210.1C205.8 210.1 205.9 213.6 197.5 218.5C189.2 223.4 181.4 220.7 181.4 220.7L175.1 200.5C175.2 200.5 164.1 173.5 184.4 166.5Z" fill="#03ABAA"/>
</g>
</g>
<g id="XMLID_22_">
<path id="XMLID_26_" d="M144.2 324C138.7 323.7 134.4 319.7 121.3 314.2C97.1 304.1 79 296.1 72.1 283.4C65.2 270.7 60.3 234.2 62 218.4C62.2 216.3 62.6 214.6 63.2 213.2L61.5 213L65.9 209.3C70.4 205.6 77.8 208.9 83.3 211.9C99.1 220.5 111.5 228.9 121.3 259.1C128.7 281.8 133.5 302.5 143.7 313.6" fill="#03ABAA"/>
<path id="XMLID_25_" opacity="0.3" d="M63.3 213.2L61.6 213L66 209.3C70.5 205.6 77.9 208.9 83.4 211.9C99.2 220.5 111.6 228.9 121.4 259.1C128.8 281.8 133.6 302.5 143.8 313.6L144.3 324.1C138.8 323.8 134.5 319.8 121.4 314.3C97.2 304.2 79.1 296.2 72.2 283.5C65.3 270.8 60.4 234.3 62.1 218.5C62.3 216.4 62.7 214.7 63.3 213.2Z" fill="black"/>
<g id="XMLID_23_">
<path id="XMLID_24_" d="M78.8 215.8C94.6 224.4 107 232.8 116.8 263C126.6 293.2 131.9 319.9 151.2 325.1C151.2 325.1 142.5 328.6 115.8 317.3C107.3 313.7 97 307.2 90.2 303.4C76.9 296 68.9 289.8 67.6 287.6C60.6 275 55.8 238.4 57.5 222.6C59.2 206.6 70.9 211.4 78.8 215.8Z" fill="#03ABAA"/>
</g>
</g>
</g>
<g id="Speech_Bubble_8_">
<g id="XMLID_10_">
<path id="XMLID_15_" d="M167.7 81.8L163.3 73.6L166.8 63.5V57.3L156 63.5V69.7L160.6 77.7C160.7 77.8 160.8 77.9 160.9 78L167.7 81.8Z" fill="#03ABAA"/>
<path id="XMLID_14_" opacity="0.2" d="M167.7 81.8L163.3 73.6L166.8 63.5V57.3L156 63.5V69.7L160.6 77.7C160.7 77.8 160.8 77.9 160.9 78L167.7 81.8Z" fill="black"/>
<path id="XMLID_13_" d="M193.4 7.9C193.4 5.8 192 3.3 190.2 2.3L187.6 0.800003C185.8 -0.199997 182.9 -0.199997 181.1 0.800003L140.8 24.1C139 25.1 137.6 27.6 137.6 29.7V74C137.6 76.1 139 78.6 140.8 79.6L143.4 81.1C145.2 82.1 148.1 82.1 149.9 81.1L162.9 73.6L167.5 81.6C167.8 82.1 168.6 82 168.7 81.5L173.6 67.4L190.2 57.8C192 56.8 193.4 54.3 193.4 52.2V7.9Z" fill="#03ABAA"/>
<path id="XMLID_12_" opacity="0.2" d="M137.6 74C137.6 76.1 139 78.6 140.8 79.6L143.4 81.1C145 82 147.5 82.1 149.3 81.4C147.8 82 146.6 81.1 146.6 79.3V35C146.6 34 147 32.8 147.5 31.8L138.4 26.6C137.8 27.6 137.5 28.7 137.5 29.8V74H137.6Z" fill="black"/>
<path id="XMLID_11_" opacity="0.5" d="M193.3 7.00001C192.9 5.60001 191.7 5.20001 190.2 6.10001L149.9 29.4C149 29.9 148.2 30.8 147.6 31.8L138.5 26.6C139.1 25.6 139.9 24.7 140.8 24.2L181.1 0.900009C182.9 -0.0999908 185.8 -0.0999908 187.6 0.900009L190.2 2.40001C191.7 3.20001 193 5.10001 193.3 7.00001Z" fill="white"/>
</g>
<g id="_x3C__x2F__x3E__1_">
<path id="Vector_97" d="M152.6 52.3C152.6 51.9 152.7 51.6 152.8 51.4C152.9 51.1 153.1 50.9 153.3 50.5L162.1 36.3C162.2 36.2 162.2 36.2 162.2 36.1L162.3 36C162.4 35.9 162.5 35.9 162.6 36C162.7 36.1 162.7 36.2 162.7 36.4V42C162.7 42.4 162.6 42.8 162.4 43.1C162.2 43.4 162.1 43.7 162 43.8L157.5 50.7L162 52.8C162.1 52.8 162.3 52.9 162.4 53C162.6 53.1 162.7 53.4 162.7 53.8V57.7C162.7 57.9 162.7 58.1 162.6 58.3C162.5 58.5 162.4 58.6 162.3 58.7H162.2H162.1L153.3 54.7C153.1 54.6 152.9 54.5 152.8 54.4C152.7 54.3 152.6 54 152.6 53.7V52.3Z" fill="white"/>
<path id="Vector_98" d="M171.7 30.4C171.8 30.1 171.9 29.8 172 29.5C172.1 29.2 172.4 29 172.6 28.8L175.5 27.1C175.6 27 175.7 27 175.8 27.1C175.9 27.2 175.9 27.3 175.9 27.5C175.9 27.6 175.9 27.7 175.9 27.8L168.5 59.3C168.4 59.6 168.3 59.8 168.2 60.2C168.1 60.5 167.8 60.7 167.5 60.9L164.6 62.6C164.5 62.7 164.4 62.7 164.3 62.6C164.2 62.5 164.2 62.4 164.2 62.2C164.2 62.1 164.2 62 164.2 61.9L171.7 30.4Z" fill="white"/>
<path id="Vector_99" d="M187.8 35.5C187.8 35.9 187.7 36.2 187.6 36.4C187.5 36.7 187.3 36.9 187.1 37.3L178.3 51.5C178.2 51.6 178.2 51.6 178.2 51.7L178.1 51.8C178 51.9 177.9 51.9 177.8 51.8C177.7 51.7 177.7 51.6 177.7 51.4V45.9C177.7 45.5 177.8 45.1 178 44.8C178.2 44.5 178.3 44.3 178.4 44.1L182.2 38.2L178.4 36.7C178.3 36.7 178.1 36.6 178 36.5C177.8 36.4 177.7 36.1 177.7 35.7V30C177.7 29.8 177.7 29.6 177.8 29.4C177.9 29.2 178 29.1 178.1 29H178.2H178.3L187.1 33C187.3 33.1 187.5 33.2 187.6 33.3C187.7 33.4 187.8 33.7 187.8 34V35.5Z" fill="white"/>
</g>
</g>
<g id="Text_Box_5_">
<g id="_x7B__x7D__6_">
<g id="Speech_Bubble_4_">
<g id="Speach_Bubble_6_">
<g id="XMLID_7_">
<path id="XMLID_9_" d="M70.9 2.3L17 33.4C16.3 33.8 15.7 34.9 15.7 35.7V65.8C15.7 66.7 16.3 67.7 17 68.1L22.3 71.1C23 71.5 24.2 71.5 25 71.1L78.9 40.1C79.6 39.7 80.2 38.6 80.2 37.8V7.6C80.2 6.7 79.6 5.7 78.9 5.3L73.6 2.3C72.8 1.9 71.6 1.9 70.9 2.3Z" fill="#263238"/>
<path id="XMLID_8_" d="M80.2 7.4C80.1 6.7 79.5 6.5 78.9 6.9L25 37.9C24.6 38.1 24.3 38.5 24.1 38.9L16.1 34.3C16.3 33.9 16.7 33.6 17 33.3L70.9 2.3C71.6 1.9 72.8 1.9 73.6 2.3L78.9 5.3C79.5 5.7 80.1 6.6 80.2 7.4Z" fill="#455A64"/>
<g id="Group_51">
<path id="Vector_100" d="M78.9 6.9L25 37.9C24.3 38.3 23.7 39.4 23.7 40.2V70.3C23.7 71.2 24.3 71.5 25 71.1L78.9 40.1C79.6 39.7 80.2 38.6 80.2 37.8V7.6C80.2 6.8 79.6 6.4 78.9 6.9Z" fill="#37474F"/>
</g>
</g>
</g>
</g>
</g>
<g id="Group_52">
<path id="Vector_101" d="M37 45.6C37 45.8 37 46.2 37 46.6C37 47 37 47.4 37 47.9C37 48.3 37 48.8 37 49.2C37 49.6 37 49.9 37 50.2C37 50.6 37.1 51 37.2 51.3C37.3 51.6 37.4 51.9 37.6 52.1C37.8 52.3 38 52.4 38.3 52.4C38.6 52.4 38.9 52.3 39.3 52.1C39.7 51.9 40 51.6 40.3 51.3C40.6 51 40.8 50.7 40.9 50.4C41.1 50.1 41.2 49.8 41.3 49.5C41.4 49.2 41.5 48.9 41.5 48.7C41.6 48.4 41.6 48.1 41.7 48C41.8 47.8 41.9 47.7 42.1 47.6L44.4 46.3C44.5 46.2 44.6 46.2 44.7 46.3C44.8 46.4 44.8 46.5 44.8 46.6C44.8 47.5 44.6 48.4 44.4 49.4C44.1 50.4 43.7 51.3 43.3 52.1C42.8 53 42.3 53.8 41.6 54.5C41 55.2 40.2 55.8 39.5 56.2C38.7 56.7 37.9 56.9 37.3 56.9C36.7 56.9 36.1 56.7 35.6 56.3C35.1 55.9 34.8 55.4 34.5 54.6C34 53.8 33.8 53 33.8 52C33.8 51.3 33.8 50.5 33.8 49.7C33.8 48.9 33.8 48.1 33.8 47.3C33.8 46.3 34 45.3 34.2 44.3C34.5 43.3 34.8 42.3 35.3 41.4C35.8 40.5 36.3 39.6 37 38.9C37.7 38.1 38.4 37.5 39.2 37C40 36.6 40.7 36.3 41.3 36.3C41.9 36.3 42.5 36.4 43 36.7C43.5 37 43.9 37.5 44.1 38.1C44.4 38.7 44.5 39.5 44.5 40.4C44.5 40.6 44.5 40.7 44.4 40.9C44.3 41.1 44.2 41.2 44.1 41.2L41.8 42.5C41.6 42.6 41.5 42.6 41.4 42.6C41.3 42.5 41.3 42.4 41.2 42.1C41.2 41.9 41.1 41.7 41 41.5C40.9 41.3 40.8 41.1 40.6 41C40.6 41 40.3 41 40.1 41C39.8 41 39.5 41.1 39.1 41.3C38.7 41.5 38.4 41.8 38.1 42.1C37.8 42.4 37.6 42.8 37.4 43.2C37.2 43.6 37.1 44 37 44.4C37 44.8 37 45.2 37 45.6Z" fill="#F0F0F0"/>
<path id="Vector_102" d="M51.6 29.9C52.3 29.5 53 29.3 53.6 29.2C54.2 29.2 54.7 29.3 55.2 29.5C55.6 29.8 56 30.1 56.2 30.6C56.5 31.1 56.6 31.6 56.6 32.1C56.6 32.3 56.6 32.4 56.5 32.6C56.4 32.8 56.3 32.9 56.3 32.9L54 34.3C53.8 34.4 53.7 34.4 53.6 34.4C53.5 34.4 53.4 34.3 53.3 34.3C53.3 34.3 53.2 34.2 53.1 34.1C53 34 52.9 34 52.8 33.9C52.7 33.8 52.5 33.8 52.3 33.9C52.1 33.9 51.8 34 51.5 34.2C51.3 34.3 51.1 34.5 50.9 34.6C50.7 34.8 50.5 34.9 50.4 35.1C50.2 35.3 50.1 35.5 50 35.7C49.9 35.9 49.9 36.2 49.9 36.4C49.9 36.7 50 36.9 50.1 37C50.2 37.1 50.4 37.2 50.7 37.2C51 37.2 51.3 37.2 51.7 37C52.1 36.9 52.7 36.8 53.3 36.6C53.9 36.4 54.5 36.4 55 36.4C55.5 36.4 55.9 36.6 56.2 36.8C56.5 37.1 56.7 37.5 56.9 38C57.1 38.5 57.1 39.2 57.1 40C57.1 40.9 57 41.8 56.7 42.6C56.4 43.5 56.1 44.3 55.6 45.1C55.1 45.9 54.6 46.6 53.9 47.2C53.3 47.8 52.5 48.4 51.8 48.8C51 49.3 50.3 49.5 49.7 49.6C49.1 49.7 48.5 49.6 48 49.3C47.5 49 47.2 48.7 46.9 48.2C46.6 47.7 46.5 47.1 46.5 46.5C46.5 46.3 46.5 46.2 46.6 46C46.7 45.8 46.8 45.7 46.9 45.7L49.2 44.4C49.4 44.3 49.5 44.3 49.6 44.3C49.7 44.3 49.8 44.3 49.9 44.4C49.9 44.4 50 44.5 50.1 44.6C50.2 44.7 50.3 44.8 50.5 44.9C50.7 45 50.8 45 51.1 45C51.3 45 51.6 44.9 52 44.7C52.6 44.3 53.1 44 53.5 43.5C53.9 43.1 54.1 42.6 54.1 42C54.1 41.7 54 41.6 53.9 41.5C53.8 41.4 53.5 41.4 53.2 41.4C52.9 41.4 52.5 41.5 52.1 41.6C51.6 41.7 51.1 41.9 50.5 42C49.3 42.3 48.5 42.1 47.9 41.5C47.4 40.9 47.1 39.8 47.1 38.3C47.1 37.5 47.2 36.8 47.4 35.9C47.6 35.1 47.9 34.3 48.4 33.5C48.8 32.7 49.3 32 49.9 31.4C50.2 30.8 50.9 30.3 51.6 29.9Z" fill="#F0F0F0"/>
<path id="Vector_103" d="M64.1 22.7C64.8 22.3 65.5 22.1 66.1 22C66.7 22 67.2 22.1 67.7 22.3C68.1 22.6 68.5 22.9 68.7 23.4C69 23.9 69.1 24.4 69.1 24.9C69.1 25.1 69.1 25.2 69 25.4C68.9 25.6 68.8 25.7 68.7 25.7L66.4 27C66.2 27.1 66.1 27.1 66 27.1C65.9 27.1 65.8 27 65.7 27C65.7 27 65.6 26.9 65.5 26.8C65.4 26.7 65.3 26.7 65.2 26.6C65.1 26.5 64.9 26.5 64.7 26.6C64.5 26.6 64.2 26.7 63.9 26.9C63.7 27 63.5 27.2 63.3 27.3C63.1 27.5 62.9 27.6 62.8 27.8C62.6 28 62.5 28.2 62.4 28.4C62.3 28.6 62.3 28.9 62.3 29.1C62.3 29.4 62.4 29.6 62.5 29.7C62.6 29.8 62.8 29.9 63 29.9C63.3 29.9 63.6 29.9 64 29.7C64.4 29.6 65 29.5 65.6 29.3C66.2 29.1 66.8 29.1 67.3 29.1C67.8 29.1 68.2 29.3 68.5 29.5C68.8 29.8 69.1 30.2 69.2 30.7C69.4 31.2 69.4 31.9 69.4 32.7C69.4 33.6 69.3 34.5 69 35.3C68.7 36.2 68.4 37 67.9 37.8C67.4 38.6 66.9 39.3 66.2 39.9C65.6 40.5 64.8 41.1 64.1 41.5C63.3 42 62.6 42.2 62 42.3C61.4 42.4 60.8 42.3 60.3 42C59.8 41.7 59.5 41.4 59.2 40.9C58.9 40.4 58.8 39.8 58.8 39.2C58.8 39 58.8 38.9 58.9 38.7C59 38.5 59.1 38.4 59.1 38.4L61.4 37.1C61.6 37 61.7 37 61.8 37C61.9 37 62 37 62.1 37.1C62.1 37.1 62.2 37.2 62.3 37.3C62.4 37.4 62.5 37.5 62.7 37.6C62.9 37.7 63 37.7 63.3 37.7C63.5 37.7 63.8 37.6 64.2 37.4C64.8 37 65.3 36.7 65.7 36.2C66.1 35.8 66.3 35.3 66.3 34.7C66.3 34.4 66.2 34.3 66.1 34.2C66 34.1 65.7 34.1 65.4 34.1C65.1 34.1 64.7 34.2 64.3 34.3C63.8 34.4 63.3 34.6 62.7 34.7C61.5 35 60.7 34.8 60.1 34.2C59.6 33.6 59.3 32.5 59.3 31C59.3 30.2 59.4 29.5 59.6 28.6C59.8 27.8 60.1 27 60.6 26.2C61 25.4 61.5 24.7 62.1 24.1C62.6 23.6 63.3 23.1 64.1 22.7Z" fill="#F0F0F0"/>
</g>
</g>
<g id="Text_Box_4_">
<g id="_x7B__x7D__5_">
<g id="Speech_Bubble_3_">
<g id="Speach_Bubble_2_">
<g id="XMLID_4_">
<path id="XMLID_6_" d="M70.9 64.8L17 95.9C16.3 96.3 15.7 97.4 15.7 98.2V128.3C15.7 129.2 16.3 130.2 17 130.6L22.3 133.6C23 134 24.2 134 25 133.6L78.9 102.6C79.6 102.2 80.2 101.1 80.2 100.3V70.2C80.2 69.3 79.6 68.3 78.9 67.9L73.6 64.9C72.8 64.4 71.6 64.4 70.9 64.8Z" fill="#263238"/>
<path id="XMLID_5_" d="M80.2 69.9C80.1 69.2 79.5 69 78.9 69.4L25 100.4C24.6 100.6 24.3 101 24.1 101.4L16.1 96.8C16.3 96.4 16.7 96.1 17 95.8L70.9 64.8C71.6 64.4 72.8 64.4 73.6 64.8L78.9 67.8C79.5 68.2 80.1 69.1 80.2 69.9Z" fill="#455A64"/>
<g id="Group_53">
<path id="Vector_104" d="M78.9 69.4L25 100.4C24.3 100.8 23.7 101.9 23.7 102.7V132.8C23.7 133.7 24.3 134 25 133.6L78.9 102.6C79.6 102.2 80.2 101.1 80.2 100.3V70.2C80.2 69.3 79.6 69 78.9 69.4Z" fill="#37474F"/>
</g>
</g>
</g>
</g>
</g>
<g id="Group_54">
<path id="Vector_105" d="M37.2 100.9C37.3 100.8 37.4 100.8 37.5 100.9C37.6 101 37.6 101.1 37.6 101.3V118.4C37.6 118.6 37.6 118.8 37.5 119C37.4 119.2 37.3 119.3 37.2 119.4L34.9 120.7C34.8 120.8 34.7 120.8 34.6 120.7C34.5 120.6 34.5 120.5 34.5 120.3V113.8L30.7 116V122.5C30.7 122.7 30.7 122.9 30.6 123.1C30.5 123.3 30.4 123.4 30.3 123.5L28 124.8C27.9 124.9 27.8 124.9 27.7 124.8C27.6 124.7 27.6 124.6 27.6 124.4V107.3C27.6 107.1 27.6 106.9 27.7 106.7C27.8 106.5 27.9 106.4 28 106.3L30.3 105C30.4 104.9 30.5 104.9 30.6 105C30.7 105.1 30.7 105.2 30.7 105.4V111.8L34.5 109.6V103.2C34.5 103 34.5 102.8 34.6 102.6C34.7 102.4 34.8 102.3 34.9 102.2L37.2 100.9Z" fill="#F0F0F0"/>
<path id="Vector_106" d="M49.8 93.7C49.9 93.6 50 93.6 50.1 93.7C50.2 93.8 50.2 93.9 50.2 94.1V96.9C50.2 97.1 50.2 97.3 50.1 97.5C50 97.7 49.9 97.8 49.8 97.9L46.8 99.6V113.2C46.8 113.4 46.8 113.6 46.7 113.8C46.6 114 46.5 114.1 46.4 114.2L44.1 115.5C44 115.6 43.9 115.6 43.8 115.5C43.7 115.4 43.7 115.3 43.7 115.1V101.5L40.7 103.2C40.6 103.3 40.5 103.3 40.4 103.2C40.3 103.1 40.3 103 40.3 102.8V100C40.3 99.8 40.3 99.6 40.4 99.4C40.5 99.2 40.6 99.1 40.7 99L49.8 93.7Z" fill="#F0F0F0"/>
<path id="Vector_107" d="M57.7 103C57.6 102.9 57.5 102.8 57.5 102.7L55.9 99.3V108.1C55.9 108.3 55.9 108.5 55.8 108.7C55.7 108.9 55.6 109 55.5 109.1L53.2 110.4C53.1 110.5 53 110.5 52.9 110.4C52.8 110.3 52.8 110.2 52.8 110V92.7C52.8 92.5 52.8 92.3 52.9 92.1C53 91.9 53.1 91.8 53.2 91.7L55.2 90.5C55.4 90.4 55.6 90.4 55.7 90.5C55.8 90.6 55.9 90.7 55.9 90.8L58.7 96.5L61.5 87.6C61.5 87.5 61.6 87.3 61.7 87C61.8 86.7 62 86.5 62.2 86.4L64.2 85.2C64.3 85.1 64.4 85.1 64.5 85.2C64.6 85.3 64.6 85.4 64.6 85.6V102.7C64.6 102.9 64.6 103.1 64.5 103.3C64.4 103.5 64.3 103.6 64.2 103.7L61.9 105C61.8 105.1 61.7 105.1 61.6 105C61.5 104.9 61.5 104.8 61.5 104.6V96L59.9 101.3C59.8 101.5 59.8 101.7 59.7 101.9C59.6 102.1 59.5 102.3 59.3 102.4L58.2 103C57.9 103.1 57.8 103.1 57.7 103Z" fill="#F0F0F0"/>
<path id="Vector_108" d="M76.3 92.7C76.4 92.6 76.5 92.6 76.6 92.7C76.7 92.8 76.7 92.9 76.7 93.1V95.9C76.7 96.1 76.7 96.3 76.6 96.5C76.5 96.7 76.4 96.8 76.3 96.9L68.3 101.5C68.2 101.6 68.1 101.6 68 101.5C67.9 101.4 67.9 101.3 67.9 101.1V83.9C67.9 83.7 67.9 83.5 68 83.3C68.1 83.1 68.2 83 68.3 82.9L70.6 81.6C70.7 81.5 70.8 81.5 70.9 81.6C71 81.7 71 81.8 71 82V95.6L76.3 92.7Z" fill="#F0F0F0"/>
</g>
</g>
<g id="Text_Box_3_">
<g id="_x7B__x7D__4_">
<g id="Speech_Bubble_2_">
<g id="Speach_Bubble_1_">
<g id="XMLID_1_">
<path id="XMLID_3_" d="M70.9 127.4L17 158.4C16.3 158.8 15.7 159.9 15.7 160.7V190.8C15.7 191.7 16.3 192.7 17 193.1L22.3 196.1C23 196.5 24.2 196.5 25 196.1L78.9 165.1C79.6 164.7 80.2 163.6 80.2 162.8V132.7C80.2 131.8 79.6 130.8 78.9 130.4L73.6 127.4C72.8 126.9 71.6 126.9 70.9 127.4Z" fill="#263238"/>
<path id="XMLID_2_" d="M80.2 132.4C80.1 131.7 79.5 131.5 78.9 131.9L25 162.9C24.6 163.1 24.3 163.5 24.1 163.9L16.1 159.3C16.3 158.9 16.7 158.6 17 158.3L70.9 127.3C71.6 126.9 72.8 126.9 73.6 127.3L78.9 130.3C79.5 130.7 80.1 131.6 80.2 132.4Z" fill="#455A64"/>
<g id="Group_55">
<path id="Vector_109" d="M78.9 131.9L25 162.9C24.3 163.3 23.7 164.4 23.7 165.2V195.3C23.7 196.2 24.3 196.5 25 196.1L78.9 165.1C79.6 164.7 80.2 163.6 80.2 162.8V132.7C80.2 131.8 79.6 131.5 78.9 131.9Z" fill="#37474F"/>
</g>
</g>
</g>
</g>
</g>
<g id="Group_56">
<path id="Vector_110" d="M38 170C38 170.2 38 170.6 38 171C38 171.4 38 171.8 38 172.3C38 172.8 38 173.2 38 173.6C38 174 38 174.3 38 174.6C38 175 38.1 175.4 38.2 175.7C38.3 176 38.4 176.3 38.6 176.5C38.8 176.7 39 176.8 39.3 176.8C39.6 176.8 39.9 176.7 40.3 176.5C40.7 176.3 41 176 41.3 175.7C41.6 175.4 41.8 175.1 41.9 174.8C42.1 174.5 42.2 174.2 42.3 173.9C42.4 173.6 42.5 173.3 42.5 173.1C42.6 172.8 42.6 172.5 42.7 172.4C42.8 172.2 42.9 172.1 43.1 172L45.4 170.7C45.5 170.6 45.6 170.6 45.7 170.7C45.8 170.8 45.8 170.9 45.8 171C45.8 171.9 45.6 172.8 45.4 173.8C45.1 174.8 44.7 175.7 44.3 176.5C43.8 177.4 43.3 178.2 42.6 178.9C42 179.6 41.2 180.2 40.5 180.6C39.7 181.1 38.9 181.3 38.3 181.3C37.7 181.3 37.1 181.1 36.6 180.7C36.1 180.3 35.8 179.8 35.5 179C35.3 178.3 35.1 177.4 35.1 176.5C35.1 175.8 35.1 175 35.1 174.2C35.1 173.4 35.1 172.6 35.1 171.8C35.1 170.8 35.3 169.8 35.5 168.8C35.8 167.8 36.1 166.8 36.6 165.9C37.1 165 37.6 164.1 38.3 163.4C39 162.6 39.7 162 40.5 161.5C41.3 161.1 42 160.8 42.6 160.8C43.2 160.8 43.8 160.9 44.3 161.2C44.8 161.5 45.2 162 45.4 162.6C45.7 163.2 45.8 164 45.8 164.9C45.8 165.1 45.8 165.2 45.7 165.4C45.6 165.6 45.5 165.7 45.4 165.7L43.1 167C42.9 167.1 42.8 167.1 42.7 167.1C42.6 167 42.6 166.9 42.5 166.6C42.5 166.4 42.4 166.2 42.3 166C42.2 165.8 42.1 165.6 41.9 165.5C41.7 165.4 41.5 165.3 41.3 165.3C41 165.3 40.7 165.4 40.3 165.6C39.9 165.8 39.6 166.1 39.3 166.4C39 166.7 38.8 167.1 38.6 167.5C38.4 167.9 38.3 168.3 38.2 168.7C38.1 169.2 38 169.6 38 170Z" fill="#F0F0F0"/>
<path id="Vector_111" d="M53.8 166.5V170.9C53.8 171.1 53.8 171.3 53.7 171.5C53.6 171.7 53.5 171.8 53.4 171.9L51.2 173.2C51.1 173.3 51 173.3 50.9 173.2C50.8 173.1 50.8 173 50.8 172.8V168.4L48.1 169.9C48 170 47.9 170 47.8 169.9C47.7 169.8 47.7 169.7 47.7 169.5V166.8C47.7 166.6 47.7 166.4 47.8 166.2C47.9 166 48 165.9 48.1 165.8L50.8 164.3V159.9C50.8 159.7 50.8 159.5 50.9 159.3C51 159.1 51.1 159 51.2 158.9L53.4 157.6C53.5 157.5 53.6 157.5 53.7 157.6C53.8 157.7 53.8 157.8 53.8 158V162.4L56.5 160.9C56.6 160.8 56.7 160.8 56.8 160.9C56.9 161 56.9 161.1 56.9 161.3V164C56.9 164.2 56.9 164.4 56.8 164.6C56.7 164.8 56.6 164.9 56.5 165L53.8 166.5Z" fill="#F0F0F0"/>
<path id="Vector_112" d="M65.2 159.9V164.3C65.2 164.5 65.2 164.7 65.1 164.9C65 165.1 64.9 165.2 64.8 165.3L62.6 166.6C62.5 166.7 62.4 166.7 62.3 166.6C62.2 166.5 62.2 166.4 62.2 166.2V161.8L59.5 163.3C59.4 163.4 59.3 163.4 59.2 163.3C59.1 163.2 59.1 163.1 59.1 162.9V160.2C59.1 160 59.1 159.8 59.2 159.6C59.3 159.4 59.4 159.3 59.5 159.2L62.2 157.7V153.3C62.2 153.1 62.2 152.9 62.3 152.7C62.4 152.5 62.5 152.4 62.6 152.3L64.8 151C64.9 150.9 65 150.9 65.1 151C65.2 151.1 65.2 151.2 65.2 151.4V155.8L67.9 154.3C68 154.2 68.1 154.2 68.2 154.3C68.3 154.4 68.3 154.5 68.3 154.7V157.4C68.3 157.6 68.3 157.8 68.2 158C68.1 158.2 68 158.3 67.9 158.4L65.2 159.9Z" fill="#F0F0F0"/>
</g>
</g>
</g>
</g>
<defs>
<clipPath id="clip0_27_1761">
<rect width="448.5" height="461.6" fill="white"/>
</clipPath>
</defs>
</svg>
