<svg width="80" height="129" viewBox="0 0 80 129" fill="none" xmlns="http://www.w3.org/2000/svg">
<g id="Pot_2_">
<g id="XMLID_139_">
<g id="XMLID_140_">
<g id="XMLID_141_">
<g id="XMLID_204_">
<path id="XMLID_205_" d="M18.1 121.6C7.70001 110.9 1.60002 67.3 11.7 58.8H63.2C73.3 67.3 67.2 110.9 56.9 121.6C56.8 121.7 56.7 121.8 56.6 121.9C56.5 122 56.4 122.1 56.2 122.3C55.9 122.6 55.6 122.9 55.3 123.1C55.2 123.2 55.1 123.2 55.1 123.3C54.8 123.5 54.6 123.7 54.3 123.9C53.9 124.2 53.4 124.5 53 124.8C44.5 129.8 30.6 129.8 22.1 124.8C21.6 124.5 21.2 124.2 20.7 123.9C20.4 123.7 20.2 123.5 20 123.3C19.9 123.2 19.8 123.1 19.7 123.1C19.4 122.8 19.1 122.6 18.8 122.3C18.7 122.2 18.5 122 18.4 121.9C18.2 121.8 18.1 121.7 18.1 121.6Z" fill="#03ABAA"/>
</g>
<g id="XMLID_202_" opacity="0.5">
<path id="XMLID_203_" d="M18.1 121.6C7.70001 110.9 1.60002 67.3 11.7 58.8H63.2C73.3 67.3 67.2 110.9 56.9 121.6C56.8 121.7 56.7 121.8 56.6 121.9C56.5 122 56.4 122.1 56.2 122.3C55.9 122.6 55.6 122.9 55.3 123.1C55.2 123.2 55.1 123.2 55.1 123.3C54.8 123.5 54.6 123.7 54.3 123.9C53.9 124.2 53.4 124.5 53 124.8C44.5 129.8 30.6 129.8 22.1 124.8C21.6 124.5 21.2 124.2 20.7 123.9C20.4 123.7 20.2 123.5 20 123.3C19.9 123.2 19.8 123.1 19.7 123.1C19.4 122.8 19.1 122.6 18.8 122.3C18.7 122.2 18.5 122 18.4 121.9C18.2 121.8 18.1 121.7 18.1 121.6Z" fill="white"/>
</g>
<g id="XMLID_200_">
<path id="XMLID_201_" d="M58.7 55.4C70.5 62.3 70.5 73.4 58.7 80.2C46.9 87.1 27.9 87.1 16.1 80.2C4.3 73.3 4.3 62.2 16.1 55.4C27.9 48.6 47 48.6 58.7 55.4Z" fill="#03ABAA"/>
</g>
<g id="XMLID_198_" opacity="0.7">
<path id="XMLID_199_" d="M58.7 55.4C70.5 62.3 70.5 73.4 58.7 80.2C46.9 87.1 27.9 87.1 16.1 80.2C4.3 73.3 4.3 62.2 16.1 55.4C27.9 48.6 47 48.6 58.7 55.4Z" fill="white"/>
</g>
<g id="XMLID_196_">
<path id="XMLID_197_" d="M53.1 58.7C61.7 63.7 61.7 71.9 53.1 76.9C44.5 81.9 30.5 81.9 21.8 76.9C13.2 71.9 13.2 63.7 21.8 58.7C30.5 53.7 44.5 53.7 53.1 58.7Z" fill="#03ABAA"/>
</g>
<g id="XMLID_194_" opacity="0.3">
<path id="XMLID_195_" d="M53.1 58.7C61.7 63.7 61.7 71.9 53.1 76.9C44.5 81.9 30.5 81.9 21.8 76.9C13.2 71.9 13.2 63.7 21.8 58.7C30.5 53.7 44.5 53.7 53.1 58.7Z" fill="black"/>
</g>
<g id="XMLID_142_">
<path id="XMLID_193_" d="M21.8 67.4C30.4 62.4 44.4 62.4 53.1 67.4C55.5 68.8 57.2 70.4 58.3 72.2C57.2 73.9 55.5 75.6 53.1 77C44.5 82 30.5 82 21.8 77C19.4 75.6 17.7 74 16.6 72.2C17.7 70.4 19.4 68.8 21.8 67.4Z" fill="#F5F5F5"/>
</g>
</g>
</g>
</g>
<g id="Plants_1_">
<g id="XMLID_104_">
<g id="XMLID_137_">
<path id="XMLID_138_" d="M33.2 45.4C32.6 44.2 32.1 43 31.9 41.6C31.3 38.5 32.1 34.9 34.6 32.9C35.6 32.1 36.9 31.6 37.4 30.4C37.6 29.7 37.5 29 37.4 28.3C36.9 25.6 36 22.9 36.8 20.2C37.5 17.8 39.5 15.9 41.8 14.8C44.1 13.7 46.6 13.3 49.1 12.9C50.4 12.7 51.8 12.5 52.9 11.8C54.3 11 54.8 9.59998 55.7 8.29998C56.7 6.89998 58 5.7 59.2 4.5C61.8 2.2 65.1 0.19999 68.7 0.39999C76.3 0.69999 76.1 7.30001 73.9 12.2C71.7 17.1 71.1 18.7 75.9 23.9C80.6 29 80.6 35.4 75 38.9C69.4 42.5 65.7 42.9 67.9 49.8C69.9 55.9 71.1 61.1 65.5 67.6C61.9 71.8 56.9 74.8 50.6 74.6C48.8 74.5 44.9 73.7 43.3 72.9C41.6 72 42.7 70.7 42.2 69C41 65.4 39.7 61.7 38.5 58.1C37.5 55.3 36.8 52.2 35.5 49.5C34.8 48.2 34 46.8 33.2 45.4Z" fill="#03ABAA"/>
</g>
<g id="XMLID_135_" opacity="0.25">
<path id="XMLID_136_" d="M33.2 45.4C32.6 44.2 32.1 43 31.9 41.6C31.3 38.5 32.1 34.9 34.6 32.9C35.6 32.1 36.9 31.6 37.4 30.4C37.6 29.7 37.5 29 37.4 28.3C36.9 25.6 36 22.9 36.8 20.2C37.5 17.8 39.5 15.9 41.8 14.8C44.1 13.7 46.6 13.3 49.1 12.9C50.4 12.7 51.8 12.5 52.9 11.8C54.3 11 54.8 9.59998 55.7 8.29998C56.7 6.89998 58 5.7 59.2 4.5C61.8 2.2 65.1 0.19999 68.7 0.39999C76.3 0.69999 76.1 7.30001 73.9 12.2C71.7 17.1 71.1 18.7 75.9 23.9C80.6 29 80.6 35.4 75 38.9C69.4 42.5 65.7 42.9 67.9 49.8C69.9 55.9 71.1 61.1 65.5 67.6C61.9 71.8 56.9 74.8 50.6 74.6C48.8 74.5 44.9 73.7 43.3 72.9C41.6 72 42.7 70.7 42.2 69C41 65.4 39.7 61.7 38.5 58.1C37.5 55.3 36.8 52.2 35.5 49.5C34.8 48.2 34 46.8 33.2 45.4Z" fill="black"/>
</g>
<g id="XMLID_133_">
<path id="XMLID_134_" d="M43.5 73.1C43.7 73 43.9 72.8 43.9 72.6C43.6 35.2 64.2 12.8 64.4 12.6C64.6 12.4 64.6 12 64.4 11.8C64.2 11.6 63.8 11.6 63.6 11.8C63.4 12 42.5 34.7 42.8 72.6C42.8 72.9 43.1 73.2 43.4 73.2C43.4 73.1 43.5 73.1 43.5 73.1Z" fill="white"/>
</g>
<g id="XMLID_131_">
<path id="XMLID_132_" d="M49.5 38.3C49.5 38.3 49.6 38.3 49.6 38.2C56.3 34 68.3 30.8 68.4 30.8C68.7 30.7 68.9 30.4 68.8 30.1C68.7 29.8 68.4 29.6 68.1 29.7C67.6 29.8 55.8 32.9 49 37.2C48.7 37.4 48.7 37.7 48.8 38C49 38.3 49.3 38.4 49.5 38.3Z" fill="white"/>
</g>
<g id="XMLID_129_">
<path id="XMLID_130_" d="M51.6 33.2C51.9 33.1 52.1 32.7 51.9 32.5C49.6 26.7 45.9 22.3 45.7 22.1C45.5 21.9 45.1 21.8 44.9 22C44.7 22.2 44.6 22.6 44.8 22.8C44.8 22.8 48.5 27.3 50.8 32.9C51 33.1 51.3 33.3 51.6 33.2Z" fill="white"/>
</g>
</g>
<g id="XMLID_99_">
<path id="XMLID_103_" d="M38.3 77.2C38.3 77.2 31.3 79.8 21.9 77.8C12.5 75.8 6.70002 67 6.70002 67C6.70002 67 16.9 62.9 22.8 62.5C22.8 62.5 13.6 60.9 4.9 62.9C4.9 62.9 -0.599992 60.9 0.500008 51.7C0.500008 51.7 5.60001 47.9 17.5 49.4C17.5 49.4 11.6 45.2 1.20002 43.9C0.40002 43.9 1.50001 31.9 2.50001 26.6C3.50001 21.2 5.50002 22.1 9.70002 22.5C13.9 23 26.5 25.8 28.1 28.9C29.7 32 28.1 39.8 28.1 39.8C28.1 39.8 31.6 35.5 31.6 29.5C31.6 29.5 36.3 31.2 38.9 33.5C41.4 35.7 42.7 37.5 43.4 39.2C42.8 43.4 40.8 49.8 38 53.4C38 53.4 44.3 49.4 45.7 41.9C45.7 41.9 50.7 48.3 50.7 56.6C50.6 65.9 46.4 72.9 38.3 77.2Z" fill="#03ABAA"/>
<path id="XMLID_102_" opacity="0.1" d="M38.3 77.2C38.3 77.2 31.3 79.8 21.9 77.8C12.5 75.8 6.70002 67 6.70002 67C6.70002 67 16.9 62.9 22.8 62.5C22.8 62.5 13.6 60.9 4.9 62.9C4.9 62.9 -0.599992 60.9 0.500008 51.7C0.500008 51.7 5.60001 47.9 17.5 49.4C17.5 49.4 11.6 45.2 1.20002 43.9C0.40002 43.9 1.50001 31.9 2.50001 26.6C3.50001 21.2 5.50002 22.1 9.70002 22.5C13.9 23 26.5 25.8 28.1 28.9C29.7 32 28.1 39.8 28.1 39.8C28.1 39.8 31.6 35.5 31.6 29.5C31.6 29.5 36.3 31.2 38.9 33.5C41.4 35.7 42.7 37.5 43.4 39.2C42.8 43.4 40.8 49.8 38 53.4C38 53.4 44.3 49.4 45.7 41.9C45.7 41.9 50.7 48.3 50.7 56.6C50.6 65.9 46.4 72.9 38.3 77.2Z" fill="black"/>
<g id="XMLID_100_">
<path id="XMLID_101_" d="M39.5 76.3C39.3 76.2 39.2 76.1 39.2 75.8C37.8 57.9 17.8 30.1 9.00001 24.4C8.80001 24.2 8.7 23.9 8.8 23.7C9 23.4 9.30001 23.4 9.50001 23.5C18.5 29.2 38.8 57.5 40.2 75.7C40.2 76 40 76.3 39.7 76.3C39.7 76.4 39.6 76.3 39.5 76.3Z" fill="white"/>
</g>
</g>
</g>
</g>
</svg>
