<svg width="57" height="82" viewBox="0 0 57 82" fill="none" xmlns="http://www.w3.org/2000/svg">
<g id="Speech_Bubble_8_">
<g id="XMLID_10_">
<path id="XMLID_15_" d="M30.7 81.8L26.3 73.6L29.8 63.5V57.3L19 63.5V69.7L23.6 77.7C23.7 77.8 23.8 77.9 23.9 78L30.7 81.8Z" fill="#03ABAA"/>
<path id="XMLID_14_" opacity="0.2" d="M30.7 81.8L26.3 73.6L29.8 63.5V57.3L19 63.5V69.7L23.6 77.7C23.7 77.8 23.8 77.9 23.9 78L30.7 81.8Z" fill="black"/>
<path id="XMLID_13_" d="M56.4 7.9C56.4 5.8 55 3.3 53.2 2.3L50.6 0.800003C48.8 -0.199997 45.9 -0.199997 44.1 0.800003L3.8 24.1C2 25.1 0.600006 27.6 0.600006 29.7V74C0.600006 76.1 2 78.6 3.8 79.6L6.39999 81.1C8.19999 82.1 11.1 82.1 12.9 81.1L25.9 73.6L30.5 81.6C30.8 82.1 31.6 82 31.7 81.5L36.6 67.4L53.2 57.8C55 56.8 56.4 54.3 56.4 52.2V7.9Z" fill="#03ABAA"/>
<path id="XMLID_12_" opacity="0.2" d="M0.600006 74C0.600006 76.1 2 78.6 3.8 79.6L6.39999 81.1C7.99999 82 10.5 82.1 12.3 81.4C10.8 82 9.60001 81.1 9.60001 79.3V35C9.60001 34 10 32.8 10.5 31.8L1.39999 26.6C0.799994 27.6 0.5 28.7 0.5 29.8V74H0.600006Z" fill="black"/>
<path id="XMLID_11_" opacity="0.5" d="M56.3 7.00001C55.9 5.60001 54.7 5.20001 53.2 6.10001L12.9 29.4C12 29.9 11.2 30.8 10.6 31.8L1.5 26.6C2.1 25.6 2.9 24.7 3.8 24.2L44.1 0.900009C45.9 -0.0999908 48.8 -0.0999908 50.6 0.900009L53.2 2.40001C54.7 3.20001 56 5.10001 56.3 7.00001Z" fill="white"/>
</g>
<g id="_x3C__x2F__x3E__1_">
<path id="Vector" d="M15.6 52.3C15.6 51.9 15.7 51.6 15.8 51.4C15.9 51.1 16.1 50.9 16.3 50.5L25.1 36.3C25.2 36.2 25.2 36.2 25.2 36.1L25.3 36C25.4 35.9 25.5 35.9 25.6 36C25.7 36.1 25.7 36.2 25.7 36.4V42C25.7 42.4 25.6 42.8 25.4 43.1C25.2 43.4 25.1 43.7 25 43.8L20.5 50.7L25 52.8C25.1 52.8 25.3 52.9 25.4 53C25.6 53.1 25.7 53.4 25.7 53.8V57.7C25.7 57.9 25.7 58.1 25.6 58.3C25.5 58.5 25.4 58.6 25.3 58.7H25.2H25.1L16.3 54.7C16.1 54.6 15.9 54.5 15.8 54.4C15.7 54.3 15.6 54 15.6 53.7V52.3Z" fill="white"/>
<path id="Vector_2" d="M34.7 30.4C34.8 30.1 34.9 29.8 35 29.5C35.1 29.2 35.4 29 35.6 28.8L38.5 27.1C38.6 27 38.7 27 38.8 27.1C38.9 27.2 38.9 27.3 38.9 27.5C38.9 27.6 38.9 27.7 38.9 27.8L31.5 59.3C31.4 59.6 31.3 59.8 31.2 60.2C31.1 60.5 30.8 60.7 30.5 60.9L27.6 62.6C27.5 62.7 27.4 62.7 27.3 62.6C27.2 62.5 27.2 62.4 27.2 62.2C27.2 62.1 27.2 62 27.2 61.9L34.7 30.4Z" fill="white"/>
<path id="Vector_3" d="M50.8 35.5C50.8 35.9 50.7 36.2 50.6 36.4C50.5 36.7 50.3 36.9 50.1 37.3L41.3 51.5C41.2 51.6 41.2 51.6 41.2 51.7L41.1 51.8C41 51.9 40.9 51.9 40.8 51.8C40.7 51.7 40.7 51.6 40.7 51.4V45.9C40.7 45.5 40.8 45.1 41 44.8C41.2 44.5 41.3 44.3 41.4 44.1L45.2 38.2L41.4 36.7C41.3 36.7 41.1 36.6 41 36.5C40.8 36.4 40.7 36.1 40.7 35.7V30C40.7 29.8 40.7 29.6 40.8 29.4C40.9 29.2 41 29.1 41.1 29H41.2H41.3L50.1 33C50.3 33.1 50.5 33.2 50.6 33.3C50.7 33.4 50.8 33.7 50.8 34V35.5Z" fill="white"/>
</g>
</g>
</svg>
