<svg width="66" height="70" viewBox="0 0 66 70" fill="none" xmlns="http://www.w3.org/2000/svg">
<g id="Text_Box_4_">
<g id="_x7B__x7D__5_">
<g id="Speech_Bubble_3_">
<g id="Speach_Bubble_2_">
<g id="XMLID_4_">
<path id="XMLID_6_" d="M55.9 0.800004L2 31.9C1.3 32.3 0.699997 33.4 0.699997 34.2V64.3C0.699997 65.2 1.3 66.2 2 66.6L7.3 69.6C8 70 9.2 70 10 69.6L63.9 38.6C64.6 38.2 65.2 37.1 65.2 36.3V6.2C65.2 5.3 64.6 4.3 63.9 3.9L58.6 0.900002C57.8 0.400002 56.6 0.400004 55.9 0.800004Z" fill="#263238"/>
<path id="XMLID_5_" d="M65.2 5.9C65.1 5.2 64.5 5 63.9 5.4L10 36.4C9.6 36.6 9.3 37 9.1 37.4L1.1 32.8C1.3 32.4 1.7 32.1 2 31.8L55.9 0.8C56.6 0.4 57.8 0.4 58.6 0.8L63.9 3.8C64.5 4.2 65.1 5.1 65.2 5.9Z" fill="#455A64"/>
<g id="Group">
<path id="Vector" d="M63.9 5.4L10 36.4C9.3 36.8 8.7 37.9 8.7 38.7V68.8C8.7 69.7 9.3 70 10 69.6L63.9 38.6C64.6 38.2 65.2 37.1 65.2 36.3V6.2C65.2 5.3 64.6 5 63.9 5.4Z" fill="#37474F"/>
</g>
</g>
</g>
</g>
</g>
<g id="Group_2">
<path id="Vector_2" d="M22.2 36.9C22.3 36.8 22.4 36.8 22.5 36.9C22.6 37 22.6 37.1 22.6 37.3V54.4C22.6 54.6 22.6 54.8 22.5 55C22.4 55.2 22.3 55.3 22.2 55.4L19.9 56.7C19.8 56.8 19.7 56.8 19.6 56.7C19.5 56.6 19.5 56.5 19.5 56.3V49.8L15.7 52V58.5C15.7 58.7 15.7 58.9 15.6 59.1C15.5 59.3 15.4 59.4 15.3 59.5L13 60.8C12.9 60.9 12.8 60.9 12.7 60.8C12.6 60.7 12.6 60.6 12.6 60.4V43.3C12.6 43.1 12.6 42.9 12.7 42.7C12.8 42.5 12.9 42.4 13 42.3L15.3 41C15.4 40.9 15.5 40.9 15.6 41C15.7 41.1 15.7 41.2 15.7 41.4V47.8L19.5 45.6V39.2C19.5 39 19.5 38.8 19.6 38.6C19.7 38.4 19.8 38.3 19.9 38.2L22.2 36.9Z" fill="#F0F0F0"/>
<path id="Vector_3" d="M34.8 29.7C34.9 29.6 35 29.6 35.1 29.7C35.2 29.8 35.2 29.9 35.2 30.1V32.9C35.2 33.1 35.2 33.3 35.1 33.5C35 33.7 34.9 33.8 34.8 33.9L31.8 35.6V49.2C31.8 49.4 31.8 49.6 31.7 49.8C31.6 50 31.5 50.1 31.4 50.2L29.1 51.5C29 51.6 28.9 51.6 28.8 51.5C28.7 51.4 28.7 51.3 28.7 51.1V37.5L25.7 39.2C25.6 39.3 25.5 39.3 25.4 39.2C25.3 39.1 25.3 39 25.3 38.8V36C25.3 35.8 25.3 35.6 25.4 35.4C25.5 35.2 25.6 35.1 25.7 35L34.8 29.7Z" fill="#F0F0F0"/>
<path id="Vector_4" d="M42.7 39C42.6 38.9 42.5 38.8 42.5 38.7L40.9 35.3V44.1C40.9 44.3 40.9 44.5 40.8 44.7C40.7 44.9 40.6 45 40.5 45.1L38.2 46.4C38.1 46.5 38 46.5 37.9 46.4C37.8 46.3 37.8 46.2 37.8 46V28.7C37.8 28.5 37.8 28.3 37.9 28.1C38 27.9 38.1 27.8 38.2 27.7L40.2 26.5C40.4 26.4 40.6 26.4 40.7 26.5C40.8 26.6 40.9 26.7 40.9 26.8L43.7 32.5L46.5 23.6C46.5 23.5 46.6 23.3 46.7 23C46.8 22.7 47 22.5 47.2 22.4L49.2 21.2C49.3 21.1 49.4 21.1 49.5 21.2C49.6 21.3 49.6 21.4 49.6 21.6V38.7C49.6 38.9 49.6 39.1 49.5 39.3C49.4 39.5 49.3 39.6 49.2 39.7L46.9 41C46.8 41.1 46.7 41.1 46.6 41C46.5 40.9 46.5 40.8 46.5 40.6V32L44.9 37.3C44.8 37.5 44.8 37.7 44.7 37.9C44.6 38.1 44.5 38.3 44.3 38.4L43.2 39C42.9 39.1 42.8 39.1 42.7 39Z" fill="#F0F0F0"/>
<path id="Vector_5" d="M61.3 28.7C61.4 28.6 61.5 28.6 61.6 28.7C61.7 28.8 61.7 28.9 61.7 29.1V31.9C61.7 32.1 61.7 32.3 61.6 32.5C61.5 32.7 61.4 32.8 61.3 32.9L53.3 37.5C53.2 37.6 53.1 37.6 53 37.5C52.9 37.4 52.9 37.3 52.9 37.1V19.9C52.9 19.7 52.9 19.5 53 19.3C53.1 19.1 53.2 19 53.3 18.9L55.6 17.6C55.7 17.5 55.8 17.5 55.9 17.6C56 17.7 56 17.8 56 18V31.6L61.3 28.7Z" fill="#F0F0F0"/>
</g>
</g>
</svg>
