<svg width="66" height="70" viewBox="0 0 66 70" fill="none" xmlns="http://www.w3.org/2000/svg">
<g id="Text_Box_5_">
<g id="_x7B__x7D__6_">
<g id="Speech_Bubble_4_">
<g id="Speach_Bubble_6_">
<g id="XMLID_7_">
<path id="XMLID_9_" d="M55.9 0.3L2 31.4C1.3 31.8 0.699997 32.9 0.699997 33.7V63.8C0.699997 64.7 1.3 65.7 2 66.1L7.3 69.1C8 69.5 9.2 69.5 10 69.1L63.9 38.1C64.6 37.7 65.2 36.6 65.2 35.8V5.6C65.2 4.7 64.6 3.7 63.9 3.3L58.6 0.3C57.8 -0.1 56.6 -0.1 55.9 0.3Z" fill="#263238"/>
<path id="XMLID_8_" d="M65.2 5.4C65.1 4.7 64.5 4.5 63.9 4.9L10 35.9C9.6 36.1 9.3 36.5 9.1 36.9L1.1 32.3C1.3 31.9 1.7 31.6 2 31.3L55.9 0.3C56.6 -0.1 57.8 -0.1 58.6 0.3L63.9 3.3C64.5 3.7 65.1 4.6 65.2 5.4Z" fill="#455A64"/>
<g id="Group">
<path id="Vector" d="M63.9 4.9L10 35.9C9.3 36.3 8.7 37.4 8.7 38.2V68.3C8.7 69.2 9.3 69.5 10 69.1L63.9 38.1C64.6 37.7 65.2 36.6 65.2 35.8V5.6C65.2 4.8 64.6 4.4 63.9 4.9Z" fill="#37474F"/>
</g>
</g>
</g>
</g>
</g>
<g id="Group_2">
<path id="Vector_2" d="M22 43.6C22 43.8 22 44.2 22 44.6C22 45 22 45.4 22 45.9C22 46.3 22 46.8 22 47.2C22 47.6 22 47.9 22 48.2C22 48.6 22.1 49 22.2 49.3C22.3 49.6 22.4 49.9 22.6 50.1C22.8 50.3 23 50.4 23.3 50.4C23.6 50.4 23.9 50.3 24.3 50.1C24.7 49.9 25 49.6 25.3 49.3C25.6 49 25.8 48.7 25.9 48.4C26.1 48.1 26.2 47.8 26.3 47.5C26.4 47.2 26.5 46.9 26.5 46.7C26.6 46.4 26.6 46.1 26.7 46C26.8 45.8 26.9 45.7 27.1 45.6L29.4 44.3C29.5 44.2 29.6 44.2 29.7 44.3C29.8 44.4 29.8 44.5 29.8 44.6C29.8 45.5 29.6 46.4 29.4 47.4C29.1 48.4 28.7 49.3 28.3 50.1C27.8 51 27.3 51.8 26.6 52.5C26 53.2 25.2 53.8 24.5 54.2C23.7 54.7 22.9 54.9 22.3 54.9C21.7 54.9 21.1 54.7 20.6 54.3C20.1 53.9 19.8 53.4 19.5 52.6C19 51.8 18.8 51 18.8 50C18.8 49.3 18.8 48.5 18.8 47.7C18.8 46.9 18.8 46.1 18.8 45.3C18.8 44.3 19 43.3 19.2 42.3C19.5 41.3 19.8 40.3 20.3 39.4C20.8 38.5 21.3 37.6 22 36.9C22.7 36.1 23.4 35.5 24.2 35C25 34.6 25.7 34.3 26.3 34.3C26.9 34.3 27.5 34.4 28 34.7C28.5 35 28.9 35.5 29.1 36.1C29.4 36.7 29.5 37.5 29.5 38.4C29.5 38.6 29.5 38.7 29.4 38.9C29.3 39.1 29.2 39.2 29.1 39.2L26.8 40.5C26.6 40.6 26.5 40.6 26.4 40.6C26.3 40.5 26.3 40.4 26.2 40.1C26.2 39.9 26.1 39.7 26 39.5C25.9 39.3 25.8 39.1 25.6 39C25.6 39 25.3 39 25.1 39C24.8 39 24.5 39.1 24.1 39.3C23.7 39.5 23.4 39.8 23.1 40.1C22.8 40.4 22.6 40.8 22.4 41.2C22.2 41.6 22.1 42 22 42.4C22 42.8 22 43.2 22 43.6Z" fill="#F0F0F0"/>
<path id="Vector_3" d="M36.6 27.9C37.3 27.5 38 27.3 38.6 27.2C39.2 27.2 39.7 27.3 40.2 27.5C40.6 27.8 41 28.1 41.2 28.6C41.5 29.1 41.6 29.6 41.6 30.1C41.6 30.3 41.6 30.4 41.5 30.6C41.4 30.8 41.3 30.9 41.3 30.9L39 32.3C38.8 32.4 38.7 32.4 38.6 32.4C38.5 32.4 38.4 32.3 38.3 32.3C38.3 32.3 38.2 32.2 38.1 32.1C38 32 37.9 32 37.8 31.9C37.7 31.8 37.5 31.8 37.3 31.9C37.1 31.9 36.8 32 36.5 32.2C36.3 32.3 36.1 32.5 35.9 32.6C35.7 32.8 35.5 32.9 35.4 33.1C35.2 33.3 35.1 33.5 35 33.7C34.9 33.9 34.9 34.2 34.9 34.4C34.9 34.7 35 34.9 35.1 35C35.2 35.1 35.4 35.2 35.7 35.2C36 35.2 36.3 35.2 36.7 35C37.1 34.9 37.7 34.8 38.3 34.6C38.9 34.4 39.5 34.4 40 34.4C40.5 34.4 40.9 34.6 41.2 34.8C41.5 35.1 41.7 35.5 41.9 36C42.1 36.5 42.1 37.2 42.1 38C42.1 38.9 42 39.8 41.7 40.6C41.4 41.5 41.1 42.3 40.6 43.1C40.1 43.9 39.6 44.6 38.9 45.2C38.3 45.8 37.5 46.4 36.8 46.8C36 47.3 35.3 47.5 34.7 47.6C34.1 47.7 33.5 47.6 33 47.3C32.5 47 32.2 46.7 31.9 46.2C31.6 45.7 31.5 45.1 31.5 44.5C31.5 44.3 31.5 44.2 31.6 44C31.7 43.8 31.8 43.7 31.9 43.7L34.2 42.4C34.4 42.3 34.5 42.3 34.6 42.3C34.7 42.3 34.8 42.3 34.9 42.4C34.9 42.4 35 42.5 35.1 42.6C35.2 42.7 35.3 42.8 35.5 42.9C35.7 43 35.8 43 36.1 43C36.3 43 36.6 42.9 37 42.7C37.6 42.3 38.1 42 38.5 41.5C38.9 41.1 39.1 40.6 39.1 40C39.1 39.7 39 39.6 38.9 39.5C38.8 39.4 38.5 39.4 38.2 39.4C37.9 39.4 37.5 39.5 37.1 39.6C36.6 39.7 36.1 39.9 35.5 40C34.3 40.3 33.5 40.1 32.9 39.5C32.4 38.9 32.1 37.8 32.1 36.3C32.1 35.5 32.2 34.8 32.4 33.9C32.6 33.1 32.9 32.3 33.4 31.5C33.8 30.7 34.3 30 34.9 29.4C35.2 28.8 35.9 28.3 36.6 27.9Z" fill="#F0F0F0"/>
<path id="Vector_4" d="M49.1 20.7C49.8 20.3 50.5 20.1 51.1 20C51.7 20 52.2 20.1 52.7 20.3C53.1 20.6 53.5 20.9 53.7 21.4C54 21.9 54.1 22.4 54.1 22.9C54.1 23.1 54.1 23.2 54 23.4C53.9 23.6 53.8 23.7 53.7 23.7L51.4 25C51.2 25.1 51.1 25.1 51 25.1C50.9 25.1 50.8 25 50.7 25C50.7 25 50.6 24.9 50.5 24.8C50.4 24.7 50.3 24.7 50.2 24.6C50.1 24.5 49.9 24.5 49.7 24.6C49.5 24.6 49.2 24.7 48.9 24.9C48.7 25 48.5 25.2 48.3 25.3C48.1 25.5 47.9 25.6 47.8 25.8C47.6 26 47.5 26.2 47.4 26.4C47.3 26.6 47.3 26.9 47.3 27.1C47.3 27.4 47.4 27.6 47.5 27.7C47.6 27.8 47.8 27.9 48 27.9C48.3 27.9 48.6 27.9 49 27.7C49.4 27.6 50 27.5 50.6 27.3C51.2 27.1 51.8 27.1 52.3 27.1C52.8 27.1 53.2 27.3 53.5 27.5C53.8 27.8 54.1 28.2 54.2 28.7C54.4 29.2 54.4 29.9 54.4 30.7C54.4 31.6 54.3 32.5 54 33.3C53.7 34.2 53.4 35 52.9 35.8C52.4 36.6 51.9 37.3 51.2 37.9C50.6 38.5 49.8 39.1 49.1 39.5C48.3 40 47.6 40.2 47 40.3C46.4 40.4 45.8 40.3 45.3 40C44.8 39.7 44.5 39.4 44.2 38.9C43.9 38.4 43.8 37.8 43.8 37.2C43.8 37 43.8 36.9 43.9 36.7C44 36.5 44.1 36.4 44.1 36.4L46.4 35.1C46.6 35 46.7 35 46.8 35C46.9 35 47 35 47.1 35.1C47.1 35.1 47.2 35.2 47.3 35.3C47.4 35.4 47.5 35.5 47.7 35.6C47.9 35.7 48 35.7 48.3 35.7C48.5 35.7 48.8 35.6 49.2 35.4C49.8 35 50.3 34.7 50.7 34.2C51.1 33.8 51.3 33.3 51.3 32.7C51.3 32.4 51.2 32.3 51.1 32.2C51 32.1 50.7 32.1 50.4 32.1C50.1 32.1 49.7 32.2 49.3 32.3C48.8 32.4 48.3 32.6 47.7 32.7C46.5 33 45.7 32.8 45.1 32.2C44.6 31.6 44.3 30.5 44.3 29C44.3 28.2 44.4 27.5 44.6 26.6C44.8 25.8 45.1 25 45.6 24.2C46 23.4 46.5 22.7 47.1 22.1C47.6 21.6 48.3 21.1 49.1 20.7Z" fill="#F0F0F0"/>
</g>
</g>
</svg>
