<svg width="66" height="70" viewBox="0 0 66 70" fill="none" xmlns="http://www.w3.org/2000/svg">
<g id="Text_Box_3_">
<g id="_x7B__x7D__4_">
<g id="Speech_Bubble_2_">
<g id="Speach_Bubble_1_">
<g id="XMLID_1_">
<path id="XMLID_3_" d="M55.9 0.400002L2 31.4C1.3 31.8 0.699997 32.9 0.699997 33.7V63.8C0.699997 64.7 1.3 65.7 2 66.1L7.3 69.1C8 69.5 9.2 69.5 10 69.1L63.9 38.1C64.6 37.7 65.2 36.6 65.2 35.8V5.7C65.2 4.8 64.6 3.79999 63.9 3.39999L58.6 0.400002C57.8 -0.0999985 56.6 -0.0999985 55.9 0.400002Z" fill="#263238"/>
<path id="XMLID_2_" d="M65.2 5.39999C65.1 4.69999 64.5 4.49999 63.9 4.89999L10 35.9C9.6 36.1 9.3 36.5 9.1 36.9L1.1 32.3C1.3 31.9 1.7 31.6 2 31.3L55.9 0.3C56.6 -0.1 57.8 -0.1 58.6 0.3L63.9 3.3C64.5 3.7 65.1 4.59999 65.2 5.39999Z" fill="#455A64"/>
<g id="Group">
<path id="Vector" d="M63.9 4.9L10 35.9C9.3 36.3 8.7 37.4 8.7 38.2V68.3C8.7 69.2 9.3 69.5 10 69.1L63.9 38.1C64.6 37.7 65.2 36.6 65.2 35.8V5.7C65.2 4.8 64.6 4.5 63.9 4.9Z" fill="#37474F"/>
</g>
</g>
</g>
</g>
</g>
<g id="Group_2">
<path id="Vector_2" d="M23 43C23 43.2 23 43.6 23 44C23 44.4 23 44.8 23 45.3C23 45.8 23 46.2 23 46.6C23 47 23 47.3 23 47.6C23 48 23.1 48.4 23.2 48.7C23.3 49 23.4 49.3 23.6 49.5C23.8 49.7 24 49.8 24.3 49.8C24.6 49.8 24.9 49.7 25.3 49.5C25.7 49.3 26 49 26.3 48.7C26.6 48.4 26.8 48.1 26.9 47.8C27.1 47.5 27.2 47.2 27.3 46.9C27.4 46.6 27.5 46.3 27.5 46.1C27.6 45.8 27.6 45.5 27.7 45.4C27.8 45.2 27.9 45.1 28.1 45L30.4 43.7C30.5 43.6 30.6 43.6 30.7 43.7C30.8 43.8 30.8 43.9 30.8 44C30.8 44.9 30.6 45.8 30.4 46.8C30.1 47.8 29.7 48.7 29.3 49.5C28.8 50.4 28.3 51.2 27.6 51.9C27 52.6 26.2 53.2 25.5 53.6C24.7 54.1 23.9 54.3 23.3 54.3C22.7 54.3 22.1 54.1 21.6 53.7C21.1 53.3 20.8 52.8 20.5 52C20.3 51.3 20.1 50.4 20.1 49.5C20.1 48.8 20.1 48 20.1 47.2C20.1 46.4 20.1 45.6 20.1 44.8C20.1 43.8 20.3 42.8 20.5 41.8C20.8 40.8 21.1 39.8 21.6 38.9C22.1 38 22.6 37.1 23.3 36.4C24 35.6 24.7 35 25.5 34.5C26.3 34.1 27 33.8 27.6 33.8C28.2 33.8 28.8 33.9 29.3 34.2C29.8 34.5 30.2 35 30.4 35.6C30.7 36.2 30.8 37 30.8 37.9C30.8 38.1 30.8 38.2 30.7 38.4C30.6 38.6 30.5 38.7 30.4 38.7L28.1 40C27.9 40.1 27.8 40.1 27.7 40.1C27.6 40 27.6 39.9 27.5 39.6C27.5 39.4 27.4 39.2 27.3 39C27.2 38.8 27.1 38.6 26.9 38.5C26.7 38.4 26.5 38.3 26.3 38.3C26 38.3 25.7 38.4 25.3 38.6C24.9 38.8 24.6 39.1 24.3 39.4C24 39.7 23.8 40.1 23.6 40.5C23.4 40.9 23.3 41.3 23.2 41.7C23.1 42.2 23 42.6 23 43Z" fill="#F0F0F0"/>
<path id="Vector_3" d="M38.8 39.5V43.9C38.8 44.1 38.8 44.3 38.7 44.5C38.6 44.7 38.5 44.8 38.4 44.9L36.2 46.2C36.1 46.3 36 46.3 35.9 46.2C35.8 46.1 35.8 46 35.8 45.8V41.4L33.1 42.9C33 43 32.9 43 32.8 42.9C32.7 42.8 32.7 42.7 32.7 42.5V39.8C32.7 39.6 32.7 39.4 32.8 39.2C32.9 39 33 38.9 33.1 38.8L35.8 37.3V32.9C35.8 32.7 35.8 32.5 35.9 32.3C36 32.1 36.1 32 36.2 31.9L38.4 30.6C38.5 30.5 38.6 30.5 38.7 30.6C38.8 30.7 38.8 30.8 38.8 31V35.4L41.5 33.9C41.6 33.8 41.7 33.8 41.8 33.9C41.9 34 41.9 34.1 41.9 34.3V37C41.9 37.2 41.9 37.4 41.8 37.6C41.7 37.8 41.6 37.9 41.5 38L38.8 39.5Z" fill="#F0F0F0"/>
<path id="Vector_4" d="M50.2 32.9V37.3C50.2 37.5 50.2 37.7 50.1 37.9C50 38.1 49.9 38.2 49.8 38.3L47.6 39.6C47.5 39.7 47.4 39.7 47.3 39.6C47.2 39.5 47.2 39.4 47.2 39.2V34.8L44.5 36.3C44.4 36.4 44.3 36.4 44.2 36.3C44.1 36.2 44.1 36.1 44.1 35.9V33.2C44.1 33 44.1 32.8 44.2 32.6C44.3 32.4 44.4 32.3 44.5 32.2L47.2 30.7V26.3C47.2 26.1 47.2 25.9 47.3 25.7C47.4 25.5 47.5 25.4 47.6 25.3L49.8 24C49.9 23.9 50 23.9 50.1 24C50.2 24.1 50.2 24.2 50.2 24.4V28.8L52.9 27.3C53 27.2 53.1 27.2 53.2 27.3C53.3 27.4 53.3 27.5 53.3 27.7V30.4C53.3 30.6 53.3 30.8 53.2 31C53.1 31.2 53 31.3 52.9 31.4L50.2 32.9Z" fill="#F0F0F0"/>
</g>
</g>
</svg>
